Hubballi-Regular-45-40.ufo
<glyph name="exclam" format="1">
  <advance width="337"/>
  <unicode hex="0021"/>
  <outline>
    <contour>
      <point x="122" y="276" type="curve" smooth="yes"/>
      <point x="129" y="554" type="line" smooth="yes"/>
      <point x="130" y="578"/>
      <point x="151" y="599"/>
      <point x="175" y="598" type="curve" smooth="yes"/>
      <point x="199" y="597"/>
      <point x="220" y="576"/>
      <point x="219" y="552" type="curve" smooth="yes"/>
      <point x="212" y="274" type="line" smooth="yes"/>
      <point x="211" y="250"/>
      <point x="190" y="229"/>
      <point x="166" y="230" type="curve" smooth="yes"/>
      <point x="142" y="231"/>
      <point x="121" y="252"/>
    </contour>
    <component base="period" xOffset="49"/>
    <component base="period" xOffset="49"/>
  </outline>
</glyph>
<glyph name="numbersign" format="1">
  <advance width="586"/>
  <unicode hex="0023"/>
  <outline>
    <contour>
      <point x="518" y="502" type="curve" smooth="yes"/>
      <point x="342" y="18" type="line" smooth="yes"/>
      <point x="334" y="-5"/>
      <point x="307" y="-18"/>
      <point x="285" y="-9" type="curve" smooth="yes"/>
      <point x="262" y="-1"/>
      <point x="249" y="26"/>
      <point x="258" y="48" type="curve" smooth="yes"/>
      <point x="434" y="532" type="line" smooth="yes"/>
      <point x="442" y="555"/>
      <point x="469" y="568"/>
      <point x="491" y="559" type="curve" smooth="yes"/>
      <point x="514" y="551"/>
      <point x="527" y="524"/>
    </contour>
    <contour>
      <point x="318" y="502" type="curve" smooth="yes"/>
      <point x="142" y="18" type="line" smooth="yes"/>
      <point x="134" y="-5"/>
      <point x="107" y="-18"/>
      <point x="85" y="-9" type="curve" smooth="yes"/>
      <point x="62" y="-1"/>
      <point x="49" y="26"/>
      <point x="58" y="48" type="curve" smooth="yes"/>
      <point x="234" y="532" type="line" smooth="yes"/>
      <point x="242" y="555"/>
      <point x="269" y="568"/>
      <point x="291" y="559" type="curve" smooth="yes"/>
      <point x="314" y="551"/>
      <point x="327" y="524"/>
    </contour>
    <contour>
      <point x="527" y="343" type="curve" smooth="yes"/>
      <point x="123" y="343" type="line" smooth="yes"/>
      <point x="99" y="343"/>
      <point x="78" y="364"/>
      <point x="78" y="388" type="curve" smooth="yes"/>
      <point x="78" y="412"/>
      <point x="99" y="433"/>
      <point x="123" y="433" type="curve" smooth="yes"/>
      <point x="527" y="433" type="line" smooth="yes"/>
      <point x="551" y="433"/>
      <point x="572" y="412"/>
      <point x="572" y="388" type="curve" smooth="yes"/>
      <point x="572" y="364"/>
      <point x="551" y="343"/>
    </contour>
    <contour>
      <point x="458" y="143" type="curve" smooth="yes"/>
      <point x="54" y="143" type="line" smooth="yes"/>
      <point x="30" y="143"/>
      <point x="9" y="164"/>
      <point x="9" y="188" type="curve" smooth="yes"/>
      <point x="9" y="212"/>
      <point x="30" y="233"/>
      <point x="54" y="233" type="curve" smooth="yes"/>
      <point x="458" y="233" type="line" smooth="yes"/>
      <point x="482" y="233"/>
      <point x="503" y="212"/>
      <point x="503" y="188" type="curve" smooth="yes"/>
      <point x="503" y="164"/>
      <point x="482" y="143"/>
    </contour>
  </outline>
</glyph>
<glyph name="dollar" format="1">
  <advance width="584"/>
  <unicode hex="0024"/>
  <outline>
    <contour>
      <point x="427" y="452" type="curve" smooth="yes"/>
      <point x="378" y="469"/>
      <point x="342" y="479"/>
      <point x="270" y="479" type="curve" smooth="yes"/>
      <point x="214" y="479"/>
      <point x="159" y="458"/>
      <point x="159" y="420" type="curve" smooth="yes"/>
      <point x="159" y="381"/>
      <point x="199" y="350"/>
      <point x="301" y="332" type="curve" smooth="yes"/>
      <point x="486" y="297"/>
      <point x="526" y="223"/>
      <point x="526" y="146" type="curve" smooth="yes"/>
      <point x="526" y="67"/>
      <point x="472" y="-21"/>
      <point x="293" y="-21" type="curve" smooth="yes"/>
      <point x="217" y="-21"/>
      <point x="145" y="-5"/>
      <point x="79" y="26" type="curve" smooth="yes"/>
      <point x="58" y="37"/>
      <point x="48" y="65"/>
      <point x="58" y="87" type="curve" smooth="yes"/>
      <point x="69" y="108"/>
      <point x="97" y="118"/>
      <point x="119" y="108" type="curve" smooth="yes"/>
      <point x="173" y="81"/>
      <point x="231" y="69"/>
      <point x="293" y="69" type="curve" smooth="yes"/>
      <point x="376" y="69"/>
      <point x="436" y="97"/>
      <point x="436" y="146" type="curve" smooth="yes"/>
      <point x="436" y="197"/>
      <point x="382" y="225"/>
      <point x="287" y="244" type="curve" smooth="yes"/>
      <point x="81" y="278"/>
      <point x="69" y="359"/>
      <point x="69" y="420" type="curve"/>
      <point x="69" y="488"/>
      <point x="130" y="569"/>
      <point x="270" y="569" type="curve" smooth="yes"/>
      <point x="356" y="569"/>
      <point x="398" y="557"/>
      <point x="457" y="536" type="curve" smooth="yes"/>
      <point x="480" y="528"/>
      <point x="493" y="502"/>
      <point x="484" y="479" type="curve" smooth="yes"/>
      <point x="476" y="456"/>
      <point x="450" y="443"/>
    </contour>
    <contour>
      <point x="334" y="616" type="curve" smooth="yes"/>
      <point x="334" y="-74" type="line" smooth="yes"/>
      <point x="334" y="-98"/>
      <point x="313" y="-119"/>
      <point x="289" y="-119" type="curve" smooth="yes"/>
      <point x="265" y="-119"/>
      <point x="244" y="-98"/>
      <point x="244" y="-74" type="curve" smooth="yes"/>
      <point x="244" y="616" type="line" smooth="yes"/>
      <point x="244" y="640"/>
      <point x="265" y="661"/>
      <point x="289" y="661" type="curve" smooth="yes"/>
      <point x="313" y="661"/>
      <point x="334" y="640"/>
    </contour>
  </outline>
</glyph>
<glyph name="percent" format="1">
  <advance width="806"/>
  <unicode hex="0025"/>
  <outline>
    <contour>
      <point x="208" y="570" type="curve" smooth="yes"/>
      <point x="288" y="570"/>
      <point x="361" y="501"/>
      <point x="361" y="389" type="curve" smooth="yes"/>
      <point x="361" y="284"/>
      <point x="300" y="208"/>
      <point x="208" y="208" type="curve" smooth="yes"/>
      <point x="124" y="208"/>
      <point x="54" y="285"/>
      <point x="54" y="388" type="curve"/>
      <point x="54" y="501"/>
      <point x="123" y="570"/>
    </contour>
    <contour>
      <point x="604" y="340" type="curve" smooth="yes"/>
      <point x="684" y="340"/>
      <point x="757" y="271"/>
      <point x="757" y="159" type="curve" smooth="yes"/>
      <point x="757" y="54"/>
      <point x="696" y="-22"/>
      <point x="604" y="-22" type="curve" smooth="yes"/>
      <point x="520" y="-22"/>
      <point x="450" y="55"/>
      <point x="450" y="158" type="curve" smooth="yes"/>
      <point x="450" y="271"/>
      <point x="519" y="340"/>
    </contour>
    <contour>
      <point x="594" y="495" type="curve" smooth="yes"/>
      <point x="311" y="10" type="line" smooth="yes"/>
      <point x="299" y="-11"/>
      <point x="270" y="-18"/>
      <point x="249" y="-6" type="curve" smooth="yes"/>
      <point x="228" y="6"/>
      <point x="221" y="35"/>
      <point x="233" y="56" type="curve" smooth="yes"/>
      <point x="516" y="541" type="line" smooth="yes"/>
      <point x="528" y="562"/>
      <point x="557" y="569"/>
      <point x="578" y="557" type="curve" smooth="yes"/>
      <point x="599" y="545"/>
      <point x="606" y="516"/>
    </contour>
    <contour>
      <point x="208" y="480" type="curve" smooth="yes"/>
      <point x="165" y="480"/>
      <point x="144" y="435"/>
      <point x="144" y="388" type="curve" smooth="yes"/>
      <point x="144" y="345"/>
      <point x="166" y="298"/>
      <point x="208" y="298" type="curve" smooth="yes"/>
      <point x="254" y="298"/>
      <point x="271" y="346"/>
      <point x="271" y="389" type="curve" smooth="yes"/>
      <point x="271" y="435"/>
      <point x="248" y="480"/>
    </contour>
    <contour>
      <point x="604" y="250" type="curve" smooth="yes"/>
      <point x="561" y="250"/>
      <point x="540" y="205"/>
      <point x="540" y="158" type="curve" smooth="yes"/>
      <point x="540" y="115"/>
      <point x="562" y="68"/>
      <point x="604" y="68" type="curve" smooth="yes"/>
      <point x="650" y="68"/>
      <point x="667" y="116"/>
      <point x="667" y="159" type="curve" smooth="yes"/>
      <point x="667" y="205"/>
      <point x="644" y="250"/>
    </contour>
  </outline>
</glyph>
<glyph name="ampersand" format="1">
  <advance width="644"/>
  <unicode hex="0026"/>
  <outline>
    <contour>
      <point x="562" y="261" type="curve" smooth="yes"/>
      <point x="476" y="139" type="line" smooth="yes"/>
      <point x="388" y="15"/>
      <point x="323" y="-20"/>
      <point x="238" y="-20" type="curve" smooth="yes"/>
      <point x="123" y="-20"/>
      <point x="52" y="55"/>
      <point x="52" y="143" type="curve" smooth="yes"/>
      <point x="52" y="220"/>
      <point x="79" y="286"/>
      <point x="260" y="361" type="curve" smooth="yes"/>
      <point x="299" y="377"/>
      <point x="324" y="397"/>
      <point x="324" y="429" type="curve" smooth="yes"/>
      <point x="324" y="460"/>
      <point x="295" y="480"/>
      <point x="263" y="480" type="curve" smooth="yes"/>
      <point x="231" y="480"/>
      <point x="205" y="459"/>
      <point x="205" y="425" type="curve" smooth="yes"/>
      <point x="205" y="382"/>
      <point x="243" y="352"/>
      <point x="289" y="312" type="curve" smooth="yes"/>
      <point x="570" y="67" type="line" smooth="yes"/>
      <point x="588" y="51"/>
      <point x="590" y="22"/>
      <point x="574" y="3" type="curve" smooth="yes"/>
      <point x="558" y="-15"/>
      <point x="529" y="-17"/>
      <point x="510" y="-1" type="curve" smooth="yes"/>
      <point x="229" y="244" type="line" smooth="yes"/>
      <point x="157" y="308"/>
      <point x="115" y="360"/>
      <point x="115" y="425" type="curve"/>
      <point x="115" y="511"/>
      <point x="177" y="570"/>
      <point x="263" y="570" type="curve" smooth="yes"/>
      <point x="351" y="570"/>
      <point x="414" y="506"/>
      <point x="414" y="429" type="curve" smooth="yes"/>
      <point x="414" y="367"/>
      <point x="381" y="313"/>
      <point x="294" y="277" type="curve" smooth="yes"/>
      <point x="183" y="232"/>
      <point x="142" y="196"/>
      <point x="142" y="143" type="curve" smooth="yes"/>
      <point x="142" y="97"/>
      <point x="187" y="70"/>
      <point x="238" y="70" type="curve" smooth="yes"/>
      <point x="299" y="70"/>
      <point x="342" y="105"/>
      <point x="402" y="191" type="curve" smooth="yes"/>
      <point x="488" y="313" type="line" smooth="yes"/>
      <point x="502" y="333"/>
      <point x="531" y="338"/>
      <point x="551" y="324" type="curve" smooth="yes"/>
      <point x="571" y="310"/>
      <point x="576" y="281"/>
    </contour>
  </outline>
</glyph>
<glyph name="parenleft" format="1">
  <advance width="325"/>
  <unicode hex="0028"/>
  <outline>
    <contour>
      <point x="271" y="583" type="curve" smooth="yes"/>
      <point x="203" y="507"/>
      <point x="147" y="391"/>
      <point x="147" y="269" type="curve" smooth="yes"/>
      <point x="147" y="149"/>
      <point x="199" y="40"/>
      <point x="270" y="-35" type="curve" smooth="yes"/>
      <point x="287" y="-52"/>
      <point x="287" y="-82"/>
      <point x="269" y="-98" type="curve" smooth="yes"/>
      <point x="252" y="-115"/>
      <point x="222" y="-115"/>
      <point x="206" y="-97" type="curve" smooth="yes"/>
      <point x="119" y="-8"/>
      <point x="57" y="125"/>
      <point x="57" y="269" type="curve"/>
      <point x="57" y="415"/>
      <point x="123" y="553"/>
      <point x="205" y="643" type="curve" smooth="yes"/>
      <point x="221" y="661"/>
      <point x="250" y="663"/>
      <point x="268" y="646" type="curve" smooth="yes"/>
      <point x="286" y="630"/>
      <point x="288" y="601"/>
    </contour>
  </outline>
</glyph>
<glyph name="asterisk" format="1">
  <advance width="423"/>
  <unicode hex="002A"/>
  <outline>
    <contour>
      <point x="255" y="517" type="curve" smooth="yes"/>
      <point x="255" y="291" type="line" smooth="yes"/>
      <point x="255" y="267"/>
      <point x="234" y="246"/>
      <point x="210" y="246" type="curve" smooth="yes"/>
      <point x="186" y="246"/>
      <point x="165" y="267"/>
      <point x="165" y="291" type="curve" smooth="yes"/>
      <point x="165" y="517" type="line" smooth="yes"/>
      <point x="165" y="541"/>
      <point x="186" y="562"/>
      <point x="210" y="562" type="curve" smooth="yes"/>
      <point x="234" y="562"/>
      <point x="255" y="541"/>
    </contour>
    <contour>
      <point x="127" y="503" type="curve" smooth="yes"/>
      <point x="340" y="379" type="line" smooth="yes"/>
      <point x="361" y="367"/>
      <point x="368" y="338"/>
      <point x="356" y="317" type="curve" smooth="yes"/>
      <point x="344" y="296"/>
      <point x="315" y="289"/>
      <point x="294" y="301" type="curve" smooth="yes"/>
      <point x="81" y="425" type="line" smooth="yes"/>
      <point x="60" y="437"/>
      <point x="53" y="466"/>
      <point x="65" y="487" type="curve" smooth="yes"/>
      <point x="77" y="508"/>
      <point x="106" y="515"/>
    </contour>
    <contour>
      <point x="81" y="379" type="curve" smooth="yes"/>
      <point x="294" y="503" type="line" smooth="yes"/>
      <point x="315" y="515"/>
      <point x="344" y="508"/>
      <point x="356" y="487" type="curve" smooth="yes"/>
      <point x="368" y="466"/>
      <point x="361" y="437"/>
      <point x="340" y="425" type="curve" smooth="yes"/>
      <point x="127" y="301" type="line" smooth="yes"/>
      <point x="106" y="289"/>
      <point x="77" y="296"/>
      <point x="65" y="317" type="curve" smooth="yes"/>
      <point x="53" y="338"/>
      <point x="60" y="367"/>
    </contour>
  </outline>
</glyph>
<glyph name="plus" format="1">
  <advance width="491"/>
  <unicode hex="002B"/>
  <outline>
    <contour>
      <point x="92" y="304" type="curve" smooth="yes"/>
      <point x="398" y="304" type="line" smooth="yes"/>
      <point x="422" y="304"/>
      <point x="443" y="283"/>
      <point x="443" y="259" type="curve" smooth="yes"/>
      <point x="443" y="235"/>
      <point x="422" y="214"/>
      <point x="398" y="214" type="curve" smooth="yes"/>
      <point x="92" y="214" type="line" smooth="yes"/>
      <point x="68" y="214"/>
      <point x="47" y="235"/>
      <point x="47" y="259" type="curve" smooth="yes"/>
      <point x="47" y="283"/>
      <point x="68" y="304"/>
    </contour>
    <contour>
      <point x="200" y="110" type="curve" smooth="yes"/>
      <point x="200" y="407" type="line" smooth="yes"/>
      <point x="200" y="431"/>
      <point x="221" y="452"/>
      <point x="245" y="452" type="curve" smooth="yes"/>
      <point x="269" y="452"/>
      <point x="290" y="431"/>
      <point x="290" y="407" type="curve" smooth="yes"/>
      <point x="290" y="110" type="line" smooth="yes"/>
      <point x="290" y="86"/>
      <point x="269" y="65"/>
      <point x="245" y="65" type="curve" smooth="yes"/>
      <point x="221" y="65"/>
      <point x="200" y="86"/>
    </contour>
  </outline>
</glyph>
<glyph name="comma" format="1">
  <advance width="240"/>
  <unicode hex="002C"/>
  <outline>
    <contour>
      <point x="158" y="101" type="curve" smooth="yes"/>
      <point x="163" y="86"/>
      <point x="166" y="63"/>
      <point x="166" y="38" type="curve" smooth="yes"/>
      <point x="166" y="-18"/>
      <point x="147" y="-73"/>
      <point x="115" y="-116" type="curve" smooth="yes"/>
      <point x="101" y="-135"/>
      <point x="72" y="-140"/>
      <point x="52" y="-125" type="curve" smooth="yes"/>
      <point x="33" y="-111"/>
      <point x="28" y="-82"/>
      <point x="43" y="-62" type="curve" smooth="yes"/>
      <point x="63" y="-35"/>
      <point x="76" y="2"/>
      <point x="76" y="38" type="curve"/>
      <point x="76" y="51"/>
      <point x="75" y="64"/>
      <point x="72" y="73" type="curve" smooth="yes"/>
      <point x="65" y="96"/>
      <point x="78" y="122"/>
      <point x="101" y="130" type="curve" smooth="yes"/>
      <point x="124" y="137"/>
      <point x="150" y="124"/>
    </contour>
  </outline>
</glyph>
<glyph name="hyphen" format="1">
  <advance width="430"/>
  <unicode hex="002D"/>
  <outline>
    <contour>
      <point x="114" y="273" type="curve" smooth="yes"/>
      <point x="316" y="273" type="line" smooth="yes"/>
      <point x="340" y="273"/>
      <point x="361" y="252"/>
      <point x="361" y="228" type="curve" smooth="yes"/>
      <point x="361" y="204"/>
      <point x="340" y="183"/>
      <point x="316" y="183" type="curve" smooth="yes"/>
      <point x="114" y="183" type="line" smooth="yes"/>
      <point x="90" y="183"/>
      <point x="69" y="204"/>
      <point x="69" y="228" type="curve" smooth="yes"/>
      <point x="69" y="252"/>
      <point x="90" y="273"/>
    </contour>
  </outline>
</glyph>
<glyph name="period" format="1">
  <advance width="235"/>
  <unicode hex="002E"/>
  <outline>
    <contour>
      <point x="119" y="131" type="curve" smooth="yes"/>
      <point x="155" y="131"/>
      <point x="184" y="103"/>
      <point x="184" y="57" type="curve" smooth="yes"/>
      <point x="184" y="2"/>
      <point x="155" y="-17"/>
      <point x="119" y="-17" type="curve" smooth="yes"/>
      <point x="88" y="-17"/>
      <point x="53" y="4"/>
      <point x="53" y="57" type="curve"/>
      <point x="53" y="101"/>
      <point x="88" y="131"/>
    </contour>
    <contour>
      <point x="119" y="41" type="curve" smooth="yes"/>
      <point x="126" y="41"/>
      <point x="143" y="41"/>
      <point x="143" y="57" type="curve" smooth="yes"/>
      <point x="143" y="76"/>
      <point x="126" y="73"/>
      <point x="119" y="73" type="curve" smooth="yes"/>
      <point x="111" y="73"/>
      <point x="94" y="78"/>
      <point x="94" y="57" type="curve" smooth="yes"/>
      <point x="94" y="40"/>
      <point x="111" y="41"/>
    </contour>
  </outline>
</glyph>
<glyph name="slash" format="1">
  <advance width="325"/>
  <unicode hex="002F"/>
  <outline>
    <contour>
      <point x="323" y="598" type="curve" smooth="yes"/>
      <point x="74" y="-82" type="line" smooth="yes"/>
      <point x="66" y="-105"/>
      <point x="39" y="-118"/>
      <point x="17" y="-109" type="curve" smooth="yes"/>
      <point x="-6" y="-101"/>
      <point x="-19" y="-74"/>
      <point x="-10" y="-52" type="curve" smooth="yes"/>
      <point x="239" y="628" type="line" smooth="yes"/>
      <point x="247" y="651"/>
      <point x="274" y="664"/>
      <point x="296" y="655" type="curve" smooth="yes"/>
      <point x="319" y="647"/>
      <point x="332" y="620"/>
    </contour>
  </outline>
</glyph>
<glyph name="zero" format="1">
  <advance width="576"/>
  <unicode hex="0030"/>
  <outline>
    <contour>
      <point x="289" y="570" type="curve" smooth="yes"/>
      <point x="418" y="570"/>
      <point x="531" y="454"/>
      <point x="531" y="276" type="curve" smooth="yes"/>
      <point x="531" y="108"/>
      <point x="438" y="-19"/>
      <point x="289" y="-19" type="curve" smooth="yes"/>
      <point x="152" y="-19"/>
      <point x="44" y="109"/>
      <point x="44" y="274" type="curve"/>
      <point x="44" y="454"/>
      <point x="150" y="570"/>
    </contour>
    <contour>
      <point x="289" y="480" type="curve" smooth="yes"/>
      <point x="192" y="480"/>
      <point x="134" y="388"/>
      <point x="134" y="274" type="curve" smooth="yes"/>
      <point x="134" y="169"/>
      <point x="194" y="71"/>
      <point x="289" y="71" type="curve" smooth="yes"/>
      <point x="392" y="71"/>
      <point x="441" y="170"/>
      <point x="441" y="276" type="curve" smooth="yes"/>
      <point x="441" y="388"/>
      <point x="378" y="480"/>
    </contour>
  </outline>
</glyph>
<glyph name="one" format="1">
  <advance width="330"/>
  <unicode hex="0031"/>
  <outline>
    <contour>
      <point x="247" y="506" type="curve" smooth="yes"/>
      <point x="247" y="33" type="line" smooth="yes"/>
      <point x="247" y="9"/>
      <point x="226" y="-12"/>
      <point x="202" y="-12" type="curve" smooth="yes"/>
      <point x="178" y="-12"/>
      <point x="157" y="9"/>
      <point x="157" y="33" type="curve" smooth="yes"/>
      <point x="157" y="506" type="line" smooth="yes"/>
      <point x="157" y="530"/>
      <point x="178" y="551"/>
      <point x="202" y="551" type="curve" smooth="yes"/>
      <point x="226" y="551"/>
      <point x="247" y="530"/>
    </contour>
    <contour>
      <point x="222" y="473" type="curve" smooth="yes"/>
      <point x="92" y="407" type="line" smooth="yes"/>
      <point x="71" y="396"/>
      <point x="43" y="405"/>
      <point x="32" y="427" type="curve" smooth="yes"/>
      <point x="21" y="448"/>
      <point x="30" y="476"/>
      <point x="52" y="487" type="curve" smooth="yes"/>
      <point x="182" y="553" type="line" smooth="yes"/>
      <point x="203" y="564"/>
      <point x="231" y="555"/>
      <point x="242" y="533" type="curve" smooth="yes"/>
      <point x="253" y="512"/>
      <point x="244" y="484"/>
    </contour>
  </outline>
</glyph>
<glyph name="two" format="1">
  <advance width="518"/>
  <unicode hex="0032"/>
  <outline>
    <contour>
      <point x="60" y="74" type="curve" smooth="yes"/>
      <point x="226" y="233" type="line" smooth="yes"/>
      <point x="318" y="321"/>
      <point x="355" y="356"/>
      <point x="355" y="410" type="curve" smooth="yes"/>
      <point x="355" y="449"/>
      <point x="319" y="479"/>
      <point x="263" y="479" type="curve" smooth="yes"/>
      <point x="219" y="479"/>
      <point x="175" y="466"/>
      <point x="136" y="442" type="curve" smooth="yes"/>
      <point x="115" y="429"/>
      <point x="86" y="436"/>
      <point x="74" y="456" type="curve" smooth="yes"/>
      <point x="61" y="477"/>
      <point x="68" y="506"/>
      <point x="88" y="518" type="curve" smooth="yes"/>
      <point x="143" y="552"/>
      <point x="203" y="569"/>
      <point x="263" y="569" type="curve" smooth="yes"/>
      <point x="391" y="569"/>
      <point x="445" y="487"/>
      <point x="445" y="410" type="curve" smooth="yes"/>
      <point x="445" y="340"/>
      <point x="414" y="289"/>
      <point x="288" y="169" type="curve" smooth="yes"/>
      <point x="122" y="10" type="line" smooth="yes"/>
      <point x="105" y="-7"/>
      <point x="75" y="-7"/>
      <point x="59" y="11" type="curve" smooth="yes"/>
      <point x="42" y="28"/>
      <point x="42" y="58"/>
    </contour>
    <contour>
      <point x="433" y="-12" type="curve" smooth="yes"/>
      <point x="81" y="-12" type="line" smooth="yes"/>
      <point x="57" y="-12"/>
      <point x="36" y="9"/>
      <point x="36" y="33" type="curve" smooth="yes"/>
      <point x="36" y="57"/>
      <point x="57" y="78"/>
      <point x="81" y="78" type="curve" smooth="yes"/>
      <point x="433" y="78" type="line" smooth="yes"/>
      <point x="457" y="78"/>
      <point x="478" y="57"/>
      <point x="478" y="33" type="curve" smooth="yes"/>
      <point x="478" y="9"/>
      <point x="457" y="-12"/>
    </contour>
  </outline>
</glyph>
<glyph name="three" format="1">
  <advance width="522"/>
  <unicode hex="0033"/>
  <outline>
    <contour>
      <point x="120" y="563" type="curve" smooth="yes"/>
      <point x="417" y="563" type="line" smooth="yes"/>
      <point x="441" y="563"/>
      <point x="462" y="542"/>
      <point x="462" y="518" type="curve" smooth="yes"/>
      <point x="462" y="494"/>
      <point x="441" y="473"/>
      <point x="417" y="473" type="curve" smooth="yes"/>
      <point x="120" y="473" type="line" smooth="yes"/>
      <point x="96" y="473"/>
      <point x="75" y="494"/>
      <point x="75" y="518" type="curve" smooth="yes"/>
      <point x="75" y="542"/>
      <point x="96" y="563"/>
    </contour>
    <contour>
      <point x="121" y="101" type="curve" smooth="yes"/>
      <point x="158" y="85"/>
      <point x="205" y="74"/>
      <point x="260" y="74" type="curve" smooth="yes"/>
      <point x="338" y="74"/>
      <point x="387" y="107"/>
      <point x="387" y="165" type="curve" smooth="yes"/>
      <point x="387" y="220"/>
      <point x="337" y="250"/>
      <point x="271" y="250" type="curve" smooth="yes"/>
      <point x="230" y="250"/>
      <point x="197" y="243"/>
      <point x="178" y="237" type="curve" smooth="yes"/>
      <point x="154" y="230"/>
      <point x="128" y="243"/>
      <point x="121" y="266" type="curve" smooth="yes"/>
      <point x="114" y="290"/>
      <point x="127" y="316"/>
      <point x="150" y="323" type="curve" smooth="yes"/>
      <point x="175" y="331"/>
      <point x="218" y="340"/>
      <point x="271" y="340" type="curve" smooth="yes"/>
      <point x="407" y="340"/>
      <point x="477" y="264"/>
      <point x="477" y="165" type="curve" smooth="yes"/>
      <point x="477" y="67"/>
      <point x="414" y="-16"/>
      <point x="260" y="-16" type="curve" smooth="yes"/>
      <point x="191" y="-16"/>
      <point x="132" y="-1"/>
      <point x="85" y="19" type="curve" smooth="yes"/>
      <point x="63" y="28"/>
      <point x="52" y="55"/>
      <point x="62" y="78" type="curve" smooth="yes"/>
      <point x="71" y="100"/>
      <point x="98" y="111"/>
    </contour>
    <contour>
      <point x="439" y="477" type="curve" smooth="yes"/>
      <point x="200" y="251" type="line" smooth="yes"/>
      <point x="182" y="235"/>
      <point x="153" y="235"/>
      <point x="136" y="253" type="curve" smooth="yes"/>
      <point x="120" y="271"/>
      <point x="120" y="300"/>
      <point x="138" y="317" type="curve" smooth="yes"/>
      <point x="377" y="543" type="line" smooth="yes"/>
      <point x="395" y="559"/>
      <point x="424" y="559"/>
      <point x="441" y="541" type="curve" smooth="yes"/>
      <point x="457" y="523"/>
      <point x="457" y="494"/>
    </contour>
  </outline>
</glyph>
<glyph name="four" format="1">
  <advance width="541"/>
  <unicode hex="0034"/>
  <outline>
    <contour>
      <point x="417" y="528" type="curve" smooth="yes"/>
      <point x="417" y="33" type="line" smooth="yes"/>
      <point x="417" y="9"/>
      <point x="396" y="-12"/>
      <point x="372" y="-12" type="curve" smooth="yes"/>
      <point x="348" y="-12"/>
      <point x="327" y="9"/>
      <point x="327" y="33" type="curve" smooth="yes"/>
      <point x="327" y="528" type="line" smooth="yes"/>
      <point x="327" y="552"/>
      <point x="348" y="573"/>
      <point x="372" y="573" type="curve" smooth="yes"/>
      <point x="396" y="573"/>
      <point x="417" y="552"/>
    </contour>
    <contour>
      <point x="400" y="490" type="curve" smooth="yes"/>
      <point x="101" y="128" type="line" smooth="yes"/>
      <point x="85" y="110"/>
      <point x="56" y="107"/>
      <point x="37" y="122" type="curve" smooth="yes"/>
      <point x="19" y="138"/>
      <point x="16" y="167"/>
      <point x="31" y="186" type="curve" smooth="yes"/>
      <point x="330" y="548" type="line" smooth="yes"/>
      <point x="346" y="566"/>
      <point x="375" y="569"/>
      <point x="394" y="554" type="curve" smooth="yes"/>
      <point x="412" y="538"/>
      <point x="415" y="509"/>
    </contour>
    <contour>
      <point x="76" y="202" type="curve" smooth="yes"/>
      <point x="480" y="202" type="line" smooth="yes"/>
      <point x="504" y="202"/>
      <point x="525" y="181"/>
      <point x="525" y="157" type="curve" smooth="yes"/>
      <point x="525" y="133"/>
      <point x="504" y="112"/>
      <point x="480" y="112" type="curve" smooth="yes"/>
      <point x="76" y="112" type="line" smooth="yes"/>
      <point x="52" y="112"/>
      <point x="31" y="133"/>
      <point x="31" y="157" type="curve" smooth="yes"/>
      <point x="31" y="181"/>
      <point x="52" y="202"/>
    </contour>
  </outline>
</glyph>
<glyph name="five" format="1">
  <advance width="531"/>
  <unicode hex="0035"/>
  <outline>
    <contour>
      <point x="149" y="563" type="curve" smooth="yes"/>
      <point x="406" y="563" type="line" smooth="yes"/>
      <point x="430" y="563"/>
      <point x="451" y="542"/>
      <point x="451" y="518" type="curve" smooth="yes"/>
      <point x="451" y="494"/>
      <point x="430" y="473"/>
      <point x="406" y="473" type="curve" smooth="yes"/>
      <point x="149" y="473" type="line" smooth="yes"/>
      <point x="125" y="473"/>
      <point x="104" y="494"/>
      <point x="104" y="518" type="curve" smooth="yes"/>
      <point x="104" y="542"/>
      <point x="125" y="563"/>
    </contour>
    <contour>
      <point x="120" y="105" type="curve" smooth="yes"/>
      <point x="158" y="87"/>
      <point x="212" y="74"/>
      <point x="271" y="74" type="curve" smooth="yes"/>
      <point x="350" y="74"/>
      <point x="392" y="117"/>
      <point x="392" y="177" type="curve" smooth="yes"/>
      <point x="392" y="233"/>
      <point x="343" y="268"/>
      <point x="275" y="268" type="curve" smooth="yes"/>
      <point x="218" y="268"/>
      <point x="176" y="253"/>
      <point x="148" y="240" type="curve" smooth="yes"/>
      <point x="126" y="230"/>
      <point x="99" y="240"/>
      <point x="88" y="262" type="curve" smooth="yes"/>
      <point x="78" y="284"/>
      <point x="88" y="311"/>
      <point x="110" y="322" type="curve" smooth="yes"/>
      <point x="146" y="339"/>
      <point x="200" y="358"/>
      <point x="275" y="358" type="curve" smooth="yes"/>
      <point x="409" y="358"/>
      <point x="482" y="277"/>
      <point x="482" y="177" type="curve" smooth="yes"/>
      <point x="482" y="72"/>
      <point x="420" y="-16"/>
      <point x="271" y="-16" type="curve" smooth="yes"/>
      <point x="198" y="-16"/>
      <point x="130" y="1"/>
      <point x="82" y="23" type="curve" smooth="yes"/>
      <point x="60" y="33"/>
      <point x="50" y="61"/>
      <point x="60" y="83" type="curve" smooth="yes"/>
      <point x="70" y="105"/>
      <point x="98" y="115"/>
    </contour>
    <contour>
      <point x="193" y="507" type="curve" smooth="yes"/>
      <point x="174" y="282" type="line" smooth="yes"/>
      <point x="172" y="258"/>
      <point x="149" y="239"/>
      <point x="125" y="241" type="curve" smooth="yes"/>
      <point x="101" y="243"/>
      <point x="82" y="266"/>
      <point x="84" y="290" type="curve" smooth="yes"/>
      <point x="103" y="515" type="line" smooth="yes"/>
      <point x="105" y="539"/>
      <point x="128" y="558"/>
      <point x="152" y="556" type="curve" smooth="yes"/>
      <point x="176" y="554"/>
      <point x="195" y="531"/>
    </contour>
  </outline>
</glyph>
<glyph name="six" format="1">
  <advance width="549"/>
  <unicode hex="0036"/>
  <outline>
    <contour>
      <point x="379" y="465" type="curve" smooth="yes"/>
      <point x="356" y="473"/>
      <point x="338" y="477"/>
      <point x="311" y="477" type="curve" smooth="yes"/>
      <point x="202" y="477"/>
      <point x="145" y="388"/>
      <point x="145" y="257" type="curve" smooth="yes"/>
      <point x="145" y="140"/>
      <point x="200" y="74"/>
      <point x="290" y="74" type="curve" smooth="yes"/>
      <point x="374" y="74"/>
      <point x="412" y="127"/>
      <point x="412" y="181" type="curve" smooth="yes"/>
      <point x="412" y="238"/>
      <point x="369" y="274"/>
      <point x="310" y="274" type="curve" smooth="yes"/>
      <point x="238" y="274"/>
      <point x="183" y="222"/>
      <point x="159" y="138" type="curve" smooth="yes"/>
      <point x="153" y="115"/>
      <point x="127" y="100"/>
      <point x="104" y="107" type="curve" smooth="yes"/>
      <point x="81" y="113"/>
      <point x="66" y="139"/>
      <point x="73" y="162" type="curve" smooth="yes"/>
      <point x="109" y="294"/>
      <point x="202" y="364"/>
      <point x="310" y="364" type="curve" smooth="yes"/>
      <point x="425" y="364"/>
      <point x="502" y="288"/>
      <point x="502" y="181" type="curve" smooth="yes"/>
      <point x="502" y="87"/>
      <point x="444" y="-16"/>
      <point x="290" y="-16" type="curve" smooth="yes"/>
      <point x="156" y="-16"/>
      <point x="55" y="68"/>
      <point x="55" y="257" type="curve"/>
      <point x="55" y="458"/>
      <point x="158" y="567"/>
      <point x="311" y="567" type="curve" smooth="yes"/>
      <point x="350" y="567"/>
      <point x="376" y="561"/>
      <point x="407" y="551" type="curve" smooth="yes"/>
      <point x="430" y="543"/>
      <point x="443" y="517"/>
      <point x="436" y="494" type="curve" smooth="yes"/>
      <point x="428" y="471"/>
      <point x="402" y="458"/>
    </contour>
  </outline>
</glyph>
<glyph name="seven" format="1">
  <advance width="476"/>
  <unicode hex="0037"/>
  <outline>
    <contour>
      <point x="456" y="496" type="curve" smooth="yes"/>
      <point x="418" y="425"/>
      <point x="314" y="285"/>
      <point x="285" y="234" type="curve" smooth="yes"/>
      <point x="262" y="192"/>
      <point x="242" y="139"/>
      <point x="242" y="88" type="curve" smooth="yes"/>
      <point x="242" y="33" type="line" smooth="yes"/>
      <point x="242" y="9"/>
      <point x="221" y="-12"/>
      <point x="197" y="-12" type="curve" smooth="yes"/>
      <point x="173" y="-12"/>
      <point x="152" y="9"/>
      <point x="152" y="33" type="curve" smooth="yes"/>
      <point x="152" y="88" type="line" smooth="yes"/>
      <point x="152" y="155"/>
      <point x="176" y="222"/>
      <point x="207" y="278" type="curve" smooth="yes"/>
      <point x="236" y="329"/>
      <point x="338" y="467"/>
      <point x="376" y="538" type="curve" smooth="yes"/>
      <point x="388" y="560"/>
      <point x="416" y="568"/>
      <point x="437" y="557" type="curve" smooth="yes"/>
      <point x="459" y="545"/>
      <point x="467" y="517"/>
    </contour>
    <contour>
      <point x="409" y="473" type="curve" smooth="yes"/>
      <point x="66" y="473" type="line" smooth="yes"/>
      <point x="42" y="473"/>
      <point x="21" y="494"/>
      <point x="21" y="518" type="curve" smooth="yes"/>
      <point x="21" y="542"/>
      <point x="42" y="563"/>
      <point x="66" y="563" type="curve" smooth="yes"/>
      <point x="409" y="563" type="line" smooth="yes"/>
      <point x="433" y="563"/>
      <point x="454" y="542"/>
      <point x="454" y="518" type="curve" smooth="yes"/>
      <point x="454" y="494"/>
      <point x="433" y="473"/>
    </contour>
  </outline>
</glyph>
<glyph name="eight" format="1">
  <advance width="568"/>
  <unicode hex="0038"/>
  <outline>
    <contour>
      <point x="285" y="340" type="curve" smooth="yes"/>
      <point x="433" y="340"/>
      <point x="513" y="261"/>
      <point x="513" y="160" type="curve" smooth="yes"/>
      <point x="513" y="68"/>
      <point x="461" y="-20"/>
      <point x="285" y="-20" type="curve" smooth="yes"/>
      <point x="119" y="-20"/>
      <point x="55" y="68"/>
      <point x="55" y="159" type="curve"/>
      <point x="55" y="261"/>
      <point x="128" y="340"/>
    </contour>
    <contour>
      <point x="285" y="570" type="curve" smooth="yes"/>
      <point x="419" y="570"/>
      <point x="487" y="501"/>
      <point x="487" y="412" type="curve" smooth="yes"/>
      <point x="487" y="328"/>
      <point x="430" y="250"/>
      <point x="285" y="250" type="curve" smooth="yes"/>
      <point x="133" y="250"/>
      <point x="81" y="329"/>
      <point x="81" y="412" type="curve"/>
      <point x="81" y="501"/>
      <point x="144" y="570"/>
    </contour>
    <contour>
      <point x="285" y="250" type="curve" smooth="yes"/>
      <point x="206" y="250"/>
      <point x="145" y="221"/>
      <point x="145" y="159" type="curve" smooth="yes"/>
      <point x="145" y="104"/>
      <point x="203" y="70"/>
      <point x="285" y="70" type="curve" smooth="yes"/>
      <point x="373" y="70"/>
      <point x="423" y="104"/>
      <point x="423" y="160" type="curve" smooth="yes"/>
      <point x="423" y="221"/>
      <point x="359" y="250"/>
    </contour>
    <contour>
      <point x="285" y="480" type="curve" smooth="yes"/>
      <point x="224" y="480"/>
      <point x="171" y="461"/>
      <point x="171" y="412" type="curve" smooth="yes"/>
      <point x="171" y="365"/>
      <point x="217" y="340"/>
      <point x="285" y="340" type="curve" smooth="yes"/>
      <point x="350" y="340"/>
      <point x="397" y="366"/>
      <point x="397" y="412" type="curve" smooth="yes"/>
      <point x="397" y="461"/>
      <point x="343" y="480"/>
    </contour>
  </outline>
</glyph>
<glyph name="nine" format="1">
  <advance width="546"/>
  <unicode hex="0039"/>
  <outline>
    <contour>
      <point x="168" y="86" type="curve" smooth="yes"/>
      <point x="190" y="80"/>
      <point x="210" y="75"/>
      <point x="238" y="75" type="curve" smooth="yes"/>
      <point x="352" y="75"/>
      <point x="401" y="154"/>
      <point x="401" y="278" type="curve" smooth="yes"/>
      <point x="401" y="399"/>
      <point x="349" y="477"/>
      <point x="256" y="477" type="curve" smooth="yes"/>
      <point x="178" y="477"/>
      <point x="137" y="426"/>
      <point x="137" y="372" type="curve" smooth="yes"/>
      <point x="137" y="306"/>
      <point x="179" y="271"/>
      <point x="247" y="271" type="curve" smooth="yes"/>
      <point x="322" y="271"/>
      <point x="368" y="318"/>
      <point x="405" y="377" type="curve" smooth="yes"/>
      <point x="417" y="397"/>
      <point x="446" y="404"/>
      <point x="467" y="391" type="curve" smooth="yes"/>
      <point x="487" y="379"/>
      <point x="494" y="350"/>
      <point x="481" y="329" type="curve" smooth="yes"/>
      <point x="428" y="242"/>
      <point x="356" y="181"/>
      <point x="247" y="181" type="curve" smooth="yes"/>
      <point x="117" y="181"/>
      <point x="47" y="252"/>
      <point x="47" y="372" type="curve"/>
      <point x="47" y="466"/>
      <point x="112" y="567"/>
      <point x="256" y="567" type="curve" smooth="yes"/>
      <point x="391" y="567"/>
      <point x="491" y="473"/>
      <point x="491" y="278" type="curve" smooth="yes"/>
      <point x="491" y="86"/>
      <point x="402" y="-15"/>
      <point x="238" y="-15" type="curve" smooth="yes"/>
      <point x="200" y="-15"/>
      <point x="174" y="-8"/>
      <point x="144" y="0" type="curve" smooth="yes"/>
      <point x="121" y="6"/>
      <point x="106" y="31"/>
      <point x="113" y="55" type="curve" smooth="yes"/>
      <point x="119" y="78"/>
      <point x="144" y="93"/>
    </contour>
  </outline>
</glyph>
<glyph name="less" format="1">
  <advance width="491"/>
  <unicode hex="003C"/>
  <outline>
    <contour>
      <point x="80" y="304" type="curve" smooth="yes"/>
      <point x="362" y="432" type="line" smooth="yes"/>
      <point x="385" y="442"/>
      <point x="412" y="432"/>
      <point x="422" y="410" type="curve" smooth="yes"/>
      <point x="432" y="387"/>
      <point x="422" y="360"/>
      <point x="400" y="350" type="curve" smooth="yes"/>
      <point x="118" y="222" type="line" smooth="yes"/>
      <point x="95" y="212"/>
      <point x="68" y="222"/>
      <point x="58" y="244" type="curve" smooth="yes"/>
      <point x="48" y="267"/>
      <point x="58" y="294"/>
    </contour>
    <contour>
      <point x="367" y="86" type="curve" smooth="yes"/>
      <point x="75" y="219" type="line" smooth="yes"/>
      <point x="53" y="229"/>
      <point x="43" y="257"/>
      <point x="53" y="279" type="curve" smooth="yes"/>
      <point x="63" y="301"/>
      <point x="91" y="311"/>
      <point x="113" y="301" type="curve" smooth="yes"/>
      <point x="405" y="168" type="line" smooth="yes"/>
      <point x="427" y="158"/>
      <point x="437" y="130"/>
      <point x="427" y="108" type="curve" smooth="yes"/>
      <point x="417" y="86"/>
      <point x="389" y="76"/>
    </contour>
  </outline>
</glyph>
<glyph name="question" format="1">
  <advance width="381"/>
  <unicode hex="003F"/>
  <outline>
    <contour>
      <point x="50" y="553" type="curve" smooth="yes"/>
      <point x="92" y="579"/>
      <point x="132" y="595"/>
      <point x="199" y="595" type="curve" smooth="yes"/>
      <point x="309" y="595"/>
      <point x="367" y="523"/>
      <point x="367" y="449" type="curve" smooth="yes"/>
      <point x="367" y="374"/>
      <point x="332" y="331"/>
      <point x="246" y="283" type="curve" smooth="yes"/>
      <point x="217" y="266"/>
      <point x="210" y="250"/>
      <point x="208" y="225" type="curve" smooth="yes"/>
      <point x="206" y="200"/>
      <point x="184" y="181"/>
      <point x="160" y="183" type="curve" smooth="yes"/>
      <point x="135" y="185"/>
      <point x="116" y="207"/>
      <point x="118" y="231" type="curve" smooth="yes"/>
      <point x="122" y="288"/>
      <point x="137" y="324"/>
      <point x="202" y="361" type="curve" smooth="yes"/>
      <point x="248" y="387"/>
      <point x="277" y="406"/>
      <point x="277" y="449" type="curve" smooth="yes"/>
      <point x="277" y="483"/>
      <point x="241" y="505"/>
      <point x="199" y="505" type="curve" smooth="yes"/>
      <point x="154" y="505"/>
      <point x="126" y="495"/>
      <point x="98" y="477" type="curve" smooth="yes"/>
      <point x="77" y="464"/>
      <point x="49" y="470"/>
      <point x="36" y="491" type="curve" smooth="yes"/>
      <point x="23" y="512"/>
      <point x="29" y="540"/>
    </contour>
    <component base="period" xOffset="50"/>
    <component base="period" xOffset="50"/>
  </outline>
</glyph>
<glyph name="at" format="1">
  <advance width="675"/>
  <unicode hex="0040"/>
  <outline>
    <contour>
      <point x="472" y="390" type="curve" smooth="yes"/>
      <point x="472" y="260" type="line" smooth="yes"/>
      <point x="472" y="232"/>
      <point x="485" y="208"/>
      <point x="509" y="208" type="curve" smooth="yes"/>
      <point x="541" y="208"/>
      <point x="551" y="247"/>
      <point x="551" y="285" type="curve" smooth="yes"/>
      <point x="551" y="389"/>
      <point x="472" y="483"/>
      <point x="341" y="483" type="curve" smooth="yes"/>
      <point x="217" y="483"/>
      <point x="126" y="387"/>
      <point x="126" y="271" type="curve"/>
      <point x="126" y="155"/>
      <point x="216" y="68"/>
      <point x="344" y="68" type="curve" smooth="yes"/>
      <point x="399" y="68"/>
      <point x="445" y="80"/>
      <point x="479" y="95" type="curve" smooth="yes"/>
      <point x="501" y="105"/>
      <point x="529" y="94"/>
      <point x="538" y="72" type="curve" smooth="yes"/>
      <point x="548" y="50"/>
      <point x="537" y="22"/>
      <point x="515" y="13" type="curve" smooth="yes"/>
      <point x="471" y="-6"/>
      <point x="413" y="-22"/>
      <point x="344" y="-22" type="curve" smooth="yes"/>
      <point x="160" y="-22"/>
      <point x="36" y="107"/>
      <point x="36" y="271" type="curve"/>
      <point x="36" y="435"/>
      <point x="165" y="573"/>
      <point x="341" y="573" type="curve" smooth="yes"/>
      <point x="532" y="573"/>
      <point x="641" y="433"/>
      <point x="641" y="285" type="curve" smooth="yes"/>
      <point x="641" y="167"/>
      <point x="577" y="118"/>
      <point x="509" y="118" type="curve" smooth="yes"/>
      <point x="443" y="118"/>
      <point x="382" y="166"/>
      <point x="382" y="260" type="curve" smooth="yes"/>
      <point x="382" y="390" type="line" smooth="yes"/>
      <point x="382" y="414"/>
      <point x="403" y="435"/>
      <point x="427" y="435" type="curve" smooth="yes"/>
      <point x="451" y="435"/>
      <point x="472" y="414"/>
    </contour>
    <contour>
      <point x="402" y="325" type="curve" smooth="yes"/>
      <point x="383" y="338"/>
      <point x="363" y="345"/>
      <point x="336" y="345" type="curve" smooth="yes"/>
      <point x="298" y="345"/>
      <point x="270" y="313"/>
      <point x="270" y="267" type="curve" smooth="yes"/>
      <point x="270" y="233"/>
      <point x="291" y="209"/>
      <point x="318" y="209" type="curve" smooth="yes"/>
      <point x="345" y="209"/>
      <point x="369" y="227"/>
      <point x="387" y="258" type="curve" smooth="yes"/>
      <point x="399" y="279"/>
      <point x="428" y="286"/>
      <point x="449" y="274" type="curve" smooth="yes"/>
      <point x="470" y="262"/>
      <point x="477" y="233"/>
      <point x="465" y="212" type="curve" smooth="yes"/>
      <point x="427" y="147"/>
      <point x="371" y="119"/>
      <point x="318" y="119" type="curve" smooth="yes"/>
      <point x="249" y="119"/>
      <point x="180" y="171"/>
      <point x="180" y="267" type="curve" smooth="yes"/>
      <point x="180" y="375"/>
      <point x="254" y="435"/>
      <point x="336" y="435" type="curve" smooth="yes"/>
      <point x="383" y="435"/>
      <point x="419" y="422"/>
      <point x="452" y="401" type="curve" smooth="yes"/>
      <point x="472" y="387"/>
      <point x="478" y="359"/>
      <point x="465" y="338" type="curve" smooth="yes"/>
      <point x="451" y="318"/>
      <point x="423" y="312"/>
    </contour>
  </outline>
</glyph>
<glyph name="A" format="1">
  <advance width="568"/>
  <unicode hex="0041"/>
  <outline>
    <contour>
      <point x="316" y="509" type="curve" smooth="yes"/>
      <point x="249" y="357"/>
      <point x="154" y="143"/>
      <point x="109" y="18" type="curve" smooth="yes"/>
      <point x="101" y="-5"/>
      <point x="75" y="-18"/>
      <point x="52" y="-9" type="curve" smooth="yes"/>
      <point x="29" y="-1"/>
      <point x="16" y="25"/>
      <point x="25" y="48" type="curve" smooth="yes"/>
      <point x="70" y="175"/>
      <point x="165" y="391"/>
      <point x="234" y="545" type="curve" smooth="yes"/>
      <point x="244" y="567"/>
      <point x="271" y="578"/>
      <point x="293" y="568" type="curve" smooth="yes"/>
      <point x="315" y="558"/>
      <point x="326" y="531"/>
    </contour>
    <contour>
      <point x="322" y="546" type="curve" smooth="yes"/>
      <point x="394" y="391"/>
      <point x="493" y="173"/>
      <point x="541" y="49" type="curve" smooth="yes"/>
      <point x="550" y="27"/>
      <point x="538" y="0"/>
      <point x="515" y="-9" type="curve" smooth="yes"/>
      <point x="493" y="-18"/>
      <point x="466" y="-6"/>
      <point x="457" y="17" type="curve" smooth="yes"/>
      <point x="409" y="139"/>
      <point x="312" y="355"/>
      <point x="240" y="508" type="curve" smooth="yes"/>
      <point x="230" y="530"/>
      <point x="240" y="557"/>
      <point x="262" y="568" type="curve" smooth="yes"/>
      <point x="284" y="578"/>
      <point x="311" y="568"/>
    </contour>
    <contour>
      <point x="136" y="223" type="curve" smooth="yes"/>
      <point x="427" y="223" type="line" smooth="yes"/>
      <point x="451" y="223"/>
      <point x="472" y="202"/>
      <point x="472" y="178" type="curve" smooth="yes"/>
      <point x="472" y="154"/>
      <point x="451" y="133"/>
      <point x="427" y="133" type="curve" smooth="yes"/>
      <point x="136" y="133" type="line" smooth="yes"/>
      <point x="112" y="133"/>
      <point x="91" y="154"/>
      <point x="91" y="178" type="curve" smooth="yes"/>
      <point x="91" y="202"/>
      <point x="112" y="223"/>
    </contour>
  </outline>
</glyph>
<glyph name="B" format="1">
  <advance width="521"/>
  <unicode hex="0042"/>
  <outline>
    <contour>
      <point x="137" y="338" type="curve" smooth="yes"/>
      <point x="276" y="338" type="line" smooth="yes"/>
      <point x="342" y="338"/>
      <point x="400" y="314"/>
      <point x="435" y="279" type="curve" smooth="yes"/>
      <point x="469" y="245"/>
      <point x="485" y="205"/>
      <point x="485" y="160" type="curve" smooth="yes"/>
      <point x="485" y="118"/>
      <point x="470" y="77"/>
      <point x="438" y="45" type="curve" smooth="yes"/>
      <point x="406" y="13"/>
      <point x="357" y="-12"/>
      <point x="273" y="-12" type="curve" smooth="yes"/>
      <point x="128" y="-12" type="line" smooth="yes"/>
      <point x="103" y="-12"/>
      <point x="83" y="8"/>
      <point x="83" y="33" type="curve" smooth="yes"/>
      <point x="83" y="518" type="line" smooth="yes"/>
      <point x="83" y="543"/>
      <point x="103" y="563"/>
      <point x="128" y="563" type="curve" smooth="yes"/>
      <point x="257" y="563" type="line" smooth="yes"/>
      <point x="323" y="563"/>
      <point x="366" y="540"/>
      <point x="394" y="513" type="curve" smooth="yes"/>
      <point x="420" y="487"/>
      <point x="437" y="444"/>
      <point x="437" y="407" type="curve" smooth="yes"/>
      <point x="437" y="366"/>
      <point x="419" y="326"/>
      <point x="394" y="300" type="curve" smooth="yes"/>
      <point x="370" y="277"/>
      <point x="325" y="252"/>
      <point x="271" y="248" type="curve" smooth="yes"/>
      <point x="247" y="246"/>
      <point x="225" y="265"/>
      <point x="223" y="290" type="curve" smooth="yes"/>
      <point x="221" y="314"/>
      <point x="240" y="336"/>
      <point x="265" y="338" type="curve" smooth="yes"/>
      <point x="293" y="340"/>
      <point x="318" y="351"/>
      <point x="330" y="364" type="curve" smooth="yes"/>
      <point x="341" y="374"/>
      <point x="347" y="390"/>
      <point x="347" y="407" type="curve" smooth="yes"/>
      <point x="347" y="422"/>
      <point x="340" y="439"/>
      <point x="330" y="449" type="curve" smooth="yes"/>
      <point x="316" y="464"/>
      <point x="291" y="473"/>
      <point x="257" y="473" type="curve" smooth="yes"/>
      <point x="128" y="473" type="line"/>
      <point x="173" y="518" type="line"/>
      <point x="173" y="33" type="line"/>
      <point x="128" y="78" type="line"/>
      <point x="273" y="78" type="line" smooth="yes"/>
      <point x="323" y="78"/>
      <point x="354" y="89"/>
      <point x="374" y="109" type="curve" smooth="yes"/>
      <point x="388" y="123"/>
      <point x="395" y="142"/>
      <point x="395" y="160" type="curve" smooth="yes"/>
      <point x="395" y="181"/>
      <point x="387" y="199"/>
      <point x="371" y="215" type="curve" smooth="yes"/>
      <point x="350" y="236"/>
      <point x="314" y="248"/>
      <point x="276" y="248" type="curve" smooth="yes"/>
      <point x="137" y="248" type="line" smooth="yes"/>
      <point x="113" y="248"/>
      <point x="92" y="269"/>
      <point x="92" y="293" type="curve" smooth="yes"/>
      <point x="92" y="317"/>
      <point x="113" y="338"/>
    </contour>
  </outline>
</glyph>
<glyph name="C" format="1">
  <advance width="563"/>
  <unicode hex="0043"/>
  <outline>
    <contour>
      <point x="448" y="458" type="curve" smooth="yes"/>
      <point x="421" y="474"/>
      <point x="378" y="482"/>
      <point x="334" y="482" type="curve" smooth="yes"/>
      <point x="224" y="482"/>
      <point x="131" y="397"/>
      <point x="131" y="272" type="curve" smooth="yes"/>
      <point x="131" y="157"/>
      <point x="208" y="69"/>
      <point x="340" y="69" type="curve" smooth="yes"/>
      <point x="384" y="69"/>
      <point x="423" y="78"/>
      <point x="454" y="94" type="curve" smooth="yes"/>
      <point x="476" y="105"/>
      <point x="504" y="96"/>
      <point x="515" y="75" type="curve" smooth="yes"/>
      <point x="526" y="53"/>
      <point x="517" y="25"/>
      <point x="496" y="14" type="curve" smooth="yes"/>
      <point x="453" y="-8"/>
      <point x="400" y="-21"/>
      <point x="340" y="-21" type="curve" smooth="yes"/>
      <point x="150" y="-21"/>
      <point x="41" y="107"/>
      <point x="41" y="272" type="curve"/>
      <point x="41" y="453"/>
      <point x="178" y="572"/>
      <point x="334" y="572" type="curve" smooth="yes"/>
      <point x="396" y="572"/>
      <point x="453" y="558"/>
      <point x="492" y="538" type="curve" smooth="yes"/>
      <point x="513" y="526"/>
      <point x="521" y="498"/>
      <point x="510" y="476" type="curve" smooth="yes"/>
      <point x="498" y="455"/>
      <point x="470" y="447"/>
    </contour>
  </outline>
</glyph>
<glyph name="D" format="1">
  <advance width="617"/>
  <unicode hex="0044"/>
  <outline>
    <contour>
      <point x="304" y="-12" type="curve" smooth="yes"/>
      <point x="128" y="-12" type="line" smooth="yes"/>
      <point x="103" y="-12"/>
      <point x="83" y="8"/>
      <point x="83" y="33" type="curve"/>
      <point x="83" y="518" type="line"/>
      <point x="83" y="543"/>
      <point x="103" y="563"/>
      <point x="128" y="563" type="curve" smooth="yes"/>
      <point x="304" y="563" type="line" smooth="yes"/>
      <point x="446" y="563"/>
      <point x="576" y="446"/>
      <point x="576" y="276" type="curve" smooth="yes"/>
      <point x="576" y="114"/>
      <point x="468" y="-12"/>
    </contour>
    <contour>
      <point x="304" y="78" type="line" smooth="yes"/>
      <point x="416" y="78"/>
      <point x="486" y="168"/>
      <point x="486" y="276" type="curve" smooth="yes"/>
      <point x="486" y="390"/>
      <point x="402" y="473"/>
      <point x="304" y="473" type="curve" smooth="yes"/>
      <point x="128" y="473" type="line"/>
      <point x="173" y="518" type="line"/>
      <point x="173" y="33" type="line"/>
      <point x="128" y="78" type="line"/>
    </contour>
  </outline>
</glyph>
<glyph name="E" format="1">
  <advance width="495"/>
  <unicode hex="0045"/>
  <outline>
    <contour>
      <point x="173" y="518" type="curve" smooth="yes"/>
      <point x="173" y="33" type="line" smooth="yes"/>
      <point x="173" y="9"/>
      <point x="152" y="-12"/>
      <point x="128" y="-12" type="curve" smooth="yes"/>
      <point x="104" y="-12"/>
      <point x="83" y="9"/>
      <point x="83" y="33" type="curve" smooth="yes"/>
      <point x="83" y="518" type="line" smooth="yes"/>
      <point x="83" y="542"/>
      <point x="104" y="563"/>
      <point x="128" y="563" type="curve" smooth="yes"/>
      <point x="152" y="563"/>
      <point x="173" y="542"/>
    </contour>
    <contour>
      <point x="136" y="78" type="curve" smooth="yes"/>
      <point x="407" y="78" type="line" smooth="yes"/>
      <point x="431" y="78"/>
      <point x="452" y="57"/>
      <point x="452" y="33" type="curve" smooth="yes"/>
      <point x="452" y="9"/>
      <point x="431" y="-12"/>
      <point x="407" y="-12" type="curve" smooth="yes"/>
      <point x="136" y="-12" type="line" smooth="yes"/>
      <point x="112" y="-12"/>
      <point x="91" y="9"/>
      <point x="91" y="33" type="curve" smooth="yes"/>
      <point x="91" y="57"/>
      <point x="112" y="78"/>
    </contour>
    <contour>
      <point x="136" y="563" type="curve" smooth="yes"/>
      <point x="405" y="563" type="line" smooth="yes"/>
      <point x="429" y="563"/>
      <point x="450" y="542"/>
      <point x="450" y="518" type="curve" smooth="yes"/>
      <point x="450" y="494"/>
      <point x="429" y="473"/>
      <point x="405" y="473" type="curve" smooth="yes"/>
      <point x="136" y="473" type="line" smooth="yes"/>
      <point x="112" y="473"/>
      <point x="91" y="494"/>
      <point x="91" y="518" type="curve" smooth="yes"/>
      <point x="91" y="542"/>
      <point x="112" y="563"/>
    </contour>
    <contour>
      <point x="136" y="339" type="curve" smooth="yes"/>
      <point x="362" y="339" type="line" smooth="yes"/>
      <point x="386" y="339"/>
      <point x="407" y="318"/>
      <point x="407" y="294" type="curve" smooth="yes"/>
      <point x="407" y="270"/>
      <point x="386" y="249"/>
      <point x="362" y="249" type="curve" smooth="yes"/>
      <point x="136" y="249" type="line" smooth="yes"/>
      <point x="112" y="249"/>
      <point x="91" y="270"/>
      <point x="91" y="294" type="curve" smooth="yes"/>
      <point x="91" y="318"/>
      <point x="112" y="339"/>
    </contour>
  </outline>
</glyph>
<glyph name="F" format="1">
  <advance width="485"/>
  <unicode hex="0046"/>
  <outline>
    <contour>
      <point x="173" y="518" type="curve" smooth="yes"/>
      <point x="173" y="33" type="line" smooth="yes"/>
      <point x="173" y="9"/>
      <point x="152" y="-12"/>
      <point x="128" y="-12" type="curve" smooth="yes"/>
      <point x="104" y="-12"/>
      <point x="83" y="9"/>
      <point x="83" y="33" type="curve" smooth="yes"/>
      <point x="83" y="518" type="line" smooth="yes"/>
      <point x="83" y="542"/>
      <point x="104" y="563"/>
      <point x="128" y="563" type="curve" smooth="yes"/>
      <point x="152" y="563"/>
      <point x="173" y="542"/>
    </contour>
    <contour>
      <point x="136" y="563" type="curve" smooth="yes"/>
      <point x="413" y="563" type="line" smooth="yes"/>
      <point x="437" y="563"/>
      <point x="458" y="542"/>
      <point x="458" y="518" type="curve" smooth="yes"/>
      <point x="458" y="494"/>
      <point x="437" y="473"/>
      <point x="413" y="473" type="curve" smooth="yes"/>
      <point x="136" y="473" type="line" smooth="yes"/>
      <point x="112" y="473"/>
      <point x="91" y="494"/>
      <point x="91" y="518" type="curve" smooth="yes"/>
      <point x="91" y="542"/>
      <point x="112" y="563"/>
    </contour>
    <contour>
      <point x="136" y="320" type="curve" smooth="yes"/>
      <point x="362" y="320" type="line" smooth="yes"/>
      <point x="386" y="320"/>
      <point x="407" y="299"/>
      <point x="407" y="275" type="curve" smooth="yes"/>
      <point x="407" y="251"/>
      <point x="386" y="230"/>
      <point x="362" y="230" type="curve" smooth="yes"/>
      <point x="136" y="230" type="line" smooth="yes"/>
      <point x="112" y="230"/>
      <point x="91" y="251"/>
      <point x="91" y="275" type="curve" smooth="yes"/>
      <point x="91" y="299"/>
      <point x="112" y="320"/>
    </contour>
  </outline>
</glyph>
<glyph name="G" format="1">
  <advance width="618"/>
  <unicode hex="0047"/>
  <outline>
    <contour>
      <point x="465" y="458" type="curve" smooth="yes"/>
      <point x="428" y="472"/>
      <point x="385" y="482"/>
      <point x="335" y="482" type="curve" smooth="yes"/>
      <point x="216" y="482"/>
      <point x="131" y="397"/>
      <point x="131" y="272" type="curve" smooth="yes"/>
      <point x="131" y="159"/>
      <point x="204" y="69"/>
      <point x="332" y="69" type="curve" smooth="yes"/>
      <point x="399" y="69"/>
      <point x="447" y="86"/>
      <point x="487" y="111" type="curve" smooth="yes"/>
      <point x="508" y="124"/>
      <point x="536" y="118"/>
      <point x="549" y="97" type="curve" smooth="yes"/>
      <point x="562" y="76"/>
      <point x="556" y="48"/>
      <point x="535" y="35" type="curve" smooth="yes"/>
      <point x="483" y="2"/>
      <point x="419" y="-21"/>
      <point x="332" y="-21" type="curve" smooth="yes"/>
      <point x="148" y="-21"/>
      <point x="41" y="109"/>
      <point x="41" y="272" type="curve"/>
      <point x="41" y="453"/>
      <point x="166" y="572"/>
      <point x="335" y="572" type="curve" smooth="yes"/>
      <point x="397" y="572"/>
      <point x="450" y="560"/>
      <point x="497" y="542" type="curve" smooth="yes"/>
      <point x="520" y="533"/>
      <point x="532" y="507"/>
      <point x="523" y="484" type="curve" smooth="yes"/>
      <point x="514" y="461"/>
      <point x="488" y="449"/>
    </contour>
    <contour>
      <point x="467" y="83" type="curve" smooth="yes"/>
      <point x="467" y="257" type="line" smooth="yes"/>
      <point x="467" y="281"/>
      <point x="488" y="302"/>
      <point x="512" y="302" type="curve" smooth="yes"/>
      <point x="536" y="302"/>
      <point x="557" y="281"/>
      <point x="557" y="257" type="curve" smooth="yes"/>
      <point x="557" y="83" type="line" smooth="yes"/>
      <point x="557" y="59"/>
      <point x="536" y="38"/>
      <point x="512" y="38" type="curve" smooth="yes"/>
      <point x="488" y="38"/>
      <point x="467" y="59"/>
    </contour>
    <contour>
      <point x="501" y="212" type="curve" smooth="yes"/>
      <point x="348" y="212" type="line" smooth="yes"/>
      <point x="324" y="212"/>
      <point x="303" y="233"/>
      <point x="303" y="257" type="curve" smooth="yes"/>
      <point x="303" y="281"/>
      <point x="324" y="302"/>
      <point x="348" y="302" type="curve" smooth="yes"/>
      <point x="501" y="302" type="line" smooth="yes"/>
      <point x="525" y="302"/>
      <point x="546" y="281"/>
      <point x="546" y="257" type="curve" smooth="yes"/>
      <point x="546" y="233"/>
      <point x="525" y="212"/>
    </contour>
  </outline>
</glyph>
<glyph name="H" format="1">
  <advance width="641"/>
  <unicode hex="0048"/>
  <outline>
    <contour>
      <point x="173" y="518" type="curve" smooth="yes"/>
      <point x="173" y="33" type="line" smooth="yes"/>
      <point x="173" y="9"/>
      <point x="152" y="-12"/>
      <point x="128" y="-12" type="curve" smooth="yes"/>
      <point x="104" y="-12"/>
      <point x="83" y="9"/>
      <point x="83" y="33" type="curve" smooth="yes"/>
      <point x="83" y="518" type="line" smooth="yes"/>
      <point x="83" y="542"/>
      <point x="104" y="563"/>
      <point x="128" y="563" type="curve" smooth="yes"/>
      <point x="152" y="563"/>
      <point x="173" y="542"/>
    </contour>
    <contour>
      <point x="558" y="518" type="curve" smooth="yes"/>
      <point x="558" y="33" type="line" smooth="yes"/>
      <point x="558" y="9"/>
      <point x="537" y="-12"/>
      <point x="513" y="-12" type="curve" smooth="yes"/>
      <point x="489" y="-12"/>
      <point x="468" y="9"/>
      <point x="468" y="33" type="curve" smooth="yes"/>
      <point x="468" y="518" type="line" smooth="yes"/>
      <point x="468" y="542"/>
      <point x="489" y="563"/>
      <point x="513" y="563" type="curve" smooth="yes"/>
      <point x="537" y="563"/>
      <point x="558" y="542"/>
    </contour>
    <contour>
      <point x="132" y="338" type="curve" smooth="yes"/>
      <point x="512" y="338" type="line" smooth="yes"/>
      <point x="536" y="338"/>
      <point x="557" y="317"/>
      <point x="557" y="293" type="curve" smooth="yes"/>
      <point x="557" y="269"/>
      <point x="536" y="248"/>
      <point x="512" y="248" type="curve" smooth="yes"/>
      <point x="132" y="248" type="line" smooth="yes"/>
      <point x="108" y="248"/>
      <point x="87" y="269"/>
      <point x="87" y="293" type="curve" smooth="yes"/>
      <point x="87" y="317"/>
      <point x="108" y="338"/>
    </contour>
  </outline>
</glyph>
<glyph name="I" format="1">
  <advance width="266"/>
  <unicode hex="0049"/>
  <outline>
    <contour>
      <point x="178" y="518" type="curve" smooth="yes"/>
      <point x="178" y="33" type="line" smooth="yes"/>
      <point x="178" y="9"/>
      <point x="157" y="-12"/>
      <point x="133" y="-12" type="curve" smooth="yes"/>
      <point x="109" y="-12"/>
      <point x="88" y="9"/>
      <point x="88" y="33" type="curve" smooth="yes"/>
      <point x="88" y="518" type="line" smooth="yes"/>
      <point x="88" y="542"/>
      <point x="109" y="563"/>
      <point x="133" y="563" type="curve" smooth="yes"/>
      <point x="157" y="563"/>
      <point x="178" y="542"/>
    </contour>
  </outline>
</glyph>
<glyph name="J" format="1">
  <advance width="399"/>
  <unicode hex="004A"/>
  <outline>
    <contour>
      <point x="81" y="87" type="curve" smooth="yes"/>
      <point x="109" y="80"/>
      <point x="135" y="73"/>
      <point x="161" y="73" type="curve" smooth="yes"/>
      <point x="219" y="73"/>
      <point x="238" y="112"/>
      <point x="238" y="175" type="curve" smooth="yes"/>
      <point x="238" y="518" type="line" smooth="yes"/>
      <point x="238" y="542"/>
      <point x="259" y="563"/>
      <point x="283" y="563" type="curve" smooth="yes"/>
      <point x="307" y="563"/>
      <point x="328" y="542"/>
      <point x="328" y="518" type="curve" smooth="yes"/>
      <point x="328" y="175" type="line" smooth="yes"/>
      <point x="328" y="38"/>
      <point x="269" y="-17"/>
      <point x="161" y="-17" type="curve" smooth="yes"/>
      <point x="127" y="-17"/>
      <point x="95" y="-10"/>
      <point x="59" y="-1" type="curve" smooth="yes"/>
      <point x="36" y="5"/>
      <point x="20" y="30"/>
      <point x="26" y="54" type="curve" smooth="yes"/>
      <point x="32" y="77"/>
      <point x="57" y="93"/>
    </contour>
  </outline>
</glyph>
<glyph name="K" format="1">
  <advance width="558"/>
  <unicode hex="004B"/>
  <outline>
    <contour>
      <point x="173" y="518" type="curve" smooth="yes"/>
      <point x="173" y="33" type="line" smooth="yes"/>
      <point x="173" y="9"/>
      <point x="152" y="-12"/>
      <point x="128" y="-12" type="curve" smooth="yes"/>
      <point x="104" y="-12"/>
      <point x="83" y="9"/>
      <point x="83" y="33" type="curve" smooth="yes"/>
      <point x="83" y="518" type="line" smooth="yes"/>
      <point x="83" y="542"/>
      <point x="104" y="563"/>
      <point x="128" y="563" type="curve" smooth="yes"/>
      <point x="152" y="563"/>
      <point x="173" y="542"/>
    </contour>
    <contour>
      <point x="287" y="340" type="curve" smooth="yes"/>
      <point x="344" y="271"/>
      <point x="463" y="125"/>
      <point x="518" y="63" type="curve" smooth="yes"/>
      <point x="534" y="44"/>
      <point x="532" y="15"/>
      <point x="514" y="-1" type="curve" smooth="yes"/>
      <point x="495" y="-17"/>
      <point x="466" y="-15"/>
      <point x="450" y="3" type="curve" smooth="yes"/>
      <point x="395" y="67"/>
      <point x="274" y="213"/>
      <point x="217" y="282" type="curve" smooth="yes"/>
      <point x="202" y="301"/>
      <point x="205" y="330"/>
      <point x="223" y="346" type="curve" smooth="yes"/>
      <point x="242" y="361"/>
      <point x="271" y="358"/>
    </contour>
    <contour>
      <point x="98" y="234" type="curve" smooth="yes"/>
      <point x="145" y="278"/>
      <point x="332" y="445"/>
      <point x="431" y="549" type="curve" smooth="yes"/>
      <point x="448" y="567"/>
      <point x="477" y="567"/>
      <point x="495" y="551" type="curve" smooth="yes"/>
      <point x="513" y="534"/>
      <point x="513" y="505"/>
      <point x="497" y="487" type="curve" smooth="yes"/>
      <point x="396" y="381"/>
      <point x="207" y="212"/>
      <point x="158" y="168" type="curve" smooth="yes"/>
      <point x="140" y="151"/>
      <point x="111" y="153"/>
      <point x="95" y="171" type="curve" smooth="yes"/>
      <point x="78" y="189"/>
      <point x="80" y="218"/>
    </contour>
  </outline>
</glyph>
<glyph name="L" format="1">
  <advance width="479"/>
  <unicode hex="004C"/>
  <outline>
    <contour>
      <point x="173" y="518" type="curve" smooth="yes"/>
      <point x="173" y="33" type="line" smooth="yes"/>
      <point x="173" y="9"/>
      <point x="152" y="-12"/>
      <point x="128" y="-12" type="curve" smooth="yes"/>
      <point x="104" y="-12"/>
      <point x="83" y="9"/>
      <point x="83" y="33" type="curve" smooth="yes"/>
      <point x="83" y="518" type="line" smooth="yes"/>
      <point x="83" y="542"/>
      <point x="104" y="563"/>
      <point x="128" y="563" type="curve" smooth="yes"/>
      <point x="152" y="563"/>
      <point x="173" y="542"/>
    </contour>
    <contour>
      <point x="136" y="78" type="curve" smooth="yes"/>
      <point x="409" y="78" type="line" smooth="yes"/>
      <point x="433" y="78"/>
      <point x="454" y="57"/>
      <point x="454" y="33" type="curve" smooth="yes"/>
      <point x="454" y="9"/>
      <point x="433" y="-12"/>
      <point x="409" y="-12" type="curve" smooth="yes"/>
      <point x="136" y="-12" type="line" smooth="yes"/>
      <point x="112" y="-12"/>
      <point x="91" y="9"/>
      <point x="91" y="33" type="curve" smooth="yes"/>
      <point x="91" y="57"/>
      <point x="112" y="78"/>
    </contour>
  </outline>
</glyph>
<glyph name="M" format="1">
  <advance width="816"/>
  <unicode hex="004D"/>
  <outline>
    <contour>
      <point x="215" y="520" type="curve" smooth="yes"/>
      <point x="192" y="377"/>
      <point x="160" y="142"/>
      <point x="148" y="26" type="curve" smooth="yes"/>
      <point x="145" y="2"/>
      <point x="123" y="-16"/>
      <point x="98" y="-14" type="curve" smooth="yes"/>
      <point x="74" y="-11"/>
      <point x="56" y="11"/>
      <point x="58" y="36" type="curve" smooth="yes"/>
      <point x="70" y="152"/>
      <point x="102" y="391"/>
      <point x="127" y="534" type="curve" smooth="yes"/>
      <point x="131" y="558"/>
      <point x="154" y="575"/>
      <point x="178" y="571" type="curve" smooth="yes"/>
      <point x="202" y="567"/>
      <point x="219" y="544"/>
    </contour>
    <contour>
      <point x="674" y="537" type="curve" smooth="yes"/>
      <point x="705" y="380"/>
      <point x="738" y="172"/>
      <point x="757" y="37" type="curve" smooth="yes"/>
      <point x="760" y="13"/>
      <point x="742" y="-10"/>
      <point x="718" y="-14" type="curve" smooth="yes"/>
      <point x="694" y="-17"/>
      <point x="671" y="1"/>
      <point x="667" y="25" type="curve" smooth="yes"/>
      <point x="650" y="158"/>
      <point x="617" y="364"/>
      <point x="586" y="519" type="curve" smooth="yes"/>
      <point x="581" y="543"/>
      <point x="597" y="567"/>
      <point x="621" y="572" type="curve" smooth="yes"/>
      <point x="645" y="577"/>
      <point x="669" y="561"/>
    </contour>
    <contour>
      <point x="223" y="534" type="curve" smooth="yes"/>
      <point x="285" y="407"/>
      <point x="380" y="210"/>
      <point x="447" y="69" type="curve" smooth="yes"/>
      <point x="457" y="48"/>
      <point x="447" y="20"/>
      <point x="425" y="9" type="curve" smooth="yes"/>
      <point x="404" y="-1"/>
      <point x="376" y="9"/>
      <point x="365" y="31" type="curve" smooth="yes"/>
      <point x="298" y="170"/>
      <point x="205" y="367"/>
      <point x="143" y="494" type="curve" smooth="yes"/>
      <point x="132" y="516"/>
      <point x="141" y="544"/>
      <point x="163" y="554" type="curve" smooth="yes"/>
      <point x="185" y="565"/>
      <point x="213" y="556"/>
    </contour>
    <contour>
      <point x="368" y="80" type="curve" smooth="yes"/>
      <point x="428" y="217"/>
      <point x="509" y="394"/>
      <point x="583" y="540" type="curve" smooth="yes"/>
      <point x="594" y="562"/>
      <point x="622" y="571"/>
      <point x="643" y="560" type="curve" smooth="yes"/>
      <point x="665" y="549"/>
      <point x="674" y="521"/>
      <point x="663" y="500" type="curve" smooth="yes"/>
      <point x="589" y="354"/>
      <point x="510" y="179"/>
      <point x="450" y="44" type="curve" smooth="yes"/>
      <point x="440" y="22"/>
      <point x="413" y="11"/>
      <point x="391" y="21" type="curve" smooth="yes"/>
      <point x="369" y="31"/>
      <point x="358" y="58"/>
    </contour>
  </outline>
</glyph>
<glyph name="N" format="1">
  <advance width="645"/>
  <unicode hex="004E"/>
  <outline>
    <contour>
      <point x="173" y="518" type="curve" smooth="yes"/>
      <point x="173" y="33" type="line" smooth="yes"/>
      <point x="173" y="9"/>
      <point x="152" y="-12"/>
      <point x="128" y="-12" type="curve" smooth="yes"/>
      <point x="104" y="-12"/>
      <point x="83" y="9"/>
      <point x="83" y="33" type="curve" smooth="yes"/>
      <point x="83" y="518" type="line" smooth="yes"/>
      <point x="83" y="542"/>
      <point x="104" y="563"/>
      <point x="128" y="563" type="curve" smooth="yes"/>
      <point x="152" y="563"/>
      <point x="173" y="542"/>
    </contour>
    <contour>
      <point x="562" y="518" type="curve" smooth="yes"/>
      <point x="562" y="33" type="line" smooth="yes"/>
      <point x="562" y="9"/>
      <point x="541" y="-12"/>
      <point x="517" y="-12" type="curve" smooth="yes"/>
      <point x="493" y="-12"/>
      <point x="472" y="9"/>
      <point x="472" y="33" type="curve" smooth="yes"/>
      <point x="472" y="518" type="line" smooth="yes"/>
      <point x="472" y="542"/>
      <point x="493" y="563"/>
      <point x="517" y="563" type="curve" smooth="yes"/>
      <point x="541" y="563"/>
      <point x="562" y="542"/>
    </contour>
    <contour>
      <point x="170" y="545" type="curve" smooth="yes"/>
      <point x="245" y="445"/>
      <point x="440" y="203"/>
      <point x="547" y="60" type="curve" smooth="yes"/>
      <point x="562" y="41"/>
      <point x="557" y="12"/>
      <point x="538" y="-3" type="curve" smooth="yes"/>
      <point x="519" y="-18"/>
      <point x="490" y="-13"/>
      <point x="475" y="6" type="curve" smooth="yes"/>
      <point x="368" y="149"/>
      <point x="173" y="391"/>
      <point x="98" y="491" type="curve" smooth="yes"/>
      <point x="83" y="510"/>
      <point x="88" y="539"/>
      <point x="107" y="554" type="curve" smooth="yes"/>
      <point x="126" y="569"/>
      <point x="155" y="564"/>
    </contour>
  </outline>
</glyph>
<glyph name="O" format="1">
  <advance width="640"/>
  <unicode hex="004F"/>
  <outline>
    <contour>
      <point x="322" y="572" type="curve" smooth="yes"/>
      <point x="474" y="572"/>
      <point x="599" y="452"/>
      <point x="599" y="275" type="curve" smooth="yes"/>
      <point x="599" y="107"/>
      <point x="495" y="-21"/>
      <point x="322" y="-21" type="curve" smooth="yes"/>
      <point x="158" y="-21"/>
      <point x="41" y="108"/>
      <point x="41" y="272" type="curve"/>
      <point x="41" y="452"/>
      <point x="156" y="572"/>
    </contour>
    <contour>
      <point x="322" y="482" type="curve" smooth="yes"/>
      <point x="206" y="482"/>
      <point x="131" y="394"/>
      <point x="131" y="272" type="curve" smooth="yes"/>
      <point x="131" y="160"/>
      <point x="208" y="69"/>
      <point x="322" y="69" type="curve" smooth="yes"/>
      <point x="443" y="69"/>
      <point x="509" y="161"/>
      <point x="509" y="275" type="curve" smooth="yes"/>
      <point x="509" y="394"/>
      <point x="428" y="482"/>
    </contour>
  </outline>
</glyph>
<glyph name="P" format="1">
  <advance width="520"/>
  <unicode hex="0050"/>
  <outline>
    <contour>
      <point x="154" y="254" type="curve" smooth="yes"/>
      <point x="271" y="254" type="line" smooth="yes"/>
      <point x="351" y="254"/>
      <point x="397" y="301"/>
      <point x="397" y="364" type="curve" smooth="yes"/>
      <point x="397" y="430"/>
      <point x="342" y="473"/>
      <point x="271" y="473" type="curve" smooth="yes"/>
      <point x="128" y="473" type="line"/>
      <point x="173" y="518" type="line"/>
      <point x="173" y="33" type="line" smooth="yes"/>
      <point x="173" y="9"/>
      <point x="152" y="-12"/>
      <point x="128" y="-12" type="curve" smooth="yes"/>
      <point x="104" y="-12"/>
      <point x="83" y="9"/>
      <point x="83" y="33" type="curve" smooth="yes"/>
      <point x="83" y="518" type="line"/>
      <point x="83" y="543"/>
      <point x="103" y="563"/>
      <point x="128" y="563" type="curve" smooth="yes"/>
      <point x="271" y="563" type="line" smooth="yes"/>
      <point x="402" y="563"/>
      <point x="487" y="478"/>
      <point x="487" y="364" type="curve" smooth="yes"/>
      <point x="487" y="257"/>
      <point x="417" y="164"/>
      <point x="271" y="164" type="curve" smooth="yes"/>
      <point x="154" y="164" type="line" smooth="yes"/>
      <point x="130" y="164"/>
      <point x="109" y="185"/>
      <point x="109" y="209" type="curve" smooth="yes"/>
      <point x="109" y="233"/>
      <point x="130" y="254"/>
    </contour>
  </outline>
</glyph>
<glyph name="Q" format="1">
  <advance width="620"/>
  <unicode hex="0051"/>
  <outline>
    <contour>
      <point x="312" y="572" type="curve" smooth="yes"/>
      <point x="457" y="572"/>
      <point x="579" y="453"/>
      <point x="579" y="275" type="curve" smooth="yes"/>
      <point x="579" y="105"/>
      <point x="478" y="-21"/>
      <point x="312" y="-21" type="curve" smooth="yes"/>
      <point x="155" y="-21"/>
      <point x="41" y="107"/>
      <point x="41" y="272" type="curve"/>
      <point x="41" y="453"/>
      <point x="153" y="572"/>
    </contour>
    <contour>
      <point x="357" y="32" type="curve" smooth="yes"/>
      <point x="371" y="-24"/>
      <point x="427" y="-65"/>
      <point x="507" y="-65" type="curve" smooth="yes"/>
      <point x="531" y="-65"/>
      <point x="552" y="-86"/>
      <point x="552" y="-110" type="curve" smooth="yes"/>
      <point x="552" y="-134"/>
      <point x="531" y="-155"/>
      <point x="507" y="-155" type="curve" smooth="yes"/>
      <point x="375" y="-155"/>
      <point x="293" y="-80"/>
      <point x="269" y="10" type="curve" smooth="yes"/>
      <point x="263" y="33"/>
      <point x="278" y="58"/>
      <point x="302" y="65" type="curve" smooth="yes"/>
      <point x="325" y="71"/>
      <point x="350" y="56"/>
    </contour>
    <contour>
      <point x="312" y="482" type="curve" smooth="yes"/>
      <point x="201" y="482"/>
      <point x="131" y="393"/>
      <point x="131" y="272" type="curve" smooth="yes"/>
      <point x="131" y="161"/>
      <point x="203" y="69"/>
      <point x="312" y="69" type="curve" smooth="yes"/>
      <point x="428" y="69"/>
      <point x="489" y="163"/>
      <point x="489" y="275" type="curve" smooth="yes"/>
      <point x="489" y="393"/>
      <point x="413" y="482"/>
    </contour>
  </outline>
</glyph>
<glyph name="R" format="1">
  <advance width="539"/>
  <unicode hex="0052"/>
  <outline>
    <contour>
      <point x="154" y="277" type="curve" smooth="yes"/>
      <point x="275" y="277" type="line" smooth="yes"/>
      <point x="351" y="277"/>
      <point x="396" y="318"/>
      <point x="396" y="375" type="curve" smooth="yes"/>
      <point x="396" y="436"/>
      <point x="344" y="473"/>
      <point x="275" y="473" type="curve" smooth="yes"/>
      <point x="128" y="473" type="line"/>
      <point x="173" y="518" type="line"/>
      <point x="173" y="33" type="line" smooth="yes"/>
      <point x="173" y="9"/>
      <point x="152" y="-12"/>
      <point x="128" y="-12" type="curve" smooth="yes"/>
      <point x="104" y="-12"/>
      <point x="83" y="9"/>
      <point x="83" y="33" type="curve" smooth="yes"/>
      <point x="83" y="518" type="line"/>
      <point x="83" y="543"/>
      <point x="103" y="563"/>
      <point x="128" y="563" type="curve" smooth="yes"/>
      <point x="275" y="563" type="line" smooth="yes"/>
      <point x="406" y="563"/>
      <point x="486" y="482"/>
      <point x="486" y="375" type="curve" smooth="yes"/>
      <point x="486" y="276"/>
      <point x="421" y="187"/>
      <point x="275" y="187" type="curve" smooth="yes"/>
      <point x="154" y="187" type="line" smooth="yes"/>
      <point x="130" y="187"/>
      <point x="109" y="208"/>
      <point x="109" y="232" type="curve" smooth="yes"/>
      <point x="109" y="256"/>
      <point x="130" y="277"/>
    </contour>
    <contour>
      <point x="344" y="248" type="curve" smooth="yes"/>
      <point x="503" y="62" type="line" smooth="yes"/>
      <point x="519" y="44"/>
      <point x="517" y="15"/>
      <point x="498" y="-1" type="curve" smooth="yes"/>
      <point x="480" y="-17"/>
      <point x="451" y="-15"/>
      <point x="435" y="4" type="curve" smooth="yes"/>
      <point x="276" y="190" type="line" smooth="yes"/>
      <point x="260" y="208"/>
      <point x="262" y="237"/>
      <point x="281" y="253" type="curve" smooth="yes"/>
      <point x="299" y="269"/>
      <point x="328" y="267"/>
    </contour>
  </outline>
</glyph>
<glyph name="S" format="1">
  <advance width="535"/>
  <unicode hex="0053"/>
  <outline>
    <contour>
      <point x="381" y="452" type="curve" smooth="yes"/>
      <point x="339" y="469"/>
      <point x="309" y="479"/>
      <point x="248" y="479" type="curve" smooth="yes"/>
      <point x="200" y="479"/>
      <point x="157" y="455"/>
      <point x="157" y="420" type="curve" smooth="yes"/>
      <point x="157" y="382"/>
      <point x="188" y="349"/>
      <point x="278" y="332" type="curve" smooth="yes"/>
      <point x="438" y="297"/>
      <point x="477" y="225"/>
      <point x="477" y="146" type="curve" smooth="yes"/>
      <point x="477" y="64"/>
      <point x="424" y="-21"/>
      <point x="268" y="-21" type="curve" smooth="yes"/>
      <point x="200" y="-21"/>
      <point x="136" y="-5"/>
      <point x="77" y="28" type="curve" smooth="yes"/>
      <point x="56" y="40"/>
      <point x="48" y="68"/>
      <point x="60" y="89" type="curve" smooth="yes"/>
      <point x="72" y="110"/>
      <point x="100" y="118"/>
      <point x="121" y="106" type="curve" smooth="yes"/>
      <point x="166" y="81"/>
      <point x="216" y="69"/>
      <point x="268" y="69" type="curve" smooth="yes"/>
      <point x="340" y="69"/>
      <point x="387" y="100"/>
      <point x="387" y="146" type="curve" smooth="yes"/>
      <point x="387" y="195"/>
      <point x="344" y="225"/>
      <point x="260" y="244" type="curve" smooth="yes"/>
      <point x="82" y="279"/>
      <point x="67" y="358"/>
      <point x="67" y="420" type="curve"/>
      <point x="67" y="491"/>
      <point x="126" y="569"/>
      <point x="248" y="569" type="curve" smooth="yes"/>
      <point x="325" y="569"/>
      <point x="363" y="557"/>
      <point x="415" y="536" type="curve" smooth="yes"/>
      <point x="437" y="527"/>
      <point x="449" y="500"/>
      <point x="440" y="477" type="curve" smooth="yes"/>
      <point x="431" y="455"/>
      <point x="404" y="443"/>
    </contour>
  </outline>
</glyph>
<glyph name="T" format="1">
  <advance width="558"/>
  <unicode hex="0054"/>
  <outline>
    <contour>
      <point x="322" y="518" type="curve" smooth="yes"/>
      <point x="322" y="33" type="line" smooth="yes"/>
      <point x="322" y="9"/>
      <point x="301" y="-12"/>
      <point x="277" y="-12" type="curve" smooth="yes"/>
      <point x="253" y="-12"/>
      <point x="232" y="9"/>
      <point x="232" y="33" type="curve" smooth="yes"/>
      <point x="232" y="518" type="line" smooth="yes"/>
      <point x="232" y="542"/>
      <point x="253" y="563"/>
      <point x="277" y="563" type="curve" smooth="yes"/>
      <point x="301" y="563"/>
      <point x="322" y="542"/>
    </contour>
    <contour>
      <point x="65" y="563" type="curve" smooth="yes"/>
      <point x="493" y="563" type="line" smooth="yes"/>
      <point x="517" y="563"/>
      <point x="538" y="542"/>
      <point x="538" y="518" type="curve" smooth="yes"/>
      <point x="538" y="494"/>
      <point x="517" y="473"/>
      <point x="493" y="473" type="curve" smooth="yes"/>
      <point x="65" y="473" type="line" smooth="yes"/>
      <point x="41" y="473"/>
      <point x="20" y="494"/>
      <point x="20" y="518" type="curve" smooth="yes"/>
      <point x="20" y="542"/>
      <point x="41" y="563"/>
    </contour>
  </outline>
</glyph>
<glyph name="U" format="1">
  <advance width="626"/>
  <unicode hex="0055"/>
  <outline>
    <contour>
      <point x="161" y="518" type="curve" smooth="yes"/>
      <point x="161" y="222" type="line" smooth="yes"/>
      <point x="161" y="124"/>
      <point x="222" y="69"/>
      <point x="311" y="69" type="curve" smooth="yes"/>
      <point x="410" y="69"/>
      <point x="465" y="124"/>
      <point x="465" y="225" type="curve" smooth="yes"/>
      <point x="465" y="518" type="line" smooth="yes"/>
      <point x="465" y="542"/>
      <point x="486" y="563"/>
      <point x="510" y="563" type="curve" smooth="yes"/>
      <point x="534" y="563"/>
      <point x="555" y="542"/>
      <point x="555" y="518" type="curve" smooth="yes"/>
      <point x="555" y="225" type="line" smooth="yes"/>
      <point x="555" y="66"/>
      <point x="466" y="-21"/>
      <point x="311" y="-21" type="curve" smooth="yes"/>
      <point x="170" y="-21"/>
      <point x="71" y="66"/>
      <point x="71" y="222" type="curve"/>
      <point x="71" y="518" type="line" smooth="yes"/>
      <point x="71" y="542"/>
      <point x="92" y="563"/>
      <point x="116" y="563" type="curve" smooth="yes"/>
      <point x="140" y="563"/>
      <point x="161" y="542"/>
    </contour>
  </outline>
</glyph>
<glyph name="V" format="1">
  <advance width="595"/>
  <unicode hex="0056"/>
  <outline>
    <contour>
      <point x="123" y="533" type="curve" smooth="yes"/>
      <point x="162" y="411"/>
      <point x="295" y="123"/>
      <point x="335" y="50" type="curve" smooth="yes"/>
      <point x="346" y="29"/>
      <point x="338" y="1"/>
      <point x="316" y="-11" type="curve" smooth="yes"/>
      <point x="295" y="-22"/>
      <point x="267" y="-14"/>
      <point x="255" y="8" type="curve" smooth="yes"/>
      <point x="215" y="83"/>
      <point x="78" y="379"/>
      <point x="37" y="505" type="curve" smooth="yes"/>
      <point x="30" y="528"/>
      <point x="43" y="554"/>
      <point x="66" y="562" type="curve" smooth="yes"/>
      <point x="89" y="569"/>
      <point x="115" y="556"/>
    </contour>
    <contour>
      <point x="258" y="44" type="curve" smooth="yes"/>
      <point x="302" y="127"/>
      <point x="424" y="391"/>
      <point x="472" y="533" type="curve" smooth="yes"/>
      <point x="480" y="556"/>
      <point x="507" y="568"/>
      <point x="530" y="561" type="curve" smooth="yes"/>
      <point x="553" y="553"/>
      <point x="565" y="526"/>
      <point x="558" y="503" type="curve" smooth="yes"/>
      <point x="508" y="359"/>
      <point x="382" y="87"/>
      <point x="338" y="2" type="curve" smooth="yes"/>
      <point x="327" y="-19"/>
      <point x="299" y="-28"/>
      <point x="277" y="-17" type="curve" smooth="yes"/>
      <point x="256" y="-6"/>
      <point x="247" y="22"/>
    </contour>
  </outline>
</glyph>
<glyph name="W" format="1">
  <advance width="893"/>
  <unicode hex="0057"/>
  <outline>
    <contour>
      <point x="132" y="529" type="curve" smooth="yes"/>
      <point x="166" y="407"/>
      <point x="264" y="122"/>
      <point x="299" y="49" type="curve" smooth="yes"/>
      <point x="309" y="27"/>
      <point x="299" y="0"/>
      <point x="277" y="-11" type="curve" smooth="yes"/>
      <point x="255" y="-21"/>
      <point x="228" y="-11"/>
      <point x="217" y="11" type="curve" smooth="yes"/>
      <point x="182" y="86"/>
      <point x="80" y="379"/>
      <point x="46" y="505" type="curve" smooth="yes"/>
      <point x="39" y="529"/>
      <point x="54" y="554"/>
      <point x="77" y="560" type="curve" smooth="yes"/>
      <point x="101" y="567"/>
      <point x="126" y="552"/>
    </contour>
    <contour>
      <point x="221" y="42" type="curve" smooth="yes"/>
      <point x="257" y="125"/>
      <point x="361" y="388"/>
      <point x="404" y="527" type="curve" smooth="yes"/>
      <point x="411" y="550"/>
      <point x="437" y="564"/>
      <point x="460" y="557" type="curve" smooth="yes"/>
      <point x="483" y="550"/>
      <point x="497" y="524"/>
      <point x="490" y="501" type="curve" smooth="yes"/>
      <point x="447" y="358"/>
      <point x="341" y="91"/>
      <point x="303" y="6" type="curve" smooth="yes"/>
      <point x="293" y="-16"/>
      <point x="266" y="-27"/>
      <point x="244" y="-17" type="curve" smooth="yes"/>
      <point x="222" y="-7"/>
      <point x="211" y="20"/>
    </contour>
    <contour>
      <point x="494" y="515" type="curve" smooth="yes"/>
      <point x="531" y="395"/>
      <point x="633" y="122"/>
      <point x="668" y="49" type="curve" smooth="yes"/>
      <point x="679" y="27"/>
      <point x="670" y="-1"/>
      <point x="648" y="-11" type="curve" smooth="yes"/>
      <point x="626" y="-22"/>
      <point x="598" y="-13"/>
      <point x="588" y="9" type="curve" smooth="yes"/>
      <point x="551" y="84"/>
      <point x="447" y="365"/>
      <point x="408" y="489" type="curve" smooth="yes"/>
      <point x="401" y="512"/>
      <point x="414" y="538"/>
      <point x="438" y="545" type="curve" smooth="yes"/>
      <point x="461" y="552"/>
      <point x="487" y="539"/>
    </contour>
    <contour>
      <point x="591" y="41" type="curve" smooth="yes"/>
      <point x="627" y="124"/>
      <point x="721" y="388"/>
      <point x="762" y="529" type="curve" smooth="yes"/>
      <point x="768" y="553"/>
      <point x="794" y="567"/>
      <point x="817" y="560" type="curve" smooth="yes"/>
      <point x="841" y="554"/>
      <point x="855" y="528"/>
      <point x="848" y="505" type="curve" smooth="yes"/>
      <point x="807" y="360"/>
      <point x="711" y="90"/>
      <point x="673" y="5" type="curve" smooth="yes"/>
      <point x="663" y="-17"/>
      <point x="636" y="-28"/>
      <point x="614" y="-18" type="curve" smooth="yes"/>
      <point x="592" y="-8"/>
      <point x="581" y="19"/>
    </contour>
  </outline>
</glyph>
<glyph name="X" format="1">
  <advance width="573"/>
  <unicode hex="0058"/>
  <outline>
    <contour>
      <point x="140" y="543" type="curve" smooth="yes"/>
      <point x="236" y="404"/>
      <point x="462" y="143"/>
      <point x="521" y="59" type="curve" smooth="yes"/>
      <point x="535" y="39"/>
      <point x="530" y="10"/>
      <point x="510" y="-4" type="curve" smooth="yes"/>
      <point x="490" y="-18"/>
      <point x="461" y="-13"/>
      <point x="447" y="7" type="curve" smooth="yes"/>
      <point x="388" y="91"/>
      <point x="162" y="352"/>
      <point x="66" y="493" type="curve" smooth="yes"/>
      <point x="52" y="513"/>
      <point x="58" y="541"/>
      <point x="78" y="555" type="curve" smooth="yes"/>
      <point x="98" y="569"/>
      <point x="126" y="563"/>
    </contour>
    <contour>
      <point x="54" y="60" type="curve" smooth="yes"/>
      <point x="132" y="166"/>
      <point x="341" y="410"/>
      <point x="426" y="542" type="curve" smooth="yes"/>
      <point x="439" y="563"/>
      <point x="468" y="569"/>
      <point x="488" y="556" type="curve" smooth="yes"/>
      <point x="509" y="543"/>
      <point x="515" y="514"/>
      <point x="502" y="494" type="curve" smooth="yes"/>
      <point x="415" y="360"/>
      <point x="206" y="114"/>
      <point x="126" y="6" type="curve" smooth="yes"/>
      <point x="112" y="-13"/>
      <point x="83" y="-18"/>
      <point x="63" y="-3" type="curve" smooth="yes"/>
      <point x="44" y="11"/>
      <point x="39" y="40"/>
    </contour>
  </outline>
</glyph>
<glyph name="Y" format="1">
  <advance width="570"/>
  <unicode hex="0059"/>
  <outline>
    <contour>
      <point x="332" y="201" type="curve" smooth="yes"/>
      <point x="332" y="33" type="line" smooth="yes"/>
      <point x="332" y="9"/>
      <point x="311" y="-12"/>
      <point x="287" y="-12" type="curve" smooth="yes"/>
      <point x="263" y="-12"/>
      <point x="242" y="9"/>
      <point x="242" y="33" type="curve" smooth="yes"/>
      <point x="242" y="201" type="line" smooth="yes"/>
      <point x="242" y="225"/>
      <point x="263" y="246"/>
      <point x="287" y="246" type="curve" smooth="yes"/>
      <point x="311" y="246"/>
      <point x="332" y="225"/>
    </contour>
    <contour>
      <point x="118" y="541" type="curve" smooth="yes"/>
      <point x="159" y="472"/>
      <point x="277" y="296"/>
      <point x="320" y="240" type="curve" smooth="yes"/>
      <point x="335" y="221"/>
      <point x="330" y="192"/>
      <point x="311" y="177" type="curve" smooth="yes"/>
      <point x="292" y="162"/>
      <point x="263" y="167"/>
      <point x="248" y="186" type="curve" smooth="yes"/>
      <point x="205" y="244"/>
      <point x="83" y="424"/>
      <point x="40" y="495" type="curve" smooth="yes"/>
      <point x="28" y="516"/>
      <point x="35" y="544"/>
      <point x="56" y="557" type="curve" smooth="yes"/>
      <point x="77" y="569"/>
      <point x="105" y="562"/>
    </contour>
    <contour>
      <point x="251" y="234" type="curve" smooth="yes"/>
      <point x="299" y="299"/>
      <point x="412" y="473"/>
      <point x="452" y="541" type="curve" smooth="yes"/>
      <point x="465" y="562"/>
      <point x="493" y="569"/>
      <point x="514" y="557" type="curve" smooth="yes"/>
      <point x="535" y="544"/>
      <point x="542" y="516"/>
      <point x="530" y="495" type="curve" smooth="yes"/>
      <point x="488" y="425"/>
      <point x="373" y="247"/>
      <point x="323" y="180" type="curve" smooth="yes"/>
      <point x="309" y="161"/>
      <point x="280" y="156"/>
      <point x="260" y="171" type="curve" smooth="yes"/>
      <point x="241" y="185"/>
      <point x="236" y="214"/>
    </contour>
  </outline>
</glyph>
<glyph name="Z" format="1">
  <advance width="577"/>
  <unicode hex="005A"/>
  <outline>
    <contour>
      <point x="509" y="493" type="curve" smooth="yes"/>
      <point x="446" y="398"/>
      <point x="193" y="99"/>
      <point x="140" y="17" type="curve" smooth="yes"/>
      <point x="127" y="-4"/>
      <point x="98" y="-10"/>
      <point x="78" y="3" type="curve" smooth="yes"/>
      <point x="57" y="16"/>
      <point x="51" y="45"/>
      <point x="64" y="65" type="curve" smooth="yes"/>
      <point x="117" y="147"/>
      <point x="370" y="448"/>
      <point x="433" y="543" type="curve" smooth="yes"/>
      <point x="447" y="563"/>
      <point x="476" y="569"/>
      <point x="496" y="556" type="curve" smooth="yes"/>
      <point x="516" y="542"/>
      <point x="522" y="513"/>
    </contour>
    <contour>
      <point x="111" y="563" type="curve" smooth="yes"/>
      <point x="460" y="563" type="line" smooth="yes"/>
      <point x="484" y="563"/>
      <point x="505" y="542"/>
      <point x="505" y="518" type="curve" smooth="yes"/>
      <point x="505" y="494"/>
      <point x="484" y="473"/>
      <point x="460" y="473" type="curve" smooth="yes"/>
      <point x="111" y="473" type="line" smooth="yes"/>
      <point x="87" y="473"/>
      <point x="66" y="494"/>
      <point x="66" y="518" type="curve" smooth="yes"/>
      <point x="66" y="542"/>
      <point x="87" y="563"/>
    </contour>
    <contour>
      <point x="98" y="78" type="curve" smooth="yes"/>
      <point x="483" y="78" type="line" smooth="yes"/>
      <point x="507" y="78"/>
      <point x="528" y="57"/>
      <point x="528" y="33" type="curve" smooth="yes"/>
      <point x="528" y="9"/>
      <point x="507" y="-12"/>
      <point x="483" y="-12" type="curve" smooth="yes"/>
      <point x="98" y="-12" type="line" smooth="yes"/>
      <point x="74" y="-12"/>
      <point x="53" y="9"/>
      <point x="53" y="33" type="curve" smooth="yes"/>
      <point x="53" y="57"/>
      <point x="74" y="78"/>
    </contour>
  </outline>
</glyph>
<glyph name="bracketleft" format="1">
  <advance width="325"/>
  <unicode hex="005B"/>
  <outline>
    <contour>
      <point x="238" y="568" type="curve" smooth="yes"/>
      <point x="103" y="568" type="line"/>
      <point x="148" y="613" type="line"/>
      <point x="148" y="-66" type="line"/>
      <point x="103" y="-21" type="line"/>
      <point x="238" y="-21" type="line" smooth="yes"/>
      <point x="262" y="-21"/>
      <point x="283" y="-42"/>
      <point x="283" y="-66" type="curve" smooth="yes"/>
      <point x="283" y="-90"/>
      <point x="262" y="-111"/>
      <point x="238" y="-111" type="curve" smooth="yes"/>
      <point x="103" y="-111" type="line" smooth="yes"/>
      <point x="78" y="-111"/>
      <point x="58" y="-91"/>
      <point x="58" y="-66" type="curve"/>
      <point x="58" y="613" type="line"/>
      <point x="58" y="638"/>
      <point x="78" y="658"/>
      <point x="103" y="658" type="curve" smooth="yes"/>
      <point x="238" y="658" type="line" smooth="yes"/>
      <point x="262" y="658"/>
      <point x="283" y="637"/>
      <point x="283" y="613" type="curve" smooth="yes"/>
      <point x="283" y="589"/>
      <point x="262" y="568"/>
    </contour>
  </outline>
</glyph>
<glyph name="asciicircum" format="1">
  <advance width="500"/>
  <unicode hex="005E"/>
  <outline>
    <contour>
      <point x="286" y="505" type="curve" smooth="yes"/>
      <point x="238" y="413"/>
      <point x="187" y="318"/>
      <point x="146" y="238" type="curve" smooth="yes"/>
      <point x="135" y="217"/>
      <point x="107" y="208"/>
      <point x="85" y="219" type="curve" smooth="yes"/>
      <point x="64" y="230"/>
      <point x="55" y="258"/>
      <point x="66" y="280" type="curve" smooth="yes"/>
      <point x="107" y="360"/>
      <point x="158" y="455"/>
      <point x="206" y="547" type="curve" smooth="yes"/>
      <point x="217" y="568"/>
      <point x="245" y="577"/>
      <point x="267" y="566" type="curve" smooth="yes"/>
      <point x="288" y="555"/>
      <point x="297" y="527"/>
    </contour>
    <contour>
      <point x="355" y="238" type="curve" smooth="yes"/>
      <point x="314" y="318"/>
      <point x="265" y="413"/>
      <point x="215" y="505" type="curve" smooth="yes"/>
      <point x="204" y="526"/>
      <point x="212" y="554"/>
      <point x="234" y="566" type="curve" smooth="yes"/>
      <point x="255" y="577"/>
      <point x="283" y="569"/>
      <point x="295" y="547" type="curve" smooth="yes"/>
      <point x="345" y="455"/>
      <point x="394" y="360"/>
      <point x="435" y="280" type="curve" smooth="yes"/>
      <point x="446" y="258"/>
      <point x="437" y="230"/>
      <point x="416" y="219" type="curve" smooth="yes"/>
      <point x="394" y="208"/>
      <point x="366" y="217"/>
    </contour>
  </outline>
</glyph>
<glyph name="underscore" format="1">
  <advance width="545"/>
  <unicode hex="005F"/>
  <outline>
    <contour>
      <point x="65" y="-46" type="curve" smooth="yes"/>
      <point x="480" y="-46" type="line" smooth="yes"/>
      <point x="504" y="-46"/>
      <point x="525" y="-67"/>
      <point x="525" y="-91" type="curve" smooth="yes"/>
      <point x="525" y="-115"/>
      <point x="504" y="-136"/>
      <point x="480" y="-136" type="curve" smooth="yes"/>
      <point x="65" y="-136" type="line" smooth="yes"/>
      <point x="41" y="-136"/>
      <point x="20" y="-115"/>
      <point x="20" y="-91" type="curve" smooth="yes"/>
      <point x="20" y="-67"/>
      <point x="41" y="-46"/>
    </contour>
  </outline>
</glyph>
<glyph name="grave" format="1">
  <advance width="500"/>
  <unicode hex="0060"/>
  <outline>
    <contour>
      <point x="255" y="625" type="curve" smooth="yes"/>
      <point x="285" y="588"/>
      <point x="299" y="569"/>
      <point x="324" y="529" type="curve" smooth="yes"/>
      <point x="337" y="508"/>
      <point x="330" y="479"/>
      <point x="310" y="467" type="curve" smooth="yes"/>
      <point x="289" y="454"/>
      <point x="260" y="461"/>
      <point x="248" y="481" type="curve" smooth="yes"/>
      <point x="225" y="519"/>
      <point x="211" y="536"/>
      <point x="185" y="569" type="curve" smooth="yes"/>
      <point x="170" y="588"/>
      <point x="173" y="617"/>
      <point x="192" y="632" type="curve" smooth="yes"/>
      <point x="211" y="647"/>
      <point x="240" y="644"/>
    </contour>
  </outline>
</glyph>
<glyph name="a" format="1">
  <advance width="456"/>
  <unicode hex="0061"/>
  <outline>
    <contour>
      <point x="113" y="402" type="curve" smooth="yes"/>
      <point x="137" y="410"/>
      <point x="182" y="420"/>
      <point x="220" y="420" type="curve" smooth="yes"/>
      <point x="342" y="420"/>
      <point x="399" y="346"/>
      <point x="399" y="238" type="curve" smooth="yes"/>
      <point x="399" y="147" type="line" smooth="yes"/>
      <point x="399" y="108"/>
      <point x="407" y="83"/>
      <point x="424" y="65" type="curve" smooth="yes"/>
      <point x="441" y="47"/>
      <point x="439" y="17"/>
      <point x="422" y="1" type="curve" smooth="yes"/>
      <point x="404" y="-16"/>
      <point x="374" y="-14"/>
      <point x="358" y="3" type="curve" smooth="yes"/>
      <point x="327" y="37"/>
      <point x="309" y="76"/>
      <point x="309" y="147" type="curve" smooth="yes"/>
      <point x="309" y="238" type="line" smooth="yes"/>
      <point x="309" y="292"/>
      <point x="282" y="330"/>
      <point x="220" y="330" type="curve" smooth="yes"/>
      <point x="192" y="330"/>
      <point x="159" y="322"/>
      <point x="141" y="316" type="curve" smooth="yes"/>
      <point x="118" y="309"/>
      <point x="92" y="322"/>
      <point x="84" y="345" type="curve" smooth="yes"/>
      <point x="77" y="368"/>
      <point x="90" y="394"/>
    </contour>
    <contour>
      <point x="352" y="182" type="curve" smooth="yes"/>
      <point x="318" y="183"/>
      <point x="289" y="185"/>
      <point x="260" y="185" type="curve" smooth="yes"/>
      <point x="203" y="185"/>
      <point x="164" y="174"/>
      <point x="140" y="150" type="curve" smooth="yes"/>
      <point x="128" y="139"/>
      <point x="125" y="127"/>
      <point x="125" y="114" type="curve" smooth="yes"/>
      <point x="125" y="95"/>
      <point x="145" y="78"/>
      <point x="177" y="78" type="curve" smooth="yes"/>
      <point x="236" y="78"/>
      <point x="280" y="103"/>
      <point x="318" y="155" type="curve" smooth="yes"/>
      <point x="332" y="174"/>
      <point x="361" y="179"/>
      <point x="381" y="164" type="curve" smooth="yes"/>
      <point x="400" y="150"/>
      <point x="405" y="121"/>
      <point x="390" y="101" type="curve" smooth="yes"/>
      <point x="332" y="23"/>
      <point x="266" y="-12"/>
      <point x="177" y="-12" type="curve" smooth="yes"/>
      <point x="67" y="-12"/>
      <point x="35" y="61"/>
      <point x="35" y="114" type="curve"/>
      <point x="35" y="151"/>
      <point x="46" y="185"/>
      <point x="76" y="214" type="curve" smooth="yes"/>
      <point x="112" y="250"/>
      <point x="171" y="275"/>
      <point x="260" y="275" type="curve" smooth="yes"/>
      <point x="289" y="275"/>
      <point x="320" y="273"/>
      <point x="354" y="272" type="curve" smooth="yes"/>
      <point x="379" y="271"/>
      <point x="399" y="250"/>
      <point x="398" y="226" type="curve" smooth="yes"/>
      <point x="397" y="201"/>
      <point x="376" y="181"/>
    </contour>
  </outline>
</glyph>
<glyph name="b" format="1">
  <advance width="515"/>
  <unicode hex="0062"/>
  <outline>
    <contour>
      <point x="70" y="34" type="curve" smooth="yes"/>
      <point x="70" y="544" type="line" smooth="yes"/>
      <point x="70" y="568"/>
      <point x="91" y="589"/>
      <point x="115" y="589" type="curve" smooth="yes"/>
      <point x="139" y="589"/>
      <point x="160" y="568"/>
      <point x="160" y="544" type="curve" smooth="yes"/>
      <point x="160" y="34" type="line" smooth="yes"/>
      <point x="160" y="10"/>
      <point x="139" y="-11"/>
      <point x="115" y="-11" type="curve" smooth="yes"/>
      <point x="91" y="-11"/>
      <point x="70" y="10"/>
    </contour>
    <contour>
      <point x="136" y="112" type="curve" smooth="yes"/>
      <point x="178" y="89"/>
      <point x="222" y="78"/>
      <point x="273" y="78" type="curve" smooth="yes"/>
      <point x="344" y="78"/>
      <point x="392" y="128"/>
      <point x="392" y="203" type="curve" smooth="yes"/>
      <point x="392" y="275"/>
      <point x="348" y="330"/>
      <point x="286" y="330" type="curve" smooth="yes"/>
      <point x="237" y="330"/>
      <point x="189" y="291"/>
      <point x="154" y="235" type="curve" smooth="yes"/>
      <point x="141" y="215"/>
      <point x="113" y="208"/>
      <point x="92" y="221" type="curve" smooth="yes"/>
      <point x="72" y="234"/>
      <point x="65" y="262"/>
      <point x="78" y="283" type="curve" smooth="yes"/>
      <point x="133" y="371"/>
      <point x="211" y="420"/>
      <point x="286" y="420" type="curve" smooth="yes"/>
      <point x="392" y="420"/>
      <point x="482" y="337"/>
      <point x="482" y="203" type="curve" smooth="yes"/>
      <point x="482" y="70"/>
      <point x="394" y="-12"/>
      <point x="273" y="-12" type="curve" smooth="yes"/>
      <point x="206" y="-12"/>
      <point x="148" y="3"/>
      <point x="94" y="32" type="curve" smooth="yes"/>
      <point x="72" y="44"/>
      <point x="64" y="72"/>
      <point x="75" y="93" type="curve" smooth="yes"/>
      <point x="87" y="115"/>
      <point x="115" y="123"/>
    </contour>
  </outline>
</glyph>
<glyph name="c" format="1">
  <advance width="443"/>
  <unicode hex="0063"/>
  <outline>
    <contour>
      <point x="340" y="317" type="curve" smooth="yes"/>
      <point x="317" y="325"/>
      <point x="289" y="330"/>
      <point x="265" y="330" type="curve" smooth="yes"/>
      <point x="177" y="330"/>
      <point x="124" y="274"/>
      <point x="124" y="195" type="curve"/>
      <point x="124" y="126"/>
      <point x="178" y="78"/>
      <point x="264" y="78" type="curve" smooth="yes"/>
      <point x="298" y="78"/>
      <point x="326" y="85"/>
      <point x="350" y="94" type="curve" smooth="yes"/>
      <point x="372" y="103"/>
      <point x="399" y="91"/>
      <point x="408" y="68" type="curve" smooth="yes"/>
      <point x="417" y="46"/>
      <point x="405" y="19"/>
      <point x="382" y="10" type="curve" smooth="yes"/>
      <point x="350" y="-3"/>
      <point x="312" y="-12"/>
      <point x="264" y="-12" type="curve" smooth="yes"/>
      <point x="112" y="-12"/>
      <point x="34" y="82"/>
      <point x="34" y="195" type="curve"/>
      <point x="34" y="324"/>
      <point x="118" y="420"/>
      <point x="265" y="420" type="curve" smooth="yes"/>
      <point x="299" y="420"/>
      <point x="337" y="413"/>
      <point x="368" y="403" type="curve" smooth="yes"/>
      <point x="391" y="395"/>
      <point x="404" y="369"/>
      <point x="397" y="346" type="curve" smooth="yes"/>
      <point x="389" y="323"/>
      <point x="363" y="310"/>
    </contour>
  </outline>
</glyph>
<glyph name="d" format="1">
  <advance width="514"/>
  <unicode hex="0064"/>
  <outline>
    <contour>
      <point x="370" y="281" type="curve" smooth="yes"/>
      <point x="334" y="311"/>
      <point x="298" y="330"/>
      <point x="249" y="330" type="curve" smooth="yes"/>
      <point x="176" y="330"/>
      <point x="123" y="273"/>
      <point x="123" y="196" type="curve"/>
      <point x="123" y="127"/>
      <point x="166" y="78"/>
      <point x="228" y="78" type="curve" smooth="yes"/>
      <point x="288" y="78"/>
      <point x="329" y="122"/>
      <point x="359" y="173" type="curve" smooth="yes"/>
      <point x="372" y="194"/>
      <point x="400" y="201"/>
      <point x="421" y="189" type="curve" smooth="yes"/>
      <point x="442" y="176"/>
      <point x="449" y="148"/>
      <point x="437" y="127" type="curve" smooth="yes"/>
      <point x="389" y="46"/>
      <point x="320" y="-12"/>
      <point x="228" y="-12" type="curve" smooth="yes"/>
      <point x="120" y="-12"/>
      <point x="33" y="67"/>
      <point x="33" y="196" type="curve"/>
      <point x="33" y="327"/>
      <point x="126" y="420"/>
      <point x="249" y="420" type="curve" smooth="yes"/>
      <point x="320" y="420"/>
      <point x="374" y="395"/>
      <point x="428" y="351" type="curve" smooth="yes"/>
      <point x="446" y="335"/>
      <point x="449" y="306"/>
      <point x="434" y="287" type="curve" smooth="yes"/>
      <point x="418" y="269"/>
      <point x="389" y="266"/>
    </contour>
    <contour>
      <point x="444" y="544" type="curve" smooth="yes"/>
      <point x="444" y="33" type="line" smooth="yes"/>
      <point x="444" y="9"/>
      <point x="423" y="-12"/>
      <point x="399" y="-12" type="curve" smooth="yes"/>
      <point x="375" y="-12"/>
      <point x="354" y="9"/>
      <point x="354" y="33" type="curve" smooth="yes"/>
      <point x="354" y="544" type="line" smooth="yes"/>
      <point x="354" y="568"/>
      <point x="375" y="589"/>
      <point x="399" y="589" type="curve" smooth="yes"/>
      <point x="423" y="589"/>
      <point x="444" y="568"/>
    </contour>
  </outline>
</glyph>
<glyph name="e" format="1">
  <advance width="468"/>
  <unicode hex="0065"/>
  <outline>
    <contour>
      <point x="92" y="254" type="curve" smooth="yes"/>
      <point x="311" y="254" type="line" smooth="yes"/>
      <point x="320" y="254"/>
      <point x="338" y="252"/>
      <point x="338" y="267" type="curve" smooth="yes"/>
      <point x="338" y="294"/>
      <point x="299" y="330"/>
      <point x="247" y="330" type="curve" smooth="yes"/>
      <point x="178" y="330"/>
      <point x="124" y="276"/>
      <point x="124" y="199" type="curve"/>
      <point x="124" y="117"/>
      <point x="186" y="78"/>
      <point x="267" y="78" type="curve" smooth="yes"/>
      <point x="297" y="78"/>
      <point x="326" y="85"/>
      <point x="348" y="93" type="curve" smooth="yes"/>
      <point x="371" y="102"/>
      <point x="397" y="90"/>
      <point x="406" y="67" type="curve" smooth="yes"/>
      <point x="415" y="44"/>
      <point x="403" y="18"/>
      <point x="380" y="9" type="curve" smooth="yes"/>
      <point x="350" y="-3"/>
      <point x="309" y="-12"/>
      <point x="267" y="-12" type="curve" smooth="yes"/>
      <point x="126" y="-12"/>
      <point x="34" y="65"/>
      <point x="34" y="199" type="curve"/>
      <point x="34" y="332"/>
      <point x="130" y="420"/>
      <point x="247" y="420" type="curve" smooth="yes"/>
      <point x="373" y="420"/>
      <point x="428" y="322"/>
      <point x="428" y="267" type="curve" smooth="yes"/>
      <point x="428" y="202"/>
      <point x="384" y="164"/>
      <point x="311" y="164" type="curve" smooth="yes"/>
      <point x="92" y="164" type="line" smooth="yes"/>
      <point x="68" y="164"/>
      <point x="47" y="185"/>
      <point x="47" y="209" type="curve" smooth="yes"/>
      <point x="47" y="233"/>
      <point x="68" y="254"/>
    </contour>
  </outline>
</glyph>
<glyph name="f" format="1">
  <advance width="328"/>
  <unicode hex="0066"/>
  <outline>
    <contour>
      <point x="278" y="525" type="curve" smooth="yes"/>
      <point x="212" y="521"/>
      <point x="184" y="496"/>
      <point x="184" y="448" type="curve" smooth="yes"/>
      <point x="184" y="33" type="line" smooth="yes"/>
      <point x="184" y="9"/>
      <point x="163" y="-12"/>
      <point x="139" y="-12" type="curve" smooth="yes"/>
      <point x="115" y="-12"/>
      <point x="94" y="9"/>
      <point x="94" y="33" type="curve" smooth="yes"/>
      <point x="94" y="448" type="line" smooth="yes"/>
      <point x="94" y="540"/>
      <point x="130" y="607"/>
      <point x="272" y="615" type="curve" smooth="yes"/>
      <point x="297" y="616"/>
      <point x="319" y="597"/>
      <point x="320" y="573" type="curve" smooth="yes"/>
      <point x="321" y="548"/>
      <point x="302" y="526"/>
    </contour>
    <contour>
      <point x="51" y="420" type="curve" smooth="yes"/>
      <point x="277" y="420" type="line" smooth="yes"/>
      <point x="301" y="420"/>
      <point x="322" y="399"/>
      <point x="322" y="375" type="curve" smooth="yes"/>
      <point x="322" y="351"/>
      <point x="301" y="330"/>
      <point x="277" y="330" type="curve" smooth="yes"/>
      <point x="51" y="330" type="line" smooth="yes"/>
      <point x="27" y="330"/>
      <point x="6" y="351"/>
      <point x="6" y="375" type="curve" smooth="yes"/>
      <point x="6" y="399"/>
      <point x="27" y="420"/>
    </contour>
  </outline>
</glyph>
<glyph name="g" format="1">
  <advance width="512"/>
  <unicode hex="0067"/>
  <outline>
    <contour>
      <point x="378" y="297" type="curve" smooth="yes"/>
      <point x="333" y="319"/>
      <point x="302" y="330"/>
      <point x="254" y="330" type="curve" smooth="yes"/>
      <point x="187" y="330"/>
      <point x="123" y="277"/>
      <point x="123" y="195" type="curve"/>
      <point x="123" y="123"/>
      <point x="170" y="90"/>
      <point x="220" y="90" type="curve" smooth="yes"/>
      <point x="272" y="90"/>
      <point x="323" y="121"/>
      <point x="358" y="176" type="curve" smooth="yes"/>
      <point x="371" y="197"/>
      <point x="399" y="203"/>
      <point x="420" y="190" type="curve" smooth="yes"/>
      <point x="441" y="177"/>
      <point x="447" y="149"/>
      <point x="434" y="128" type="curve" smooth="yes"/>
      <point x="381" y="43"/>
      <point x="300" y="0"/>
      <point x="220" y="0" type="curve" smooth="yes"/>
      <point x="128" y="0"/>
      <point x="33" y="57"/>
      <point x="33" y="195" type="curve"/>
      <point x="33" y="333"/>
      <point x="143" y="420"/>
      <point x="254" y="420" type="curve" smooth="yes"/>
      <point x="318" y="420"/>
      <point x="357" y="407"/>
      <point x="416" y="379" type="curve" smooth="yes"/>
      <point x="438" y="368"/>
      <point x="448" y="340"/>
      <point x="438" y="319" type="curve" smooth="yes"/>
      <point x="427" y="297"/>
      <point x="399" y="287"/>
    </contour>
    <contour>
      <point x="166" y="-103" type="curve" smooth="yes"/>
      <point x="289" y="-103"/>
      <point x="352" y="-60"/>
      <point x="352" y="49" type="curve" smooth="yes"/>
      <point x="352" y="375" type="line" smooth="yes"/>
      <point x="352" y="399"/>
      <point x="373" y="420"/>
      <point x="397" y="420" type="curve" smooth="yes"/>
      <point x="421" y="420"/>
      <point x="442" y="399"/>
      <point x="442" y="375" type="curve" smooth="yes"/>
      <point x="442" y="49" type="line" smooth="yes"/>
      <point x="442" y="-112"/>
      <point x="363" y="-193"/>
      <point x="166" y="-193" type="curve" smooth="yes"/>
      <point x="142" y="-193"/>
      <point x="121" y="-172"/>
      <point x="121" y="-148" type="curve" smooth="yes"/>
      <point x="121" y="-124"/>
      <point x="142" y="-103"/>
    </contour>
  </outline>
</glyph>
<glyph name="h" format="1">
  <advance width="507"/>
  <unicode hex="0068"/>
  <outline>
    <contour>
      <point x="70" y="33" type="curve" smooth="yes"/>
      <point x="70" y="544" type="line" smooth="yes"/>
      <point x="70" y="568"/>
      <point x="91" y="589"/>
      <point x="115" y="589" type="curve" smooth="yes"/>
      <point x="139" y="589"/>
      <point x="160" y="568"/>
      <point x="160" y="544" type="curve" smooth="yes"/>
      <point x="160" y="33" type="line" smooth="yes"/>
      <point x="160" y="9"/>
      <point x="139" y="-12"/>
      <point x="115" y="-12" type="curve" smooth="yes"/>
      <point x="91" y="-12"/>
      <point x="70" y="9"/>
    </contour>
    <contour>
      <point x="357" y="33" type="curve" smooth="yes"/>
      <point x="357" y="233" type="line" smooth="yes"/>
      <point x="357" y="296"/>
      <point x="334" y="330"/>
      <point x="290" y="330" type="curve" smooth="yes"/>
      <point x="238" y="330"/>
      <point x="190" y="295"/>
      <point x="151" y="256" type="curve" smooth="yes"/>
      <point x="134" y="239"/>
      <point x="104" y="239"/>
      <point x="87" y="256" type="curve" smooth="yes"/>
      <point x="70" y="273"/>
      <point x="70" y="303"/>
      <point x="87" y="320" type="curve" smooth="yes"/>
      <point x="144" y="377"/>
      <point x="216" y="420"/>
      <point x="290" y="420" type="curve" smooth="yes"/>
      <point x="374" y="420"/>
      <point x="447" y="380"/>
      <point x="447" y="233" type="curve" smooth="yes"/>
      <point x="447" y="33" type="line" smooth="yes"/>
      <point x="447" y="9"/>
      <point x="426" y="-12"/>
      <point x="402" y="-12" type="curve" smooth="yes"/>
      <point x="378" y="-12"/>
      <point x="357" y="9"/>
    </contour>
  </outline>
</glyph>
<glyph name="i" format="1">
  <advance width="217"/>
  <unicode hex="0069"/>
  <outline>
    <contour>
      <point x="109" y="628" type="curve" smooth="yes"/>
      <point x="139" y="628"/>
      <point x="171" y="604"/>
      <point x="171" y="557" type="curve" smooth="yes"/>
      <point x="171" y="510"/>
      <point x="141" y="488"/>
      <point x="109" y="488" type="curve" smooth="yes"/>
      <point x="75" y="488"/>
      <point x="45" y="513"/>
      <point x="45" y="557" type="curve"/>
      <point x="45" y="601"/>
      <point x="76" y="628"/>
    </contour>
    <contour>
      <point x="63" y="33" type="curve" smooth="yes"/>
      <point x="63" y="375" type="line" smooth="yes"/>
      <point x="63" y="399"/>
      <point x="84" y="420"/>
      <point x="108" y="420" type="curve" smooth="yes"/>
      <point x="132" y="420"/>
      <point x="153" y="399"/>
      <point x="153" y="375" type="curve" smooth="yes"/>
      <point x="153" y="33" type="line" smooth="yes"/>
      <point x="153" y="9"/>
      <point x="132" y="-12"/>
      <point x="108" y="-12" type="curve" smooth="yes"/>
      <point x="84" y="-12"/>
      <point x="63" y="9"/>
    </contour>
    <contour>
      <point x="109" y="538" type="curve" smooth="yes"/>
      <point x="118" y="538"/>
      <point x="135" y="539"/>
      <point x="135" y="557" type="curve" smooth="yes"/>
      <point x="135" y="575"/>
      <point x="120" y="578"/>
      <point x="109" y="578" type="curve" smooth="yes"/>
      <point x="99" y="578"/>
      <point x="81" y="578"/>
      <point x="81" y="557" type="curve" smooth="yes"/>
      <point x="81" y="536"/>
      <point x="101" y="538"/>
    </contour>
  </outline>
</glyph>
<glyph name="j" format="1">
  <advance width="220"/>
  <unicode hex="006A"/>
  <outline>
    <contour>
      <point x="112" y="628" type="curve" smooth="yes"/>
      <point x="142" y="628"/>
      <point x="174" y="604"/>
      <point x="174" y="557" type="curve" smooth="yes"/>
      <point x="174" y="510"/>
      <point x="144" y="488"/>
      <point x="112" y="488" type="curve" smooth="yes"/>
      <point x="78" y="488"/>
      <point x="48" y="513"/>
      <point x="48" y="557" type="curve"/>
      <point x="48" y="601"/>
      <point x="79" y="628"/>
    </contour>
    <contour>
      <point x="-15" y="-83" type="curve" smooth="yes"/>
      <point x="38" y="-62"/>
      <point x="66" y="-22"/>
      <point x="66" y="52" type="curve" smooth="yes"/>
      <point x="66" y="375" type="line" smooth="yes"/>
      <point x="66" y="399"/>
      <point x="87" y="420"/>
      <point x="111" y="420" type="curve" smooth="yes"/>
      <point x="135" y="420"/>
      <point x="156" y="399"/>
      <point x="156" y="375" type="curve" smooth="yes"/>
      <point x="156" y="52" type="line" smooth="yes"/>
      <point x="156" y="-72"/>
      <point x="104" y="-134"/>
      <point x="17" y="-167" type="curve" smooth="yes"/>
      <point x="-5" y="-176"/>
      <point x="-32" y="-164"/>
      <point x="-41" y="-141" type="curve" smooth="yes"/>
      <point x="-50" y="-119"/>
      <point x="-38" y="-92"/>
    </contour>
    <contour>
      <point x="112" y="538" type="curve" smooth="yes"/>
      <point x="121" y="538"/>
      <point x="138" y="539"/>
      <point x="138" y="557" type="curve" smooth="yes"/>
      <point x="138" y="575"/>
      <point x="123" y="578"/>
      <point x="112" y="578" type="curve" smooth="yes"/>
      <point x="102" y="578"/>
      <point x="84" y="578"/>
      <point x="84" y="557" type="curve" smooth="yes"/>
      <point x="84" y="536"/>
      <point x="104" y="538"/>
    </contour>
  </outline>
</glyph>
<glyph name="k" format="1">
  <advance width="483"/>
  <unicode hex="006B"/>
  <outline>
    <contour>
      <point x="70" y="33" type="curve" smooth="yes"/>
      <point x="70" y="544" type="line" smooth="yes"/>
      <point x="70" y="568"/>
      <point x="91" y="589"/>
      <point x="115" y="589" type="curve" smooth="yes"/>
      <point x="139" y="589"/>
      <point x="160" y="568"/>
      <point x="160" y="544" type="curve" smooth="yes"/>
      <point x="160" y="33" type="line" smooth="yes"/>
      <point x="160" y="9"/>
      <point x="139" y="-12"/>
      <point x="115" y="-12" type="curve" smooth="yes"/>
      <point x="91" y="-12"/>
      <point x="70" y="9"/>
    </contour>
    <contour>
      <point x="276" y="285" type="curve" smooth="yes"/>
      <point x="437" y="59" type="line" smooth="yes"/>
      <point x="451" y="39"/>
      <point x="446" y="10"/>
      <point x="426" y="-4" type="curve" smooth="yes"/>
      <point x="406" y="-18"/>
      <point x="377" y="-13"/>
      <point x="363" y="7" type="curve" smooth="yes"/>
      <point x="202" y="233" type="line" smooth="yes"/>
      <point x="188" y="253"/>
      <point x="193" y="282"/>
      <point x="213" y="296" type="curve" smooth="yes"/>
      <point x="233" y="310"/>
      <point x="262" y="305"/>
    </contour>
    <contour>
      <point x="415" y="340" type="curve" smooth="yes"/>
      <point x="145" y="128" type="line" smooth="yes"/>
      <point x="126" y="113"/>
      <point x="97" y="116"/>
      <point x="82" y="135" type="curve" smooth="yes"/>
      <point x="67" y="154"/>
      <point x="70" y="183"/>
      <point x="89" y="198" type="curve" smooth="yes"/>
      <point x="359" y="410" type="line" smooth="yes"/>
      <point x="378" y="425"/>
      <point x="407" y="422"/>
      <point x="422" y="403" type="curve" smooth="yes"/>
      <point x="437" y="384"/>
      <point x="434" y="355"/>
    </contour>
  </outline>
</glyph>
<glyph name="l" format="1">
  <advance width="242"/>
  <unicode hex="006C"/>
  <outline>
    <contour>
      <point x="76" y="33" type="curve" smooth="yes"/>
      <point x="76" y="544" type="line" smooth="yes"/>
      <point x="76" y="568"/>
      <point x="97" y="589"/>
      <point x="121" y="589" type="curve" smooth="yes"/>
      <point x="145" y="589"/>
      <point x="166" y="568"/>
      <point x="166" y="544" type="curve" smooth="yes"/>
      <point x="166" y="33" type="line" smooth="yes"/>
      <point x="166" y="9"/>
      <point x="145" y="-12"/>
      <point x="121" y="-12" type="curve" smooth="yes"/>
      <point x="97" y="-12"/>
      <point x="76" y="9"/>
    </contour>
  </outline>
</glyph>
<glyph name="m" format="1">
  <advance width="762"/>
  <unicode hex="006D"/>
  <outline>
    <contour>
      <point x="70" y="33" type="curve" smooth="yes"/>
      <point x="70" y="375" type="line" smooth="yes"/>
      <point x="70" y="399"/>
      <point x="91" y="420"/>
      <point x="115" y="420" type="curve" smooth="yes"/>
      <point x="139" y="420"/>
      <point x="160" y="399"/>
      <point x="160" y="375" type="curve" smooth="yes"/>
      <point x="160" y="33" type="line" smooth="yes"/>
      <point x="160" y="9"/>
      <point x="139" y="-12"/>
      <point x="115" y="-12" type="curve" smooth="yes"/>
      <point x="91" y="-12"/>
      <point x="70" y="9"/>
    </contour>
    <contour>
      <point x="342" y="33" type="curve" smooth="yes"/>
      <point x="342" y="243" type="line" smooth="yes"/>
      <point x="342" y="303"/>
      <point x="318" y="330"/>
      <point x="278" y="330" type="curve" smooth="yes"/>
      <point x="232" y="330"/>
      <point x="185" y="295"/>
      <point x="150" y="256" type="curve" smooth="yes"/>
      <point x="134" y="238"/>
      <point x="105" y="236"/>
      <point x="87" y="253" type="curve" smooth="yes"/>
      <point x="69" y="269"/>
      <point x="67" y="298"/>
      <point x="84" y="316" type="curve" smooth="yes"/>
      <point x="137" y="375"/>
      <point x="210" y="420"/>
      <point x="278" y="420" type="curve" smooth="yes"/>
      <point x="360" y="420"/>
      <point x="432" y="389"/>
      <point x="432" y="243" type="curve" smooth="yes"/>
      <point x="432" y="33" type="line" smooth="yes"/>
      <point x="432" y="9"/>
      <point x="411" y="-12"/>
      <point x="387" y="-12" type="curve" smooth="yes"/>
      <point x="363" y="-12"/>
      <point x="342" y="9"/>
    </contour>
    <contour>
      <point x="612" y="33" type="curve" smooth="yes"/>
      <point x="612" y="243" type="line" smooth="yes"/>
      <point x="612" y="303"/>
      <point x="588" y="330"/>
      <point x="548" y="330" type="curve" smooth="yes"/>
      <point x="502" y="330"/>
      <point x="456" y="294"/>
      <point x="420" y="256" type="curve" smooth="yes"/>
      <point x="404" y="238"/>
      <point x="374" y="236"/>
      <point x="357" y="253" type="curve" smooth="yes"/>
      <point x="339" y="269"/>
      <point x="337" y="299"/>
      <point x="354" y="316" type="curve" smooth="yes"/>
      <point x="408" y="376"/>
      <point x="480" y="420"/>
      <point x="548" y="420" type="curve" smooth="yes"/>
      <point x="630" y="420"/>
      <point x="702" y="389"/>
      <point x="702" y="243" type="curve" smooth="yes"/>
      <point x="702" y="33" type="line" smooth="yes"/>
      <point x="702" y="9"/>
      <point x="681" y="-12"/>
      <point x="657" y="-12" type="curve" smooth="yes"/>
      <point x="633" y="-12"/>
      <point x="612" y="9"/>
    </contour>
  </outline>
</glyph>
<glyph name="o" format="1">
  <advance width="504"/>
  <unicode hex="006F"/>
  <outline>
    <contour>
      <point x="252" y="424" type="curve" smooth="yes"/>
      <point x="386" y="424"/>
      <point x="471" y="324"/>
      <point x="471" y="199" type="curve" smooth="yes"/>
      <point x="471" y="78"/>
      <point x="386" y="-16"/>
      <point x="252" y="-16" type="curve" smooth="yes"/>
      <point x="118" y="-16"/>
      <point x="33" y="79"/>
      <point x="33" y="201" type="curve"/>
      <point x="33" y="323"/>
      <point x="117" y="424"/>
    </contour>
    <contour>
      <point x="252" y="334" type="curve" smooth="yes"/>
      <point x="171" y="334"/>
      <point x="123" y="273"/>
      <point x="123" y="201" type="curve"/>
      <point x="123" y="129"/>
      <point x="174" y="74"/>
      <point x="252" y="74" type="curve" smooth="yes"/>
      <point x="330" y="74"/>
      <point x="381" y="128"/>
      <point x="381" y="199" type="curve" smooth="yes"/>
      <point x="381" y="272"/>
      <point x="332" y="334"/>
    </contour>
  </outline>
</glyph>
<glyph name="q" format="1">
  <advance width="513"/>
  <unicode hex="0071"/>
  <outline>
    <contour>
      <point x="443" y="375" type="curve" smooth="yes"/>
      <point x="443" y="-158" type="line" smooth="yes"/>
      <point x="443" y="-182"/>
      <point x="422" y="-203"/>
      <point x="398" y="-203" type="curve" smooth="yes"/>
      <point x="374" y="-203"/>
      <point x="353" y="-182"/>
      <point x="353" y="-158" type="curve" smooth="yes"/>
      <point x="353" y="375" type="line" smooth="yes"/>
      <point x="353" y="399"/>
      <point x="374" y="420"/>
      <point x="398" y="420" type="curve" smooth="yes"/>
      <point x="422" y="420"/>
      <point x="443" y="399"/>
    </contour>
    <contour>
      <point x="374" y="296" type="curve" smooth="yes"/>
      <point x="340" y="318"/>
      <point x="302" y="330"/>
      <point x="254" y="330" type="curve" smooth="yes"/>
      <point x="182" y="330"/>
      <point x="122" y="276"/>
      <point x="122" y="189" type="curve"/>
      <point x="122" y="121"/>
      <point x="171" y="78"/>
      <point x="225" y="78" type="curve" smooth="yes"/>
      <point x="276" y="78"/>
      <point x="324" y="108"/>
      <point x="359" y="165" type="curve" smooth="yes"/>
      <point x="371" y="185"/>
      <point x="400" y="192"/>
      <point x="421" y="179" type="curve" smooth="yes"/>
      <point x="441" y="167"/>
      <point x="448" y="138"/>
      <point x="435" y="117" type="curve" smooth="yes"/>
      <point x="380" y="28"/>
      <point x="302" y="-12"/>
      <point x="225" y="-12" type="curve" smooth="yes"/>
      <point x="127" y="-12"/>
      <point x="32" y="61"/>
      <point x="32" y="189" type="curve"/>
      <point x="32" y="334"/>
      <point x="136" y="420"/>
      <point x="254" y="420" type="curve" smooth="yes"/>
      <point x="322" y="420"/>
      <point x="374" y="402"/>
      <point x="422" y="372" type="curve" smooth="yes"/>
      <point x="443" y="359"/>
      <point x="449" y="330"/>
      <point x="436" y="310" type="curve" smooth="yes"/>
      <point x="423" y="289"/>
      <point x="394" y="283"/>
    </contour>
  </outline>
</glyph>
<glyph name="r" format="1">
  <advance width="358"/>
  <unicode hex="0072"/>
  <outline>
    <contour>
      <point x="70" y="33" type="curve" smooth="yes"/>
      <point x="70" y="375" type="line" smooth="yes"/>
      <point x="70" y="399"/>
      <point x="91" y="420"/>
      <point x="115" y="420" type="curve" smooth="yes"/>
      <point x="139" y="420"/>
      <point x="160" y="399"/>
      <point x="160" y="375" type="curve" smooth="yes"/>
      <point x="160" y="33" type="line" smooth="yes"/>
      <point x="160" y="9"/>
      <point x="139" y="-12"/>
      <point x="115" y="-12" type="curve" smooth="yes"/>
      <point x="91" y="-12"/>
      <point x="70" y="9"/>
    </contour>
    <contour>
      <point x="78" y="268" type="curve" smooth="yes"/>
      <point x="133" y="354"/>
      <point x="199" y="407"/>
      <point x="301" y="420" type="curve" smooth="yes"/>
      <point x="326" y="423"/>
      <point x="349" y="405"/>
      <point x="352" y="381" type="curve" smooth="yes"/>
      <point x="355" y="356"/>
      <point x="337" y="333"/>
      <point x="313" y="330" type="curve" smooth="yes"/>
      <point x="239" y="321"/>
      <point x="193" y="280"/>
      <point x="154" y="220" type="curve" smooth="yes"/>
      <point x="141" y="199"/>
      <point x="112" y="193"/>
      <point x="92" y="206" type="curve" smooth="yes"/>
      <point x="71" y="219"/>
      <point x="65" y="248"/>
    </contour>
  </outline>
</glyph>
<glyph name="s" format="1">
  <advance width="462"/>
  <unicode hex="0073"/>
  <outline>
    <contour>
      <point x="331" y="317" type="curve" smooth="yes"/>
      <point x="305" y="324"/>
      <point x="271" y="330"/>
      <point x="234" y="330" type="curve" smooth="yes"/>
      <point x="192" y="330"/>
      <point x="151" y="320"/>
      <point x="151" y="293" type="curve" smooth="yes"/>
      <point x="151" y="269"/>
      <point x="191" y="263"/>
      <point x="230" y="259" type="curve" smooth="yes"/>
      <point x="270" y="255" type="line" smooth="yes"/>
      <point x="387" y="243"/>
      <point x="421" y="180"/>
      <point x="421" y="119" type="curve" smooth="yes"/>
      <point x="421" y="58"/>
      <point x="389" y="-16"/>
      <point x="240" y="-16" type="curve" smooth="yes"/>
      <point x="187" y="-16"/>
      <point x="132" y="-6"/>
      <point x="82" y="16" type="curve" smooth="yes"/>
      <point x="60" y="25"/>
      <point x="49" y="53"/>
      <point x="59" y="75" type="curve" smooth="yes"/>
      <point x="68" y="97"/>
      <point x="96" y="108"/>
      <point x="118" y="98" type="curve" smooth="yes"/>
      <point x="156" y="82"/>
      <point x="199" y="74"/>
      <point x="240" y="74" type="curve" smooth="yes"/>
      <point x="290" y="74"/>
      <point x="331" y="88"/>
      <point x="331" y="119" type="curve" smooth="yes"/>
      <point x="331" y="146"/>
      <point x="301" y="161"/>
      <point x="262" y="165" type="curve" smooth="yes"/>
      <point x="222" y="169" type="line" smooth="yes"/>
      <point x="81" y="183"/>
      <point x="61" y="243"/>
      <point x="61" y="293" type="curve"/>
      <point x="61" y="348"/>
      <point x="90" y="420"/>
      <point x="234" y="420" type="curve" smooth="yes"/>
      <point x="281" y="420"/>
      <point x="323" y="412"/>
      <point x="355" y="403" type="curve" smooth="yes"/>
      <point x="378" y="397"/>
      <point x="393" y="371"/>
      <point x="386" y="348" type="curve" smooth="yes"/>
      <point x="380" y="325"/>
      <point x="354" y="310"/>
    </contour>
  </outline>
</glyph>
<glyph name="t" format="1">
  <advance width="364"/>
  <unicode hex="0074"/>
  <outline>
    <contour>
      <point x="184" y="501" type="curve" smooth="yes"/>
      <point x="184" y="150" type="line" smooth="yes"/>
      <point x="184" y="99"/>
      <point x="223" y="79"/>
      <point x="285" y="78" type="curve" smooth="yes"/>
      <point x="309" y="78"/>
      <point x="329" y="56"/>
      <point x="329" y="32" type="curve" smooth="yes"/>
      <point x="329" y="8"/>
      <point x="307" y="-12"/>
      <point x="283" y="-12" type="curve" smooth="yes"/>
      <point x="143" y="-9"/>
      <point x="94" y="53"/>
      <point x="94" y="150" type="curve"/>
      <point x="94" y="501" type="line" smooth="yes"/>
      <point x="94" y="525"/>
      <point x="115" y="546"/>
      <point x="139" y="546" type="curve" smooth="yes"/>
      <point x="163" y="546"/>
      <point x="184" y="525"/>
    </contour>
    <contour>
      <point x="51" y="420" type="curve" smooth="yes"/>
      <point x="297" y="420" type="line" smooth="yes"/>
      <point x="321" y="420"/>
      <point x="342" y="399"/>
      <point x="342" y="375" type="curve" smooth="yes"/>
      <point x="342" y="351"/>
      <point x="321" y="330"/>
      <point x="297" y="330" type="curve" smooth="yes"/>
      <point x="51" y="330" type="line" smooth="yes"/>
      <point x="27" y="330"/>
      <point x="6" y="351"/>
      <point x="6" y="375" type="curve" smooth="yes"/>
      <point x="6" y="399"/>
      <point x="27" y="420"/>
    </contour>
  </outline>
</glyph>
<glyph name="u" format="1">
  <advance width="507"/>
  <unicode hex="0075"/>
  <outline>
    <contour>
      <point x="437" y="375" type="curve" smooth="yes"/>
      <point x="437" y="33" type="line" smooth="yes"/>
      <point x="437" y="9"/>
      <point x="416" y="-12"/>
      <point x="392" y="-12" type="curve" smooth="yes"/>
      <point x="368" y="-12"/>
      <point x="347" y="9"/>
      <point x="347" y="33" type="curve" smooth="yes"/>
      <point x="347" y="375" type="line" smooth="yes"/>
      <point x="347" y="399"/>
      <point x="368" y="420"/>
      <point x="392" y="420" type="curve" smooth="yes"/>
      <point x="416" y="420"/>
      <point x="437" y="399"/>
    </contour>
    <contour>
      <point x="150" y="375" type="curve" smooth="yes"/>
      <point x="150" y="175" type="line" smooth="yes"/>
      <point x="150" y="112"/>
      <point x="173" y="78"/>
      <point x="217" y="78" type="curve" smooth="yes"/>
      <point x="268" y="78"/>
      <point x="319" y="121"/>
      <point x="352" y="166" type="curve" smooth="yes"/>
      <point x="366" y="186"/>
      <point x="395" y="191"/>
      <point x="414" y="176" type="curve" smooth="yes"/>
      <point x="434" y="162"/>
      <point x="439" y="133"/>
      <point x="424" y="114" type="curve" smooth="yes"/>
      <point x="373" y="43"/>
      <point x="292" y="-12"/>
      <point x="217" y="-12" type="curve" smooth="yes"/>
      <point x="133" y="-12"/>
      <point x="60" y="28"/>
      <point x="60" y="175" type="curve"/>
      <point x="60" y="375" type="line" smooth="yes"/>
      <point x="60" y="399"/>
      <point x="81" y="420"/>
      <point x="105" y="420" type="curve" smooth="yes"/>
      <point x="129" y="420"/>
      <point x="150" y="399"/>
    </contour>
  </outline>
</glyph>
<glyph name="v" format="1">
  <advance width="461"/>
  <unicode hex="0076"/>
  <outline>
    <contour>
      <point x="110" y="391" type="curve" smooth="yes"/>
      <point x="168" y="241"/>
      <point x="220" y="137"/>
      <point x="272" y="53" type="curve"/>
      <point x="234" y="74" type="line"/>
      <point x="237" y="74" type="line"/>
      <point x="198" y="52" type="line"/>
      <point x="249" y="136"/>
      <point x="313" y="283"/>
      <point x="352" y="390" type="curve" smooth="yes"/>
      <point x="360" y="413"/>
      <point x="387" y="426"/>
      <point x="409" y="417" type="curve" smooth="yes"/>
      <point x="432" y="409"/>
      <point x="445" y="382"/>
      <point x="436" y="360" type="curve" smooth="yes"/>
      <point x="395" y="247"/>
      <point x="329" y="94"/>
      <point x="276" y="6" type="curve" smooth="yes"/>
      <point x="268" y="-6"/>
      <point x="251" y="-16"/>
      <point x="237" y="-16" type="curve" smooth="yes"/>
      <point x="234" y="-16" type="line" smooth="yes"/>
      <point x="220" y="-16"/>
      <point x="203" y="-6"/>
      <point x="196" y="5" type="curve" smooth="yes"/>
      <point x="142" y="93"/>
      <point x="86" y="203"/>
      <point x="26" y="359" type="curve" smooth="yes"/>
      <point x="17" y="381"/>
      <point x="29" y="408"/>
      <point x="52" y="417" type="curve" smooth="yes"/>
      <point x="74" y="426"/>
      <point x="101" y="414"/>
    </contour>
  </outline>
</glyph>
<glyph name="w" format="1">
  <advance width="709"/>
  <unicode hex="0077"/>
  <outline>
    <contour>
      <point x="121" y="386" type="curve" smooth="yes"/>
      <point x="158" y="256"/>
      <point x="204" y="134"/>
      <point x="245" y="49" type="curve"/>
      <point x="204" y="75" type="line"/>
      <point x="206" y="75" type="line"/>
      <point x="166" y="50" type="line"/>
      <point x="208" y="134"/>
      <point x="275" y="271"/>
      <point x="308" y="377" type="curve" smooth="yes"/>
      <point x="315" y="401"/>
      <point x="341" y="414"/>
      <point x="364" y="407" type="curve" smooth="yes"/>
      <point x="388" y="400"/>
      <point x="401" y="374"/>
      <point x="394" y="351" type="curve" smooth="yes"/>
      <point x="359" y="239"/>
      <point x="290" y="98"/>
      <point x="246" y="10" type="curve" smooth="yes"/>
      <point x="239" y="-4"/>
      <point x="221" y="-15"/>
      <point x="206" y="-15" type="curve" smooth="yes"/>
      <point x="204" y="-15" type="line" smooth="yes"/>
      <point x="188" y="-15"/>
      <point x="170" y="-4"/>
      <point x="163" y="11" type="curve" smooth="yes"/>
      <point x="122" y="98"/>
      <point x="72" y="226"/>
      <point x="35" y="362" type="curve" smooth="yes"/>
      <point x="28" y="385"/>
      <point x="43" y="411"/>
      <point x="66" y="417" type="curve" smooth="yes"/>
      <point x="89" y="424"/>
      <point x="115" y="409"/>
    </contour>
    <contour>
      <point x="400" y="379" type="curve" smooth="yes"/>
      <point x="447" y="248"/>
      <point x="499" y="135"/>
      <point x="544" y="50" type="curve"/>
      <point x="504" y="74" type="line"/>
      <point x="506" y="74" type="line"/>
      <point x="465" y="48" type="line"/>
      <point x="503" y="132"/>
      <point x="556" y="267"/>
      <point x="589" y="385" type="curve" smooth="yes"/>
      <point x="595" y="408"/>
      <point x="621" y="423"/>
      <point x="644" y="416" type="curve" smooth="yes"/>
      <point x="667" y="410"/>
      <point x="682" y="384"/>
      <point x="675" y="361" type="curve" smooth="yes"/>
      <point x="642" y="239"/>
      <point x="587" y="98"/>
      <point x="547" y="10" type="curve" smooth="yes"/>
      <point x="540" y="-4"/>
      <point x="522" y="-16"/>
      <point x="506" y="-16" type="curve" smooth="yes"/>
      <point x="504" y="-16" type="line" smooth="yes"/>
      <point x="489" y="-16"/>
      <point x="471" y="-5"/>
      <point x="464" y="8" type="curve" smooth="yes"/>
      <point x="417" y="95"/>
      <point x="363" y="214"/>
      <point x="316" y="349" type="curve" smooth="yes"/>
      <point x="307" y="372"/>
      <point x="320" y="398"/>
      <point x="343" y="406" type="curve" smooth="yes"/>
      <point x="366" y="415"/>
      <point x="392" y="402"/>
    </contour>
  </outline>
</glyph>
<glyph name="x" format="1">
  <advance width="457"/>
  <unicode hex="0078"/>
  <outline>
    <contour>
      <point x="34" y="63" type="curve" smooth="yes"/>
      <point x="99" y="136"/>
      <point x="256" y="305"/>
      <point x="334" y="403" type="curve" smooth="yes"/>
      <point x="349" y="422"/>
      <point x="378" y="425"/>
      <point x="397" y="410" type="curve" smooth="yes"/>
      <point x="416" y="395"/>
      <point x="419" y="366"/>
      <point x="404" y="347" type="curve" smooth="yes"/>
      <point x="326" y="249"/>
      <point x="167" y="78"/>
      <point x="102" y="3" type="curve" smooth="yes"/>
      <point x="86" y="-15"/>
      <point x="57" y="-17"/>
      <point x="38" y="-1" type="curve" smooth="yes"/>
      <point x="20" y="15"/>
      <point x="18" y="44"/>
    </contour>
    <contour>
      <point x="115" y="404" type="curve" smooth="yes"/>
      <point x="193" y="312"/>
      <point x="333" y="165"/>
      <point x="423" y="63" type="curve" smooth="yes"/>
      <point x="439" y="44"/>
      <point x="437" y="15"/>
      <point x="419" y="-1" type="curve" smooth="yes"/>
      <point x="400" y="-17"/>
      <point x="371" y="-15"/>
      <point x="355" y="3" type="curve" smooth="yes"/>
      <point x="265" y="107"/>
      <point x="125" y="254"/>
      <point x="47" y="346" type="curve" smooth="yes"/>
      <point x="31" y="364"/>
      <point x="33" y="394"/>
      <point x="52" y="409" type="curve" smooth="yes"/>
      <point x="70" y="425"/>
      <point x="100" y="423"/>
    </contour>
  </outline>
</glyph>
<glyph name="y" format="1">
  <advance width="460"/>
  <unicode hex="0079"/>
  <outline>
    <contour>
      <point x="46" y="-102" type="curve" smooth="yes"/>
      <point x="103" y="-69"/>
      <point x="154" y="-29"/>
      <point x="205" y="57" type="curve" smooth="yes"/>
      <point x="257" y="144"/>
      <point x="315" y="278"/>
      <point x="348" y="388" type="curve" smooth="yes"/>
      <point x="355" y="411"/>
      <point x="381" y="425"/>
      <point x="404" y="418" type="curve" smooth="yes"/>
      <point x="427" y="411"/>
      <point x="441" y="385"/>
      <point x="434" y="362" type="curve" smooth="yes"/>
      <point x="399" y="246"/>
      <point x="337" y="104"/>
      <point x="283" y="11" type="curve" smooth="yes"/>
      <point x="222" y="-93"/>
      <point x="159" y="-141"/>
      <point x="90" y="-180" type="curve" smooth="yes"/>
      <point x="69" y="-192"/>
      <point x="41" y="-184"/>
      <point x="29" y="-163" type="curve" smooth="yes"/>
      <point x="17" y="-142"/>
      <point x="25" y="-114"/>
    </contour>
    <contour>
      <point x="112" y="391" type="curve" smooth="yes"/>
      <point x="165" y="242"/>
      <point x="229" y="135"/>
      <point x="279" y="58" type="curve" smooth="yes"/>
      <point x="292" y="38"/>
      <point x="286" y="9"/>
      <point x="265" y="-4" type="curve" smooth="yes"/>
      <point x="245" y="-17"/>
      <point x="216" y="-11"/>
      <point x="203" y="10" type="curve" smooth="yes"/>
      <point x="151" y="91"/>
      <point x="83" y="204"/>
      <point x="28" y="361" type="curve" smooth="yes"/>
      <point x="19" y="384"/>
      <point x="32" y="410"/>
      <point x="55" y="418" type="curve" smooth="yes"/>
      <point x="78" y="427"/>
      <point x="104" y="414"/>
    </contour>
  </outline>
</glyph>
<glyph name="z" format="1">
  <advance width="454"/>
  <unicode hex="007A"/>
  <outline>
    <contour>
      <point x="360" y="330" type="curve" smooth="yes"/>
      <point x="91" y="330" type="line" smooth="yes"/>
      <point x="67" y="330"/>
      <point x="46" y="351"/>
      <point x="46" y="375" type="curve" smooth="yes"/>
      <point x="46" y="399"/>
      <point x="67" y="420"/>
      <point x="91" y="420" type="curve" smooth="yes"/>
      <point x="360" y="420" type="line" smooth="yes"/>
      <point x="384" y="420"/>
      <point x="405" y="399"/>
      <point x="405" y="375" type="curve" smooth="yes"/>
      <point x="405" y="351"/>
      <point x="384" y="330"/>
    </contour>
    <contour>
      <point x="76" y="78" type="curve" smooth="yes"/>
      <point x="377" y="78" type="line" smooth="yes"/>
      <point x="401" y="78"/>
      <point x="422" y="57"/>
      <point x="422" y="33" type="curve" smooth="yes"/>
      <point x="422" y="9"/>
      <point x="401" y="-12"/>
      <point x="377" y="-12" type="curve" smooth="yes"/>
      <point x="76" y="-12" type="line" smooth="yes"/>
      <point x="52" y="-12"/>
      <point x="31" y="9"/>
      <point x="31" y="33" type="curve" smooth="yes"/>
      <point x="31" y="57"/>
      <point x="52" y="78"/>
    </contour>
    <contour>
      <point x="400" y="346" type="curve" smooth="yes"/>
      <point x="116" y="12" type="line" smooth="yes"/>
      <point x="101" y="-7"/>
      <point x="71" y="-9"/>
      <point x="53" y="7" type="curve" smooth="yes"/>
      <point x="34" y="22"/>
      <point x="32" y="52"/>
      <point x="48" y="70" type="curve" smooth="yes"/>
      <point x="332" y="404" type="line" smooth="yes"/>
      <point x="347" y="423"/>
      <point x="377" y="425"/>
      <point x="395" y="409" type="curve" smooth="yes"/>
      <point x="414" y="394"/>
      <point x="416" y="364"/>
    </contour>
  </outline>
</glyph>
<glyph name="braceleft" format="1">
  <advance width="325"/>
  <unicode hex="007B"/>
  <outline>
    <contour>
      <point x="278" y="568" type="curve" smooth="yes"/>
      <point x="258" y="568" type="line" smooth="yes"/>
      <point x="201" y="568"/>
      <point x="145" y="546"/>
      <point x="145" y="505" type="curve" smooth="yes"/>
      <point x="145" y="440"/>
      <point x="212" y="405"/>
      <point x="212" y="347" type="curve" smooth="yes"/>
      <point x="212" y="297"/>
      <point x="182" y="248"/>
      <point x="72" y="231" type="curve"/>
      <point x="110" y="276" type="line"/>
      <point x="110" y="270" type="line"/>
      <point x="72" y="315" type="line"/>
      <point x="182" y="298"/>
      <point x="212" y="249"/>
      <point x="212" y="199" type="curve" smooth="yes"/>
      <point x="212" y="141"/>
      <point x="145" y="106"/>
      <point x="145" y="41" type="curve" smooth="yes"/>
      <point x="145" y="0"/>
      <point x="201" y="-22"/>
      <point x="258" y="-22" type="curve" smooth="yes"/>
      <point x="278" y="-22" type="line" smooth="yes"/>
      <point x="302" y="-22"/>
      <point x="323" y="-43"/>
      <point x="323" y="-67" type="curve" smooth="yes"/>
      <point x="323" y="-91"/>
      <point x="302" y="-112"/>
      <point x="278" y="-112" type="curve" smooth="yes"/>
      <point x="258" y="-112" type="line" smooth="yes"/>
      <point x="119" y="-112"/>
      <point x="55" y="-32"/>
      <point x="55" y="41" type="curve"/>
      <point x="55" y="106"/>
      <point x="122" y="141"/>
      <point x="122" y="199" type="curve" smooth="yes"/>
      <point x="122" y="221"/>
      <point x="84" y="222"/>
      <point x="58" y="225" type="curve" smooth="yes"/>
      <point x="37" y="229"/>
      <point x="20" y="249"/>
      <point x="20" y="270" type="curve"/>
      <point x="20" y="276" type="line"/>
      <point x="20" y="297"/>
      <point x="37" y="317"/>
      <point x="58" y="321" type="curve" smooth="yes"/>
      <point x="84" y="324"/>
      <point x="122" y="325"/>
      <point x="122" y="347" type="curve" smooth="yes"/>
      <point x="122" y="405"/>
      <point x="55" y="440"/>
      <point x="55" y="505" type="curve" smooth="yes"/>
      <point x="55" y="578"/>
      <point x="119" y="658"/>
      <point x="258" y="658" type="curve" smooth="yes"/>
      <point x="278" y="658" type="line" smooth="yes"/>
      <point x="302" y="658"/>
      <point x="323" y="637"/>
      <point x="323" y="613" type="curve" smooth="yes"/>
      <point x="323" y="589"/>
      <point x="302" y="568"/>
    </contour>
  </outline>
</glyph>
<glyph name="bar" format="1">
  <advance width="310"/>
  <unicode hex="007C"/>
  <outline>
    <contour>
      <point x="200" y="545" type="curve" smooth="yes"/>
      <point x="200" y="-68" type="line" smooth="yes"/>
      <point x="200" y="-92"/>
      <point x="179" y="-113"/>
      <point x="155" y="-113" type="curve" smooth="yes"/>
      <point x="131" y="-113"/>
      <point x="110" y="-92"/>
      <point x="110" y="-68" type="curve" smooth="yes"/>
      <point x="110" y="545" type="line" smooth="yes"/>
      <point x="110" y="569"/>
      <point x="131" y="590"/>
      <point x="155" y="590" type="curve" smooth="yes"/>
      <point x="179" y="590"/>
      <point x="200" y="569"/>
    </contour>
  </outline>
</glyph>
<glyph name="asciitilde" format="1">
  <advance width="565"/>
  <unicode hex="007E"/>
  <outline>
    <contour>
      <point x="67" y="237" type="curve" smooth="yes"/>
      <point x="112" y="328"/>
      <point x="155" y="360"/>
      <point x="206" y="360" type="curve" smooth="yes"/>
      <point x="251" y="360"/>
      <point x="281" y="334"/>
      <point x="319" y="293" type="curve" smooth="yes"/>
      <point x="336" y="273"/>
      <point x="348" y="255"/>
      <point x="368" y="255" type="curve" smooth="yes"/>
      <point x="400" y="255"/>
      <point x="411" y="293"/>
      <point x="434" y="339" type="curve" smooth="yes"/>
      <point x="444" y="361"/>
      <point x="472" y="370"/>
      <point x="494" y="359" type="curve" smooth="yes"/>
      <point x="516" y="349"/>
      <point x="525" y="321"/>
      <point x="514" y="299" type="curve" smooth="yes"/>
      <point x="465" y="197"/>
      <point x="424" y="165"/>
      <point x="368" y="165" type="curve" smooth="yes"/>
      <point x="326" y="165"/>
      <point x="292" y="187"/>
      <point x="251" y="233" type="curve" smooth="yes"/>
      <point x="237" y="250"/>
      <point x="227" y="270"/>
      <point x="206" y="270" type="curve" smooth="yes"/>
      <point x="179" y="270"/>
      <point x="166" y="236"/>
      <point x="147" y="197" type="curve" smooth="yes"/>
      <point x="137" y="175"/>
      <point x="109" y="166"/>
      <point x="87" y="177" type="curve" smooth="yes"/>
      <point x="65" y="187"/>
      <point x="56" y="215"/>
    </contour>
  </outline>
</glyph>
<glyph name="cent" format="1">
  <advance width="443"/>
  <unicode hex="00A2"/>
  <outline>
    <contour>
      <point x="289" y="517" type="curve" smooth="yes"/>
      <point x="289" y="33" type="line" smooth="yes"/>
      <point x="289" y="9"/>
      <point x="268" y="-12"/>
      <point x="244" y="-12" type="curve" smooth="yes"/>
      <point x="220" y="-12"/>
      <point x="199" y="9"/>
      <point x="199" y="33" type="curve" smooth="yes"/>
      <point x="199" y="517" type="line" smooth="yes"/>
      <point x="199" y="541"/>
      <point x="220" y="562"/>
      <point x="244" y="562" type="curve" smooth="yes"/>
      <point x="268" y="562"/>
      <point x="289" y="541"/>
    </contour>
    <contour>
      <point x="341" y="379" type="curve" smooth="yes"/>
      <point x="318" y="386"/>
      <point x="290" y="391"/>
      <point x="265" y="391" type="curve" smooth="yes"/>
      <point x="178" y="391"/>
      <point x="124" y="340"/>
      <point x="124" y="265" type="curve"/>
      <point x="124" y="199"/>
      <point x="180" y="155"/>
      <point x="264" y="155" type="curve" smooth="yes"/>
      <point x="299" y="155"/>
      <point x="327" y="162"/>
      <point x="351" y="170" type="curve" smooth="yes"/>
      <point x="374" y="179"/>
      <point x="400" y="166"/>
      <point x="408" y="143" type="curve" smooth="yes"/>
      <point x="417" y="120"/>
      <point x="404" y="94"/>
      <point x="381" y="86" type="curve" smooth="yes"/>
      <point x="349" y="74"/>
      <point x="311" y="65"/>
      <point x="264" y="65" type="curve" smooth="yes"/>
      <point x="110" y="65"/>
      <point x="34" y="157"/>
      <point x="34" y="265" type="curve"/>
      <point x="34" y="388"/>
      <point x="116" y="481"/>
      <point x="265" y="481" type="curve" smooth="yes"/>
      <point x="298" y="481"/>
      <point x="336" y="474"/>
      <point x="367" y="465" type="curve" smooth="yes"/>
      <point x="390" y="458"/>
      <point x="404" y="433"/>
      <point x="397" y="409" type="curve" smooth="yes"/>
      <point x="390" y="386"/>
      <point x="365" y="372"/>
    </contour>
  </outline>
</glyph>
<glyph name="sterling" format="1">
  <advance width="466"/>
  <unicode hex="00A3"/>
  <outline>
    <contour>
      <point x="41" y="75" type="curve" smooth="yes"/>
      <point x="118" y="145" type="line" smooth="yes"/>
      <point x="136" y="162"/>
      <point x="153" y="181"/>
      <point x="153" y="200" type="curve" smooth="yes"/>
      <point x="153" y="218"/>
      <point x="141" y="239"/>
      <point x="125" y="258" type="curve" smooth="yes"/>
      <point x="78" y="313"/>
      <point x="52" y="356"/>
      <point x="52" y="414" type="curve" smooth="yes"/>
      <point x="52" y="492"/>
      <point x="109" y="572"/>
      <point x="219" y="572" type="curve" smooth="yes"/>
      <point x="274" y="572"/>
      <point x="324" y="555"/>
      <point x="366" y="529" type="curve" smooth="yes"/>
      <point x="387" y="516"/>
      <point x="393" y="488"/>
      <point x="380" y="467" type="curve" smooth="yes"/>
      <point x="367" y="446"/>
      <point x="339" y="440"/>
      <point x="318" y="453" type="curve" smooth="yes"/>
      <point x="290" y="471"/>
      <point x="256" y="482"/>
      <point x="219" y="482" type="curve" smooth="yes"/>
      <point x="171" y="482"/>
      <point x="142" y="450"/>
      <point x="142" y="414" type="curve" smooth="yes"/>
      <point x="142" y="376"/>
      <point x="164" y="351"/>
      <point x="193" y="316" type="curve" smooth="yes"/>
      <point x="225" y="279"/>
      <point x="243" y="234"/>
      <point x="243" y="200" type="curve" smooth="yes"/>
      <point x="243" y="161"/>
      <point x="218" y="114"/>
      <point x="178" y="79" type="curve" smooth="yes"/>
      <point x="101" y="9" type="line" smooth="yes"/>
      <point x="83" y="-8"/>
      <point x="54" y="-6"/>
      <point x="38" y="12" type="curve" smooth="yes"/>
      <point x="21" y="30"/>
      <point x="23" y="59"/>
    </contour>
    <contour>
      <point x="375" y="-12" type="curve" smooth="yes"/>
      <point x="61" y="-12" type="line" smooth="yes"/>
      <point x="37" y="-12"/>
      <point x="16" y="9"/>
      <point x="16" y="33" type="curve" smooth="yes"/>
      <point x="16" y="57"/>
      <point x="37" y="78"/>
      <point x="61" y="78" type="curve" smooth="yes"/>
      <point x="375" y="78" type="line" smooth="yes"/>
      <point x="399" y="78"/>
      <point x="420" y="57"/>
      <point x="420" y="33" type="curve" smooth="yes"/>
      <point x="420" y="9"/>
      <point x="399" y="-12"/>
    </contour>
    <contour>
      <point x="67" y="303" type="curve" smooth="yes"/>
      <point x="366" y="303" type="line" smooth="yes"/>
      <point x="390" y="303"/>
      <point x="411" y="282"/>
      <point x="411" y="258" type="curve" smooth="yes"/>
      <point x="411" y="234"/>
      <point x="390" y="213"/>
      <point x="366" y="213" type="curve" smooth="yes"/>
      <point x="67" y="213" type="line" smooth="yes"/>
      <point x="43" y="213"/>
      <point x="22" y="234"/>
      <point x="22" y="258" type="curve" smooth="yes"/>
      <point x="22" y="282"/>
      <point x="43" y="303"/>
    </contour>
  </outline>
</glyph>
<glyph name="currency" format="1">
  <advance width="531.0"/>
  <unicode hex="00A4"/>
  <outline>
    <contour>
      <point x="265" y="441" type="curve" smooth="yes"/>
      <point x="389" y="441"/>
      <point x="468" y="348"/>
      <point x="468" y="232" type="curve" smooth="yes"/>
      <point x="468" y="120"/>
      <point x="389" y="33"/>
      <point x="265" y="33" type="curve" smooth="yes"/>
      <point x="141" y="33"/>
      <point x="62" y="121"/>
      <point x="62" y="234" type="curve"/>
      <point x="62" y="347"/>
      <point x="140" y="441"/>
    </contour>
    <contour>
      <point x="265" y="351" type="curve" smooth="yes"/>
      <point x="194" y="351"/>
      <point x="152" y="297"/>
      <point x="152" y="234" type="curve" smooth="yes"/>
      <point x="152" y="171"/>
      <point x="197" y="123"/>
      <point x="265" y="123" type="curve" smooth="yes"/>
      <point x="333" y="123"/>
      <point x="378" y="170"/>
      <point x="378" y="232" type="curve" smooth="yes"/>
      <point x="378" y="296"/>
      <point x="335" y="351"/>
    </contour>
    <contour>
      <point x="416" y="4" type="curve" smooth="yes"/>
      <point x="345" y="82" type="line" smooth="yes"/>
      <point x="328" y="100"/>
      <point x="330" y="129"/>
      <point x="348" y="145" type="curve" smooth="yes"/>
      <point x="366" y="162"/>
      <point x="395" y="160"/>
      <point x="411" y="142" type="curve" smooth="yes"/>
      <point x="482" y="64" type="line" smooth="yes"/>
      <point x="499" y="46"/>
      <point x="497" y="17"/>
      <point x="479" y="1" type="curve" smooth="yes"/>
      <point x="461" y="-16"/>
      <point x="432" y="-14"/>
    </contour>
    <contour>
      <point x="119" y="329" type="curve" smooth="yes"/>
      <point x="54" y="400" type="line" smooth="yes"/>
      <point x="37" y="418"/>
      <point x="39" y="447"/>
      <point x="57" y="463" type="curve" smooth="yes"/>
      <point x="75" y="480"/>
      <point x="104" y="478"/>
      <point x="120" y="460" type="curve" smooth="yes"/>
      <point x="185" y="389" type="line" smooth="yes"/>
      <point x="202" y="371"/>
      <point x="200" y="342"/>
      <point x="182" y="326" type="curve" smooth="yes"/>
      <point x="164" y="309"/>
      <point x="135" y="311"/>
    </contour>
    <contour>
      <point x="345" y="390" type="curve" smooth="yes"/>
      <point x="410" y="462" type="line" smooth="yes"/>
      <point x="426" y="480"/>
      <point x="455" y="482"/>
      <point x="473" y="465" type="curve" smooth="yes"/>
      <point x="491" y="449"/>
      <point x="493" y="420"/>
      <point x="476" y="402" type="curve" smooth="yes"/>
      <point x="411" y="330" type="line" smooth="yes"/>
      <point x="395" y="312"/>
      <point x="366" y="310"/>
      <point x="348" y="327" type="curve" smooth="yes"/>
      <point x="330" y="343"/>
      <point x="328" y="372"/>
    </contour>
    <contour>
      <point x="49" y="64" type="curve" smooth="yes"/>
      <point x="117" y="139" type="line" smooth="yes"/>
      <point x="133" y="157"/>
      <point x="162" y="159"/>
      <point x="180" y="142" type="curve" smooth="yes"/>
      <point x="198" y="126"/>
      <point x="200" y="97"/>
      <point x="183" y="79" type="curve" smooth="yes"/>
      <point x="115" y="4" type="line" smooth="yes"/>
      <point x="99" y="-14"/>
      <point x="70" y="-16"/>
      <point x="52" y="1" type="curve" smooth="yes"/>
      <point x="34" y="17"/>
      <point x="32" y="46"/>
    </contour>
  </outline>
</glyph>
<glyph name="yen" format="1">
  <advance width="570"/>
  <unicode hex="00A5"/>
  <outline>
    <contour>
      <point x="338" y="275" type="curve" smooth="yes"/>
      <point x="338" y="33" type="line" smooth="yes"/>
      <point x="338" y="9"/>
      <point x="317" y="-12"/>
      <point x="293" y="-12" type="curve" smooth="yes"/>
      <point x="269" y="-12"/>
      <point x="248" y="9"/>
      <point x="248" y="33" type="curve" smooth="yes"/>
      <point x="248" y="275" type="line" smooth="yes"/>
      <point x="248" y="299"/>
      <point x="269" y="320"/>
      <point x="293" y="320" type="curve" smooth="yes"/>
      <point x="317" y="320"/>
      <point x="338" y="299"/>
    </contour>
    <contour>
      <point x="135" y="544" type="curve" smooth="yes"/>
      <point x="182" y="476"/>
      <point x="284" y="359"/>
      <point x="321" y="323" type="curve" smooth="yes"/>
      <point x="339" y="306"/>
      <point x="339" y="277"/>
      <point x="322" y="260" type="curve" smooth="yes"/>
      <point x="305" y="242"/>
      <point x="276" y="242"/>
      <point x="259" y="259" type="curve" smooth="yes"/>
      <point x="220" y="297"/>
      <point x="112" y="420"/>
      <point x="61" y="492" type="curve" smooth="yes"/>
      <point x="47" y="512"/>
      <point x="52" y="541"/>
      <point x="72" y="555" type="curve" smooth="yes"/>
      <point x="92" y="569"/>
      <point x="121" y="564"/>
    </contour>
    <contour>
      <point x="261" y="313" type="curve" smooth="yes"/>
      <point x="310" y="362"/>
      <point x="400" y="477"/>
      <point x="447" y="544" type="curve" smooth="yes"/>
      <point x="461" y="564"/>
      <point x="490" y="569"/>
      <point x="510" y="555" type="curve" smooth="yes"/>
      <point x="530" y="541"/>
      <point x="535" y="512"/>
      <point x="521" y="492" type="curve" smooth="yes"/>
      <point x="470" y="421"/>
      <point x="376" y="300"/>
      <point x="325" y="249" type="curve" smooth="yes"/>
      <point x="308" y="232"/>
      <point x="278" y="232"/>
      <point x="261" y="249" type="curve" smooth="yes"/>
      <point x="244" y="266"/>
      <point x="244" y="296"/>
    </contour>
    <contour>
      <point x="118" y="322" type="curve" smooth="yes"/>
      <point x="466" y="322" type="line" smooth="yes"/>
      <point x="490" y="322"/>
      <point x="511" y="301"/>
      <point x="511" y="277" type="curve" smooth="yes"/>
      <point x="511" y="253"/>
      <point x="490" y="232"/>
      <point x="466" y="232" type="curve" smooth="yes"/>
      <point x="118" y="232" type="line" smooth="yes"/>
      <point x="94" y="232"/>
      <point x="73" y="253"/>
      <point x="73" y="277" type="curve" smooth="yes"/>
      <point x="73" y="301"/>
      <point x="94" y="322"/>
    </contour>
    <contour>
      <point x="118" y="180" type="curve" smooth="yes"/>
      <point x="466" y="180" type="line" smooth="yes"/>
      <point x="490" y="180"/>
      <point x="511" y="159"/>
      <point x="511" y="135" type="curve" smooth="yes"/>
      <point x="511" y="111"/>
      <point x="490" y="90"/>
      <point x="466" y="90" type="curve" smooth="yes"/>
      <point x="118" y="90" type="line" smooth="yes"/>
      <point x="94" y="90"/>
      <point x="73" y="111"/>
      <point x="73" y="135" type="curve" smooth="yes"/>
      <point x="73" y="159"/>
      <point x="94" y="180"/>
    </contour>
  </outline>
</glyph>
<glyph name="brokenbar" format="1">
  <advance width="310"/>
  <unicode hex="00A6"/>
  <outline>
    <contour>
      <point x="200" y="159" type="curve" smooth="yes"/>
      <point x="200" y="-68" type="line" smooth="yes"/>
      <point x="200" y="-92"/>
      <point x="179" y="-113"/>
      <point x="155" y="-113" type="curve" smooth="yes"/>
      <point x="131" y="-113"/>
      <point x="110" y="-92"/>
      <point x="110" y="-68" type="curve" smooth="yes"/>
      <point x="110" y="159" type="line" smooth="yes"/>
      <point x="110" y="183"/>
      <point x="131" y="204"/>
      <point x="155" y="204" type="curve" smooth="yes"/>
      <point x="179" y="204"/>
      <point x="200" y="183"/>
    </contour>
    <contour>
      <point x="200" y="545" type="curve" smooth="yes"/>
      <point x="200" y="318" type="line" smooth="yes"/>
      <point x="200" y="294"/>
      <point x="179" y="273"/>
      <point x="155" y="273" type="curve" smooth="yes"/>
      <point x="131" y="273"/>
      <point x="110" y="294"/>
      <point x="110" y="318" type="curve" smooth="yes"/>
      <point x="110" y="545" type="line" smooth="yes"/>
      <point x="110" y="569"/>
      <point x="131" y="590"/>
      <point x="155" y="590" type="curve" smooth="yes"/>
      <point x="179" y="590"/>
      <point x="200" y="569"/>
    </contour>
  </outline>
</glyph>
<glyph name="section" format="1">
  <advance width="535"/>
  <unicode hex="00A7"/>
  <outline>
    <contour>
      <point x="384" y="457" type="curve" smooth="yes"/>
      <point x="342" y="471"/>
      <point x="311" y="479"/>
      <point x="248" y="479" type="curve" smooth="yes"/>
      <point x="207" y="479"/>
      <point x="157" y="467"/>
      <point x="157" y="438" type="curve" smooth="yes"/>
      <point x="157" y="408"/>
      <point x="197" y="386"/>
      <point x="276" y="375" type="curve" smooth="yes"/>
      <point x="445" y="341"/>
      <point x="477" y="277"/>
      <point x="477" y="211" type="curve" smooth="yes"/>
      <point x="477" y="143"/>
      <point x="435" y="70"/>
      <point x="268" y="70" type="curve" smooth="yes"/>
      <point x="244" y="70"/>
      <point x="223" y="91"/>
      <point x="223" y="115" type="curve" smooth="yes"/>
      <point x="223" y="139"/>
      <point x="244" y="160"/>
      <point x="268" y="160" type="curve" smooth="yes"/>
      <point x="329" y="160"/>
      <point x="387" y="173"/>
      <point x="387" y="211" type="curve" smooth="yes"/>
      <point x="387" y="251"/>
      <point x="337" y="271"/>
      <point x="262" y="285" type="curve" smooth="yes"/>
      <point x="73" y="314"/>
      <point x="67" y="386"/>
      <point x="67" y="438" type="curve"/>
      <point x="67" y="497"/>
      <point x="119" y="569"/>
      <point x="248" y="569" type="curve" smooth="yes"/>
      <point x="323" y="569"/>
      <point x="360" y="559"/>
      <point x="412" y="543" type="curve" smooth="yes"/>
      <point x="435" y="535"/>
      <point x="448" y="509"/>
      <point x="441" y="486" type="curve" smooth="yes"/>
      <point x="433" y="463"/>
      <point x="407" y="450"/>
    </contour>
    <contour>
      <point x="238" y="286" type="curve" smooth="yes"/>
      <point x="191" y="286"/>
      <point x="147" y="272"/>
      <point x="147" y="231" type="curve" smooth="yes"/>
      <point x="147" y="198"/>
      <point x="184" y="174"/>
      <point x="267" y="159" type="curve" smooth="yes"/>
      <point x="441" y="129"/>
      <point x="467" y="78"/>
      <point x="467" y="11" type="curve" smooth="yes"/>
      <point x="467" y="-57"/>
      <point x="423" y="-135"/>
      <point x="258" y="-135" type="curve" smooth="yes"/>
      <point x="191" y="-135"/>
      <point x="128" y="-123"/>
      <point x="70" y="-96" type="curve" smooth="yes"/>
      <point x="48" y="-86"/>
      <point x="38" y="-58"/>
      <point x="48" y="-36" type="curve" smooth="yes"/>
      <point x="58" y="-14"/>
      <point x="86" y="-4"/>
      <point x="108" y="-14" type="curve" smooth="yes"/>
      <point x="154" y="-35"/>
      <point x="205" y="-45"/>
      <point x="258" y="-45" type="curve" smooth="yes"/>
      <point x="321" y="-45"/>
      <point x="377" y="-27"/>
      <point x="377" y="11" type="curve" smooth="yes"/>
      <point x="377" y="52"/>
      <point x="321" y="59"/>
      <point x="251" y="71" type="curve" smooth="yes"/>
      <point x="66" y="102"/>
      <point x="57" y="176"/>
      <point x="57" y="231" type="curve"/>
      <point x="57" y="312"/>
      <point x="115" y="376"/>
      <point x="238" y="376" type="curve" smooth="yes"/>
      <point x="262" y="376"/>
      <point x="283" y="355"/>
      <point x="283" y="331" type="curve" smooth="yes"/>
      <point x="283" y="307"/>
      <point x="262" y="286"/>
    </contour>
  </outline>
</glyph>
<glyph name="dieresis" format="1">
  <advance width="500"/>
  <unicode hex="00A8"/>
  <outline>
    <contour>
      <point x="156" y="631" type="curve" smooth="yes"/>
      <point x="183" y="631"/>
      <point x="216" y="612"/>
      <point x="216" y="560" type="curve" smooth="yes"/>
      <point x="216" y="508"/>
      <point x="185" y="491"/>
      <point x="156" y="491" type="curve" smooth="yes"/>
      <point x="124" y="491"/>
      <point x="93" y="515"/>
      <point x="93" y="560" type="curve"/>
      <point x="93" y="606"/>
      <point x="126" y="631"/>
    </contour>
    <contour>
      <point x="334" y="631" type="curve" smooth="yes"/>
      <point x="361" y="631"/>
      <point x="394" y="612"/>
      <point x="394" y="560" type="curve" smooth="yes"/>
      <point x="394" y="508"/>
      <point x="363" y="491"/>
      <point x="334" y="491" type="curve" smooth="yes"/>
      <point x="302" y="491"/>
      <point x="271" y="515"/>
      <point x="271" y="560" type="curve" smooth="yes"/>
      <point x="271" y="606"/>
      <point x="304" y="631"/>
    </contour>
    <contour>
      <point x="156" y="541" type="curve" smooth="yes"/>
      <point x="164" y="541"/>
      <point x="183" y="541"/>
      <point x="183" y="560" type="curve" smooth="yes"/>
      <point x="183" y="580"/>
      <point x="166" y="581"/>
      <point x="156" y="581" type="curve" smooth="yes"/>
      <point x="147" y="581"/>
      <point x="126" y="586"/>
      <point x="126" y="560" type="curve"/>
      <point x="126" y="534"/>
      <point x="149" y="541"/>
    </contour>
    <contour>
      <point x="334" y="541" type="curve" smooth="yes"/>
      <point x="342" y="541"/>
      <point x="361" y="541"/>
      <point x="361" y="560" type="curve" smooth="yes"/>
      <point x="361" y="580"/>
      <point x="344" y="581"/>
      <point x="334" y="581" type="curve" smooth="yes"/>
      <point x="325" y="581"/>
      <point x="304" y="586"/>
      <point x="304" y="560" type="curve" smooth="yes"/>
      <point x="304" y="534"/>
      <point x="327" y="541"/>
    </contour>
  </outline>
</glyph>
<glyph name="copyright" format="1">
  <advance width="663"/>
  <unicode hex="00A9"/>
  <outline>
    <contour>
      <point x="334" y="572" type="curve" smooth="yes"/>
      <point x="498" y="572"/>
      <point x="629" y="450"/>
      <point x="629" y="275" type="curve" smooth="yes"/>
      <point x="629" y="109"/>
      <point x="520" y="-21"/>
      <point x="334" y="-21" type="curve" smooth="yes"/>
      <point x="157" y="-21"/>
      <point x="34" y="110"/>
      <point x="34" y="272" type="curve"/>
      <point x="34" y="450"/>
      <point x="154" y="572"/>
    </contour>
    <contour>
      <point x="389" y="350" type="curve" smooth="yes"/>
      <point x="377" y="357"/>
      <point x="359" y="361"/>
      <point x="340" y="361" type="curve" smooth="yes"/>
      <point x="295" y="361"/>
      <point x="256" y="325"/>
      <point x="256" y="274" type="curve" smooth="yes"/>
      <point x="256" y="226"/>
      <point x="289" y="190"/>
      <point x="343" y="190" type="curve" smooth="yes"/>
      <point x="362" y="190"/>
      <point x="379" y="194"/>
      <point x="392" y="201" type="curve" smooth="yes"/>
      <point x="414" y="212"/>
      <point x="442" y="203"/>
      <point x="453" y="182" type="curve" smooth="yes"/>
      <point x="464" y="160"/>
      <point x="455" y="132"/>
      <point x="434" y="121" type="curve" smooth="yes"/>
      <point x="409" y="108"/>
      <point x="378" y="100"/>
      <point x="343" y="100" type="curve" smooth="yes"/>
      <point x="231" y="100"/>
      <point x="166" y="176"/>
      <point x="166" y="274" type="curve" smooth="yes"/>
      <point x="166" y="379"/>
      <point x="249" y="451"/>
      <point x="340" y="451" type="curve" smooth="yes"/>
      <point x="377" y="451"/>
      <point x="409" y="441"/>
      <point x="431" y="430" type="curve" smooth="yes"/>
      <point x="453" y="418"/>
      <point x="461" y="390"/>
      <point x="450" y="369" type="curve" smooth="yes"/>
      <point x="438" y="347"/>
      <point x="410" y="339"/>
    </contour>
    <contour>
      <point x="334" y="482" type="curve" smooth="yes"/>
      <point x="208" y="482"/>
      <point x="124" y="396"/>
      <point x="124" y="272" type="curve"/>
      <point x="124" y="158"/>
      <point x="211" y="69"/>
      <point x="334" y="69" type="curve" smooth="yes"/>
      <point x="464" y="69"/>
      <point x="539" y="159"/>
      <point x="539" y="275" type="curve" smooth="yes"/>
      <point x="539" y="396"/>
      <point x="448" y="482"/>
    </contour>
  </outline>
</glyph>
<glyph name="ordfeminine" format="1">
  <advance width="454"/>
  <unicode hex="00AA"/>
  <outline>
    <contour>
      <point x="103" y="219" type="curve" smooth="yes"/>
      <point x="361" y="219" type="line" smooth="yes"/>
      <point x="385" y="219"/>
      <point x="406" y="198"/>
      <point x="406" y="174" type="curve" smooth="yes"/>
      <point x="406" y="150"/>
      <point x="385" y="129"/>
      <point x="361" y="129" type="curve" smooth="yes"/>
      <point x="103" y="129" type="line" smooth="yes"/>
      <point x="79" y="129"/>
      <point x="58" y="150"/>
      <point x="58" y="174" type="curve" smooth="yes"/>
      <point x="58" y="198"/>
      <point x="79" y="219"/>
    </contour>
    <contour>
      <point x="137" y="549" type="curve" smooth="yes"/>
      <point x="155" y="555"/>
      <point x="186" y="562"/>
      <point x="214" y="562" type="curve" smooth="yes"/>
      <point x="307" y="562"/>
      <point x="351" y="506"/>
      <point x="351" y="424" type="curve" smooth="yes"/>
      <point x="351" y="364" type="line" smooth="yes"/>
      <point x="351" y="343"/>
      <point x="354" y="329"/>
      <point x="364" y="318" type="curve" smooth="yes"/>
      <point x="380" y="300"/>
      <point x="378" y="271"/>
      <point x="360" y="254" type="curve" smooth="yes"/>
      <point x="342" y="238"/>
      <point x="313" y="240"/>
      <point x="296" y="258" type="curve" smooth="yes"/>
      <point x="274" y="283"/>
      <point x="261" y="313"/>
      <point x="261" y="364" type="curve" smooth="yes"/>
      <point x="261" y="424" type="line" smooth="yes"/>
      <point x="261" y="452"/>
      <point x="247" y="472"/>
      <point x="214" y="472" type="curve" smooth="yes"/>
      <point x="196" y="472"/>
      <point x="177" y="467"/>
      <point x="165" y="463" type="curve" smooth="yes"/>
      <point x="142" y="456"/>
      <point x="116" y="469"/>
      <point x="108" y="492" type="curve" smooth="yes"/>
      <point x="101" y="515"/>
      <point x="114" y="541"/>
    </contour>
    <contour>
      <point x="302" y="372" type="curve" smooth="yes"/>
      <point x="280" y="373"/>
      <point x="260" y="375"/>
      <point x="241" y="375" type="curve" smooth="yes"/>
      <point x="206" y="375"/>
      <point x="182" y="368"/>
      <point x="166" y="354" type="curve"/>
      <point x="169" y="356" type="line"/>
      <point x="165" y="352"/>
      <point x="164" y="347"/>
      <point x="164" y="342" type="curve" smooth="yes"/>
      <point x="164" y="335"/>
      <point x="176" y="333"/>
      <point x="184" y="333" type="curve" smooth="yes"/>
      <point x="221" y="333"/>
      <point x="247" y="347"/>
      <point x="270" y="379" type="curve" smooth="yes"/>
      <point x="284" y="398"/>
      <point x="313" y="403"/>
      <point x="333" y="388" type="curve" smooth="yes"/>
      <point x="352" y="374"/>
      <point x="357" y="345"/>
      <point x="342" y="325" type="curve" smooth="yes"/>
      <point x="299" y="267"/>
      <point x="251" y="243"/>
      <point x="184" y="243" type="curve" smooth="yes"/>
      <point x="98" y="243"/>
      <point x="74" y="301"/>
      <point x="74" y="342" type="curve"/>
      <point x="74" y="373"/>
      <point x="81" y="396"/>
      <point x="105" y="420" type="curve" smooth="yes"/>
      <point x="106" y="420"/>
      <point x="107" y="421"/>
      <point x="108" y="422" type="curve" smooth="yes"/>
      <point x="136" y="446"/>
      <point x="176" y="465"/>
      <point x="241" y="465" type="curve" smooth="yes"/>
      <point x="262" y="465"/>
      <point x="282" y="463"/>
      <point x="306" y="462" type="curve" smooth="yes"/>
      <point x="330" y="461"/>
      <point x="350" y="439"/>
      <point x="349" y="415" type="curve" smooth="yes"/>
      <point x="348" y="391"/>
      <point x="326" y="371"/>
    </contour>
  </outline>
</glyph>
<glyph name="guillemotleft" format="1">
  <advance width="448"/>
  <unicode hex="00AB"/>
  <outline>
    <contour>
      <point x="280" y="228" type="curve" smooth="yes"/>
      <point x="391" y="104" type="line" smooth="yes"/>
      <point x="407" y="86"/>
      <point x="405" y="57"/>
      <point x="387" y="40" type="curve" smooth="yes"/>
      <point x="369" y="24"/>
      <point x="340" y="26"/>
      <point x="323" y="44" type="curve" smooth="yes"/>
      <point x="212" y="168" type="line" smooth="yes"/>
      <point x="196" y="186"/>
      <point x="198" y="215"/>
      <point x="216" y="232" type="curve" smooth="yes"/>
      <point x="234" y="248"/>
      <point x="263" y="246"/>
    </contour>
    <contour>
      <point x="391" y="296" type="curve" smooth="yes"/>
      <point x="280" y="172" type="line" smooth="yes"/>
      <point x="263" y="154"/>
      <point x="234" y="152"/>
      <point x="216" y="168" type="curve" smooth="yes"/>
      <point x="198" y="185"/>
      <point x="196" y="214"/>
      <point x="212" y="232" type="curve" smooth="yes"/>
      <point x="323" y="356" type="line" smooth="yes"/>
      <point x="340" y="374"/>
      <point x="369" y="376"/>
      <point x="387" y="360" type="curve" smooth="yes"/>
      <point x="405" y="343"/>
      <point x="407" y="314"/>
    </contour>
    <contour>
      <point x="110" y="228" type="curve" smooth="yes"/>
      <point x="221" y="104" type="line" smooth="yes"/>
      <point x="237" y="86"/>
      <point x="235" y="57"/>
      <point x="217" y="40" type="curve" smooth="yes"/>
      <point x="199" y="24"/>
      <point x="170" y="26"/>
      <point x="153" y="44" type="curve" smooth="yes"/>
      <point x="42" y="168" type="line" smooth="yes"/>
      <point x="26" y="186"/>
      <point x="28" y="215"/>
      <point x="46" y="232" type="curve" smooth="yes"/>
      <point x="64" y="248"/>
      <point x="93" y="246"/>
    </contour>
    <contour>
      <point x="221" y="296" type="curve" smooth="yes"/>
      <point x="110" y="172" type="line" smooth="yes"/>
      <point x="93" y="154"/>
      <point x="64" y="152"/>
      <point x="46" y="168" type="curve" smooth="yes"/>
      <point x="28" y="185"/>
      <point x="26" y="214"/>
      <point x="42" y="232" type="curve" smooth="yes"/>
      <point x="153" y="356" type="line" smooth="yes"/>
      <point x="170" y="374"/>
      <point x="199" y="376"/>
      <point x="217" y="360" type="curve" smooth="yes"/>
      <point x="235" y="343"/>
      <point x="237" y="314"/>
    </contour>
  </outline>
</glyph>
<glyph name="logicalnot" format="1">
  <advance width="491"/>
  <unicode hex="00AC"/>
  <outline>
    <contour>
      <point x="114" y="304" type="curve" smooth="yes"/>
      <point x="377" y="304" type="line" smooth="yes"/>
      <point x="401" y="304"/>
      <point x="422" y="283"/>
      <point x="422" y="259" type="curve" smooth="yes"/>
      <point x="422" y="235"/>
      <point x="401" y="214"/>
      <point x="377" y="214" type="curve" smooth="yes"/>
      <point x="114" y="214" type="line" smooth="yes"/>
      <point x="90" y="214"/>
      <point x="69" y="235"/>
      <point x="69" y="259" type="curve" smooth="yes"/>
      <point x="69" y="283"/>
      <point x="90" y="304"/>
    </contour>
    <contour>
      <point x="422" y="253" type="curve" smooth="yes"/>
      <point x="422" y="152" type="line" smooth="yes"/>
      <point x="422" y="128"/>
      <point x="401" y="107"/>
      <point x="377" y="107" type="curve" smooth="yes"/>
      <point x="353" y="107"/>
      <point x="332" y="128"/>
      <point x="332" y="152" type="curve" smooth="yes"/>
      <point x="332" y="253" type="line" smooth="yes"/>
      <point x="332" y="277"/>
      <point x="353" y="298"/>
      <point x="377" y="298" type="curve" smooth="yes"/>
      <point x="401" y="298"/>
      <point x="422" y="277"/>
    </contour>
  </outline>
</glyph>
<glyph name="registered" format="1">
  <advance width="570"/>
  <unicode hex="00AE"/>
  <outline>
    <contour>
      <point x="282" y="564" type="curve" smooth="yes"/>
      <point x="195" y="564"/>
      <point x="135" y="503"/>
      <point x="135" y="416" type="curve" smooth="yes"/>
      <point x="135" y="332"/>
      <point x="195" y="261"/>
      <point x="289" y="261" type="curve" smooth="yes"/>
      <point x="376" y="261"/>
      <point x="441" y="326"/>
      <point x="441" y="413" type="curve" smooth="yes"/>
      <point x="441" y="500"/>
      <point x="375" y="564"/>
    </contour>
    <contour>
      <point x="240" y="432" type="curve" smooth="yes"/>
      <point x="287" y="432" type="line" smooth="yes"/>
      <point x="297" y="432"/>
      <point x="305" y="437"/>
      <point x="305" y="446" type="curve" smooth="yes"/>
      <point x="305" y="456"/>
      <point x="294" y="457"/>
      <point x="287" y="457" type="curve" smooth="yes"/>
      <point x="230" y="457" type="line"/>
      <point x="275" y="502" type="line"/>
      <point x="275" y="326" type="line" smooth="yes"/>
      <point x="275" y="302"/>
      <point x="254" y="281"/>
      <point x="230" y="281" type="curve" smooth="yes"/>
      <point x="206" y="281"/>
      <point x="185" y="302"/>
      <point x="185" y="326" type="curve" smooth="yes"/>
      <point x="185" y="502" type="line" smooth="yes"/>
      <point x="185" y="527"/>
      <point x="205" y="547"/>
      <point x="230" y="547" type="curve" smooth="yes"/>
      <point x="287" y="547" type="line" smooth="yes"/>
      <point x="356" y="547"/>
      <point x="395" y="506"/>
      <point x="395" y="446" type="curve" smooth="yes"/>
      <point x="395" y="391"/>
      <point x="363" y="342"/>
      <point x="287" y="342" type="curve" smooth="yes"/>
      <point x="240" y="342" type="line" smooth="yes"/>
      <point x="216" y="342"/>
      <point x="195" y="363"/>
      <point x="195" y="387" type="curve" smooth="yes"/>
      <point x="195" y="411"/>
      <point x="216" y="432"/>
    </contour>
    <contour>
      <point x="348" y="410" type="curve" smooth="yes"/>
      <point x="395" y="355" type="line" smooth="yes"/>
      <point x="411" y="337"/>
      <point x="409" y="308"/>
      <point x="390" y="292" type="curve" smooth="yes"/>
      <point x="372" y="276"/>
      <point x="343" y="278"/>
      <point x="327" y="297" type="curve" smooth="yes"/>
      <point x="280" y="352" type="line" smooth="yes"/>
      <point x="264" y="370"/>
      <point x="266" y="399"/>
      <point x="285" y="415" type="curve" smooth="yes"/>
      <point x="303" y="431"/>
      <point x="332" y="429"/>
    </contour>
    <contour>
      <point x="282" y="654" type="curve" smooth="yes"/>
      <point x="431" y="654"/>
      <point x="531" y="550"/>
      <point x="531" y="413" type="curve" smooth="yes"/>
      <point x="531" y="274"/>
      <point x="428" y="171"/>
      <point x="289" y="171" type="curve" smooth="yes"/>
      <point x="141" y="171"/>
      <point x="45" y="284"/>
      <point x="45" y="416" type="curve" smooth="yes"/>
      <point x="45" y="557"/>
      <point x="141" y="654"/>
    </contour>
  </outline>
</glyph>
<glyph name="macron" format="1">
  <advance width="500"/>
  <unicode hex="00AF"/>
  <outline>
    <contour>
      <point x="355" y="499" type="curve" smooth="yes"/>
      <point x="146" y="499" type="line" smooth="yes"/>
      <point x="122" y="499"/>
      <point x="101" y="520"/>
      <point x="101" y="544" type="curve" smooth="yes"/>
      <point x="101" y="568"/>
      <point x="122" y="589"/>
      <point x="146" y="589" type="curve" smooth="yes"/>
      <point x="355" y="589" type="line" smooth="yes"/>
      <point x="379" y="589"/>
      <point x="400" y="568"/>
      <point x="400" y="544" type="curve" smooth="yes"/>
      <point x="400" y="520"/>
      <point x="379" y="499"/>
    </contour>
  </outline>
</glyph>
<glyph name="degree" format="1">
  <advance width="369"/>
  <unicode hex="00B0"/>
  <outline>
    <contour>
      <point x="185" y="568" type="curve" smooth="yes"/>
      <point x="277" y="568"/>
      <point x="333" y="502"/>
      <point x="333" y="419" type="curve" smooth="yes"/>
      <point x="333" y="340"/>
      <point x="277" y="275"/>
      <point x="185" y="275" type="curve" smooth="yes"/>
      <point x="92" y="275"/>
      <point x="36" y="339"/>
      <point x="36" y="419" type="curve"/>
      <point x="36" y="501"/>
      <point x="90" y="568"/>
    </contour>
    <contour>
      <point x="185" y="478" type="curve" smooth="yes"/>
      <point x="148" y="478"/>
      <point x="126" y="451"/>
      <point x="126" y="419" type="curve"/>
      <point x="126" y="387"/>
      <point x="150" y="365"/>
      <point x="185" y="365" type="curve" smooth="yes"/>
      <point x="219" y="365"/>
      <point x="243" y="388"/>
      <point x="243" y="419" type="curve" smooth="yes"/>
      <point x="243" y="452"/>
      <point x="221" y="478"/>
    </contour>
  </outline>
</glyph>
<glyph name="plusminus" format="1">
  <advance width="491"/>
  <unicode hex="00B1"/>
  <outline>
    <contour>
      <point x="92" y="361" type="curve" smooth="yes"/>
      <point x="398" y="361" type="line" smooth="yes"/>
      <point x="422" y="361"/>
      <point x="443" y="340"/>
      <point x="443" y="316" type="curve" smooth="yes"/>
      <point x="443" y="292"/>
      <point x="422" y="271"/>
      <point x="398" y="271" type="curve" smooth="yes"/>
      <point x="92" y="271" type="line" smooth="yes"/>
      <point x="68" y="271"/>
      <point x="47" y="292"/>
      <point x="47" y="316" type="curve" smooth="yes"/>
      <point x="47" y="340"/>
      <point x="68" y="361"/>
    </contour>
    <contour>
      <point x="200" y="207" type="curve" smooth="yes"/>
      <point x="200" y="424" type="line" smooth="yes"/>
      <point x="200" y="448"/>
      <point x="221" y="469"/>
      <point x="245" y="469" type="curve" smooth="yes"/>
      <point x="269" y="469"/>
      <point x="290" y="448"/>
      <point x="290" y="424" type="curve" smooth="yes"/>
      <point x="290" y="207" type="line" smooth="yes"/>
      <point x="290" y="183"/>
      <point x="269" y="162"/>
      <point x="245" y="162" type="curve" smooth="yes"/>
      <point x="221" y="162"/>
      <point x="200" y="183"/>
    </contour>
    <contour>
      <point x="92" y="137" type="curve" smooth="yes"/>
      <point x="398" y="137" type="line" smooth="yes"/>
      <point x="422" y="137"/>
      <point x="443" y="116"/>
      <point x="443" y="92" type="curve" smooth="yes"/>
      <point x="443" y="68"/>
      <point x="422" y="47"/>
      <point x="398" y="47" type="curve" smooth="yes"/>
      <point x="92" y="47" type="line" smooth="yes"/>
      <point x="68" y="47"/>
      <point x="47" y="68"/>
      <point x="47" y="92" type="curve" smooth="yes"/>
      <point x="47" y="116"/>
      <point x="68" y="137"/>
    </contour>
  </outline>
</glyph>
<glyph name="acute" format="1">
  <advance width="500"/>
  <unicode hex="00B4"/>
  <outline>
    <contour>
      <point x="318" y="566" type="curve" smooth="yes"/>
      <point x="286" y="533"/>
      <point x="267" y="510"/>
      <point x="249" y="482" type="curve" smooth="yes"/>
      <point x="236" y="461"/>
      <point x="207" y="455"/>
      <point x="187" y="468" type="curve" smooth="yes"/>
      <point x="166" y="481"/>
      <point x="160" y="510"/>
      <point x="173" y="530" type="curve" smooth="yes"/>
      <point x="195" y="564"/>
      <point x="216" y="589"/>
      <point x="252" y="628" type="curve" smooth="yes"/>
      <point x="269" y="646"/>
      <point x="298" y="646"/>
      <point x="316" y="630" type="curve" smooth="yes"/>
      <point x="334" y="613"/>
      <point x="334" y="584"/>
    </contour>
  </outline>
</glyph>
<glyph name="paragraph" format="1">
  <advance width="566"/>
  <unicode hex="00B6"/>
  <outline>
    <contour>
      <point x="393" y="33" type="curve" smooth="yes"/>
      <point x="393" y="518" type="line"/>
      <point x="438" y="473" type="line"/>
      <point x="250" y="473" type="line" smooth="yes"/>
      <point x="179" y="473"/>
      <point x="127" y="430"/>
      <point x="127" y="364" type="curve"/>
      <point x="127" y="302"/>
      <point x="170" y="254"/>
      <point x="250" y="254" type="curve" smooth="yes"/>
      <point x="306" y="254" type="line" smooth="yes"/>
      <point x="330" y="254"/>
      <point x="351" y="233"/>
      <point x="351" y="209" type="curve" smooth="yes"/>
      <point x="351" y="185"/>
      <point x="330" y="164"/>
      <point x="306" y="164" type="curve" smooth="yes"/>
      <point x="250" y="164" type="line" smooth="yes"/>
      <point x="104" y="164"/>
      <point x="37" y="256"/>
      <point x="37" y="364" type="curve"/>
      <point x="37" y="478"/>
      <point x="119" y="563"/>
      <point x="250" y="563" type="curve" smooth="yes"/>
      <point x="438" y="563" type="line" smooth="yes"/>
      <point x="463" y="563"/>
      <point x="483" y="543"/>
      <point x="483" y="518" type="curve" smooth="yes"/>
      <point x="483" y="33" type="line" smooth="yes"/>
      <point x="483" y="9"/>
      <point x="462" y="-12"/>
      <point x="438" y="-12" type="curve" smooth="yes"/>
      <point x="414" y="-12"/>
      <point x="393" y="9"/>
    </contour>
    <contour>
      <point x="261" y="33" type="curve" smooth="yes"/>
      <point x="261" y="516" type="line" smooth="yes"/>
      <point x="261" y="540"/>
      <point x="282" y="561"/>
      <point x="306" y="561" type="curve" smooth="yes"/>
      <point x="330" y="561"/>
      <point x="351" y="540"/>
      <point x="351" y="516" type="curve" smooth="yes"/>
      <point x="351" y="33" type="line" smooth="yes"/>
      <point x="351" y="9"/>
      <point x="330" y="-12"/>
      <point x="306" y="-12" type="curve" smooth="yes"/>
      <point x="282" y="-12"/>
      <point x="261" y="9"/>
    </contour>
  </outline>
</glyph>
<glyph name="cedilla" format="1">
  <advance width="500"/>
  <unicode hex="00B8"/>
  <outline>
    <contour>
      <point x="325" y="-106" type="curve" smooth="yes"/>
      <point x="300" y="-131"/>
      <point x="260" y="-170"/>
      <point x="237" y="-193" type="curve" smooth="yes"/>
      <point x="220" y="-210"/>
      <point x="190" y="-210"/>
      <point x="173" y="-193" type="curve" smooth="yes"/>
      <point x="156" y="-176"/>
      <point x="156" y="-146"/>
      <point x="173" y="-129" type="curve" smooth="yes"/>
      <point x="196" y="-106"/>
      <point x="236" y="-67"/>
      <point x="261" y="-42" type="curve" smooth="yes"/>
      <point x="278" y="-25"/>
      <point x="308" y="-25"/>
      <point x="325" y="-42" type="curve" smooth="yes"/>
      <point x="342" y="-59"/>
      <point x="342" y="-89"/>
    </contour>
  </outline>
</glyph>
<glyph name="ordmasculine" format="1">
  <advance width="448"/>
  <unicode hex="00BA"/>
  <outline>
    <contour>
      <point x="224" y="562" type="curve" smooth="yes"/>
      <point x="320" y="562"/>
      <point x="382" y="489"/>
      <point x="382" y="401" type="curve" smooth="yes"/>
      <point x="382" y="312"/>
      <point x="321" y="244"/>
      <point x="224" y="244" type="curve" smooth="yes"/>
      <point x="127" y="244"/>
      <point x="65" y="312"/>
      <point x="65" y="401" type="curve"/>
      <point x="65" y="489"/>
      <point x="125" y="562"/>
    </contour>
    <contour>
      <point x="224" y="472" type="curve" smooth="yes"/>
      <point x="181" y="472"/>
      <point x="155" y="439"/>
      <point x="155" y="401" type="curve" smooth="yes"/>
      <point x="155" y="362"/>
      <point x="183" y="334"/>
      <point x="224" y="334" type="curve" smooth="yes"/>
      <point x="265" y="334"/>
      <point x="292" y="362"/>
      <point x="292" y="401" type="curve" smooth="yes"/>
      <point x="292" y="439"/>
      <point x="266" y="472"/>
    </contour>
    <contour>
      <point x="103" y="219" type="curve" smooth="yes"/>
      <point x="352" y="219" type="line" smooth="yes"/>
      <point x="376" y="219"/>
      <point x="397" y="198"/>
      <point x="397" y="174" type="curve" smooth="yes"/>
      <point x="397" y="150"/>
      <point x="376" y="129"/>
      <point x="352" y="129" type="curve" smooth="yes"/>
      <point x="103" y="129" type="line" smooth="yes"/>
      <point x="79" y="129"/>
      <point x="58" y="150"/>
      <point x="58" y="174" type="curve" smooth="yes"/>
      <point x="58" y="198"/>
      <point x="79" y="219"/>
    </contour>
  </outline>
</glyph>
<glyph name="guillemotright" format="1">
  <advance width="448"/>
  <unicode hex="00BB"/>
  <outline>
    <contour>
      <point x="57" y="104" type="curve" smooth="yes"/>
      <point x="168" y="228" type="line" smooth="yes"/>
      <point x="185" y="246"/>
      <point x="214" y="248"/>
      <point x="232" y="232" type="curve" smooth="yes"/>
      <point x="250" y="215"/>
      <point x="252" y="186"/>
      <point x="236" y="168" type="curve" smooth="yes"/>
      <point x="125" y="44" type="line" smooth="yes"/>
      <point x="108" y="26"/>
      <point x="79" y="24"/>
      <point x="61" y="40" type="curve" smooth="yes"/>
      <point x="43" y="57"/>
      <point x="41" y="86"/>
    </contour>
    <contour>
      <point x="168" y="172" type="curve" smooth="yes"/>
      <point x="57" y="296" type="line" smooth="yes"/>
      <point x="41" y="314"/>
      <point x="43" y="343"/>
      <point x="61" y="360" type="curve" smooth="yes"/>
      <point x="79" y="376"/>
      <point x="108" y="374"/>
      <point x="125" y="356" type="curve" smooth="yes"/>
      <point x="236" y="232" type="line" smooth="yes"/>
      <point x="252" y="214"/>
      <point x="250" y="185"/>
      <point x="232" y="168" type="curve" smooth="yes"/>
      <point x="214" y="152"/>
      <point x="185" y="154"/>
    </contour>
    <contour>
      <point x="227" y="104" type="curve" smooth="yes"/>
      <point x="338" y="228" type="line" smooth="yes"/>
      <point x="355" y="246"/>
      <point x="384" y="248"/>
      <point x="402" y="232" type="curve" smooth="yes"/>
      <point x="420" y="215"/>
      <point x="422" y="186"/>
      <point x="406" y="168" type="curve" smooth="yes"/>
      <point x="295" y="44" type="line" smooth="yes"/>
      <point x="278" y="26"/>
      <point x="249" y="24"/>
      <point x="231" y="40" type="curve" smooth="yes"/>
      <point x="213" y="57"/>
      <point x="211" y="86"/>
    </contour>
    <contour>
      <point x="338" y="172" type="curve" smooth="yes"/>
      <point x="227" y="296" type="line" smooth="yes"/>
      <point x="211" y="314"/>
      <point x="213" y="343"/>
      <point x="231" y="360" type="curve" smooth="yes"/>
      <point x="249" y="376"/>
      <point x="278" y="374"/>
      <point x="295" y="356" type="curve" smooth="yes"/>
      <point x="406" y="232" type="line" smooth="yes"/>
      <point x="422" y="214"/>
      <point x="420" y="185"/>
      <point x="402" y="168" type="curve" smooth="yes"/>
      <point x="384" y="152"/>
      <point x="355" y="154"/>
    </contour>
  </outline>
</glyph>
<glyph name="onequarter" format="1">
  <advance width="724"/>
  <unicode hex="00BC"/>
  <outline>
    <contour>
      <point x="536" y="495" type="curve" smooth="yes"/>
      <point x="253" y="10" type="line" smooth="yes"/>
      <point x="241" y="-11"/>
      <point x="212" y="-18"/>
      <point x="191" y="-6" type="curve" smooth="yes"/>
      <point x="170" y="6"/>
      <point x="163" y="35"/>
      <point x="175" y="56" type="curve" smooth="yes"/>
      <point x="458" y="541" type="line" smooth="yes"/>
      <point x="470" y="562"/>
      <point x="499" y="569"/>
      <point x="520" y="557" type="curve" smooth="yes"/>
      <point x="541" y="545"/>
      <point x="548" y="516"/>
    </contour>
    <contour>
      <point x="605" y="294" type="curve" smooth="yes"/>
      <point x="605" y="34" type="line" smooth="yes"/>
      <point x="605" y="10"/>
      <point x="584" y="-11"/>
      <point x="560" y="-11" type="curve" smooth="yes"/>
      <point x="536" y="-11"/>
      <point x="515" y="10"/>
      <point x="515" y="34" type="curve" smooth="yes"/>
      <point x="515" y="294" type="line" smooth="yes"/>
      <point x="515" y="318"/>
      <point x="536" y="339"/>
      <point x="560" y="339" type="curve" smooth="yes"/>
      <point x="584" y="339"/>
      <point x="605" y="318"/>
    </contour>
    <contour>
      <point x="590" y="260" type="curve" smooth="yes"/>
      <point x="436" y="80" type="line" smooth="yes"/>
      <point x="420" y="61"/>
      <point x="391" y="59"/>
      <point x="373" y="75" type="curve" smooth="yes"/>
      <point x="354" y="91"/>
      <point x="352" y="120"/>
      <point x="368" y="138" type="curve" smooth="yes"/>
      <point x="522" y="318" type="line" smooth="yes"/>
      <point x="538" y="337"/>
      <point x="567" y="339"/>
      <point x="585" y="323" type="curve" smooth="yes"/>
      <point x="604" y="307"/>
      <point x="606" y="278"/>
    </contour>
    <contour>
      <point x="407" y="154" type="curve" smooth="yes"/>
      <point x="622" y="154" type="line" smooth="yes"/>
      <point x="646" y="154"/>
      <point x="667" y="133"/>
      <point x="667" y="109" type="curve" smooth="yes"/>
      <point x="667" y="85"/>
      <point x="646" y="64"/>
      <point x="622" y="64" type="curve" smooth="yes"/>
      <point x="407" y="64" type="line" smooth="yes"/>
      <point x="383" y="64"/>
      <point x="362" y="85"/>
      <point x="362" y="109" type="curve" smooth="yes"/>
      <point x="362" y="133"/>
      <point x="383" y="154"/>
    </contour>
    <contour>
      <point x="252" y="525" type="curve" smooth="yes"/>
      <point x="252" y="267" type="line" smooth="yes"/>
      <point x="252" y="243"/>
      <point x="231" y="222"/>
      <point x="207" y="222" type="curve" smooth="yes"/>
      <point x="183" y="222"/>
      <point x="162" y="243"/>
      <point x="162" y="267" type="curve" smooth="yes"/>
      <point x="162" y="525" type="line" smooth="yes"/>
      <point x="162" y="549"/>
      <point x="183" y="570"/>
      <point x="207" y="570" type="curve" smooth="yes"/>
      <point x="231" y="570"/>
      <point x="252" y="549"/>
    </contour>
    <contour>
      <point x="228" y="488" type="curve" smooth="yes"/>
      <point x="146" y="444" type="line" smooth="yes"/>
      <point x="125" y="433"/>
      <point x="97" y="441"/>
      <point x="85" y="463" type="curve" smooth="yes"/>
      <point x="74" y="484"/>
      <point x="82" y="512"/>
      <point x="104" y="524" type="curve" smooth="yes"/>
      <point x="186" y="568" type="line" smooth="yes"/>
      <point x="207" y="579"/>
      <point x="235" y="571"/>
      <point x="247" y="549" type="curve" smooth="yes"/>
      <point x="258" y="528"/>
      <point x="250" y="500"/>
    </contour>
  </outline>
</glyph>
